<mxfile host="65bd71144e">
    <diagram id="3eTNk3Eor8UuANhPr01m" name="第 1 页">
        <mxGraphModel dx="666" dy="331" grid="0" gridSize="10" guides="1" tooltips="1" connect="1" arrows="1" fold="1" page="1" pageScale="1" pageWidth="2339" pageHeight="3300" background="#ffffff" math="0" shadow="0">
            <root>
                <mxCell id="0"/>
                <mxCell id="1" parent="0"/>
                <mxCell id="8" style="edgeStyle=none;html=1;entryX=0;entryY=0.5;entryDx=0;entryDy=0;entryPerimeter=0;" parent="1" source="5" target="6" edge="1">
                    <mxGeometry relative="1" as="geometry"/>
                </mxCell>
                <mxCell id="9" style="edgeStyle=none;html=1;entryX=0;entryY=0.5;entryDx=0;entryDy=0;entryPerimeter=0;" parent="1" source="5" target="6" edge="1">
                    <mxGeometry relative="1" as="geometry"/>
                </mxCell>
                <mxCell id="10" style="edgeStyle=none;html=1;entryX=0;entryY=0.5;entryDx=0;entryDy=0;entryPerimeter=0;strokeColor=#000000;" parent="1" source="5" target="6" edge="1">
                    <mxGeometry relative="1" as="geometry"/>
                </mxCell>
                <mxCell id="5" value="GenomeAD" style="shape=cylinder3;whiteSpace=wrap;html=1;boundedLbl=1;backgroundOutline=1;size=15;fillColor=#a20025;fontColor=#ffffff;strokeColor=#6F0000;" parent="1" vertex="1">
                    <mxGeometry x="538.75" y="873.5" width="80" height="60" as="geometry"/>
                </mxCell>
                <mxCell id="16" style="edgeStyle=orthogonalEdgeStyle;html=1;entryX=0.5;entryY=0;entryDx=0;entryDy=0;strokeColor=#000000;fontColor=#000000;" parent="1" source="6" target="14" edge="1">
                    <mxGeometry relative="1" as="geometry"/>
                </mxCell>
                <mxCell id="6" value="Mutations" style="shape=note;whiteSpace=wrap;html=1;backgroundOutline=1;darkOpacity=0.05;size=15;fillColor=#60a917;fontColor=#ffffff;strokeColor=#2D7600;" parent="1" vertex="1">
                    <mxGeometry x="690.75" y="868" width="60" height="70" as="geometry"/>
                </mxCell>
                <mxCell id="17" value="" style="edgeStyle=orthogonalEdgeStyle;html=1;strokeColor=#000000;fontColor=#000000;rounded=1;" parent="1" source="7" target="14" edge="1">
                    <mxGeometry relative="1" as="geometry"/>
                </mxCell>
                <mxCell id="29" style="edgeStyle=none;html=1;strokeColor=#000000;" parent="1" source="7" target="28" edge="1">
                    <mxGeometry relative="1" as="geometry"/>
                </mxCell>
                <mxCell id="37" style="edgeStyle=orthogonalEdgeStyle;html=1;entryX=0.5;entryY=0;entryDx=0;entryDy=0;strokeColor=#000000;" parent="1" source="7" target="36" edge="1">
                    <mxGeometry relative="1" as="geometry"/>
                </mxCell>
                <mxCell id="7" value="Wild Type PDB" style="shape=note;whiteSpace=wrap;html=1;backgroundOutline=1;darkOpacity=0.05;size=16;fillColor=#60a917;fontColor=#ffffff;strokeColor=#2D7600;" parent="1" vertex="1">
                    <mxGeometry x="690.75" y="983" width="60" height="70" as="geometry"/>
                </mxCell>
                <mxCell id="12" style="edgeStyle=none;html=1;strokeColor=#000000;" parent="1" source="11" target="7" edge="1">
                    <mxGeometry relative="1" as="geometry"/>
                </mxCell>
                <mxCell id="11" value="AlphaFold" style="shape=cylinder3;whiteSpace=wrap;html=1;boundedLbl=1;backgroundOutline=1;size=15;fillColor=#a20025;fontColor=#ffffff;strokeColor=#6F0000;" parent="1" vertex="1">
                    <mxGeometry x="538.75" y="988.5" width="80" height="60" as="geometry"/>
                </mxCell>
                <mxCell id="25" style="edgeStyle=orthogonalEdgeStyle;rounded=1;html=1;entryX=0;entryY=0.5;entryDx=0;entryDy=0;strokeColor=#000000;fontColor=#000000;" parent="1" source="14" target="21" edge="1">
                    <mxGeometry relative="1" as="geometry"/>
                </mxCell>
                <mxCell id="39" style="edgeStyle=orthogonalEdgeStyle;html=1;entryX=0.5;entryY=0;entryDx=0;entryDy=0;strokeColor=#000000;" parent="1" source="14" target="38" edge="1">
                    <mxGeometry relative="1" as="geometry"/>
                </mxCell>
                <mxCell id="14" value="&lt;font color=&quot;#000000&quot;&gt;FoldX&lt;/font&gt;" style="ellipse;whiteSpace=wrap;html=1;fillColor=#f8cecc;strokeColor=#b85450;" parent="1" vertex="1">
                    <mxGeometry x="1019.75" y="919" width="103" height="69" as="geometry"/>
                </mxCell>
                <mxCell id="54" style="edgeStyle=orthogonalEdgeStyle;html=1;entryX=0;entryY=0.5;entryDx=0;entryDy=0;strokeColor=#000000;" parent="1" source="21" target="53" edge="1">
                    <mxGeometry relative="1" as="geometry"/>
                </mxCell>
                <mxCell id="21" value="Mutation Type PDB" style="swimlane;fontStyle=0;childLayout=stackLayout;horizontal=1;startSize=30;horizontalStack=0;resizeParent=1;resizeParentMax=0;resizeLast=0;collapsible=1;marginBottom=0;whiteSpace=wrap;html=1;fillColor=#008a00;strokeColor=#005700;fontColor=#ffffff;" parent="1" vertex="1">
                    <mxGeometry x="1207.75" y="893.5" width="139" height="120" as="geometry">
                        <mxRectangle x="561" y="178" width="138" height="30" as="alternateBounds"/>
                    </mxGeometry>
                </mxCell>
                <mxCell id="22" value="&lt;font color=&quot;#000000&quot;&gt;category1_1.pdb&lt;/font&gt;" style="text;strokeColor=#6c8ebf;fillColor=#dae8fc;align=left;verticalAlign=middle;spacingLeft=4;spacingRight=4;overflow=hidden;points=[[0,0.5],[1,0.5]];portConstraint=eastwest;rotatable=0;whiteSpace=wrap;html=1;" parent="21" vertex="1">
                    <mxGeometry y="30" width="139" height="30" as="geometry"/>
                </mxCell>
                <mxCell id="23" value="&lt;span style=&quot;color: rgb(0, 0, 0);&quot;&gt;category1_2.pdb&lt;/span&gt;" style="text;strokeColor=#6c8ebf;fillColor=#dae8fc;align=left;verticalAlign=middle;spacingLeft=4;spacingRight=4;overflow=hidden;points=[[0,0.5],[1,0.5]];portConstraint=eastwest;rotatable=0;whiteSpace=wrap;html=1;" parent="21" vertex="1">
                    <mxGeometry y="60" width="139" height="30" as="geometry"/>
                </mxCell>
                <mxCell id="24" value="&lt;font color=&quot;#000000&quot;&gt;...&lt;/font&gt;" style="text;strokeColor=#6c8ebf;fillColor=#dae8fc;align=left;verticalAlign=middle;spacingLeft=4;spacingRight=4;overflow=hidden;points=[[0,0.5],[1,0.5]];portConstraint=eastwest;rotatable=0;whiteSpace=wrap;html=1;" parent="21" vertex="1">
                    <mxGeometry y="90" width="139" height="30" as="geometry"/>
                </mxCell>
                <mxCell id="31" style="edgeStyle=none;html=1;entryX=0.5;entryY=0;entryDx=0;entryDy=0;strokeColor=#000000;" parent="1" source="28" target="30" edge="1">
                    <mxGeometry relative="1" as="geometry"/>
                </mxCell>
                <mxCell id="28" value="&lt;font color=&quot;#000000&quot;&gt;BLAST&lt;/font&gt;" style="ellipse;whiteSpace=wrap;html=1;fillColor=#f8cecc;strokeColor=#b85450;" parent="1" vertex="1">
                    <mxGeometry x="669.25" y="1130" width="103" height="69" as="geometry"/>
                </mxCell>
                <mxCell id="125" style="edgeStyle=none;html=1;entryX=0;entryY=0.5;entryDx=0;entryDy=0;entryPerimeter=0;strokeColor=#000000;" parent="1" source="30" target="32" edge="1">
                    <mxGeometry relative="1" as="geometry"/>
                </mxCell>
                <mxCell id="30" value="&lt;font color=&quot;#000000&quot;&gt;Clustal Omega&lt;/font&gt;" style="ellipse;whiteSpace=wrap;html=1;fillColor=#f8cecc;strokeColor=#b85450;" parent="1" vertex="1">
                    <mxGeometry x="669.25" y="1276" width="103" height="69" as="geometry"/>
                </mxCell>
                <mxCell id="35" style="edgeStyle=orthogonalEdgeStyle;html=1;entryX=0;entryY=0.5;entryDx=0;entryDy=0;strokeColor=#000000;" parent="1" source="32" target="34" edge="1">
                    <mxGeometry relative="1" as="geometry"/>
                </mxCell>
                <mxCell id="63" style="edgeStyle=orthogonalEdgeStyle;html=1;strokeColor=#000000;" parent="1" source="32" target="62" edge="1">
                    <mxGeometry relative="1" as="geometry"/>
                </mxCell>
                <mxCell id="32" value="MSA.fasta" style="shape=note;whiteSpace=wrap;html=1;backgroundOutline=1;darkOpacity=0.05;size=16;fillColor=#60a917;fontColor=#ffffff;strokeColor=#2D7600;" parent="1" vertex="1">
                    <mxGeometry x="801.25" y="1275" width="60" height="70" as="geometry"/>
                </mxCell>
                <mxCell id="45" style="edgeStyle=orthogonalEdgeStyle;html=1;entryX=0.1;entryY=0.5;entryDx=0;entryDy=0;entryPerimeter=0;strokeColor=#000000;" parent="1" source="34" target="44" edge="1">
                    <mxGeometry relative="1" as="geometry"/>
                </mxCell>
                <mxCell id="52" style="edgeStyle=orthogonalEdgeStyle;html=1;entryX=0.1;entryY=0.5;entryDx=0;entryDy=0;entryPerimeter=0;strokeColor=#000000;" parent="1" source="34" target="51" edge="1">
                    <mxGeometry relative="1" as="geometry"/>
                </mxCell>
                <mxCell id="34" value="&lt;font color=&quot;#000000&quot;&gt;ProDy&lt;/font&gt;" style="ellipse;whiteSpace=wrap;html=1;fillColor=#f8cecc;strokeColor=#b85450;" parent="1" vertex="1">
                    <mxGeometry x="895.25" y="1369" width="103" height="69" as="geometry"/>
                </mxCell>
                <mxCell id="41" style="edgeStyle=orthogonalEdgeStyle;html=1;entryX=0;entryY=0.5;entryDx=0;entryDy=0;strokeColor=#000000;" parent="1" source="36" target="40" edge="1">
                    <mxGeometry relative="1" as="geometry"/>
                </mxCell>
                <mxCell id="36" value="&lt;font color=&quot;#000000&quot;&gt;DSSP&lt;/font&gt;" style="ellipse;whiteSpace=wrap;html=1;fillColor=#f8cecc;strokeColor=#b85450;" parent="1" vertex="1">
                    <mxGeometry x="902.75" y="1072.5" width="103" height="69" as="geometry"/>
                </mxCell>
                <mxCell id="70" style="edgeStyle=orthogonalEdgeStyle;html=1;entryX=0;entryY=0;entryDx=21.999999999999996;entryDy=0;entryPerimeter=0;strokeColor=#000000;" parent="1" source="38" target="67" edge="1">
                    <mxGeometry relative="1" as="geometry"/>
                </mxCell>
                <mxCell id="38" value="ddG&lt;span style=&quot;caret-color: rgb(51, 51, 51); color: rgb(51, 51, 51); font-family: &amp;quot;Helvetica Neue&amp;quot;, Helvetica, Arial, &amp;quot;PingFang SC&amp;quot;, &amp;quot;Hiragino Sans GB&amp;quot;, &amp;quot;Microsoft YaHei&amp;quot;, &amp;quot;WenQuanYi Micro Hei&amp;quot;, sans-serif; font-size: 14px; text-align: start; text-indent: 28px; background-color: rgb(255, 255, 255);&quot;&gt;&lt;/span&gt;&lt;span style=&quot;caret-color: rgb(51, 51, 51); color: rgb(51, 51, 51); font-family: &amp;quot;Helvetica Neue&amp;quot;, Helvetica, Arial, &amp;quot;PingFang SC&amp;quot;, &amp;quot;Hiragino Sans GB&amp;quot;, &amp;quot;Microsoft YaHei&amp;quot;, &amp;quot;WenQuanYi Micro Hei&amp;quot;, sans-serif; font-size: 14px; text-align: start; text-indent: 28px; background-color: rgb(255, 255, 255);&quot;&gt;&lt;/span&gt;" style="rounded=1;whiteSpace=wrap;html=1;fillColor=#1ba1e2;fontColor=#ffffff;strokeColor=#006EAF;" parent="1" vertex="1">
                    <mxGeometry x="1034.75" y="1020" width="73" height="31" as="geometry"/>
                </mxCell>
                <mxCell id="71" style="edgeStyle=orthogonalEdgeStyle;html=1;entryX=0;entryY=0.5;entryDx=0;entryDy=0;entryPerimeter=0;strokeColor=#000000;" parent="1" source="40" target="67" edge="1">
                    <mxGeometry relative="1" as="geometry"/>
                </mxCell>
                <mxCell id="40" value="rASA" style="rounded=1;whiteSpace=wrap;html=1;fillColor=#1ba1e2;fontColor=#ffffff;strokeColor=#006EAF;" parent="1" vertex="1">
                    <mxGeometry x="1032.75" y="1091.5" width="73" height="31" as="geometry"/>
                </mxCell>
                <mxCell id="42" value="S(i)" style="rounded=1;whiteSpace=wrap;html=1;fillColor=#1ba1e2;fontColor=#ffffff;strokeColor=#006EAF;" parent="1" vertex="1">
                    <mxGeometry x="1042.25" y="1311" width="73" height="31" as="geometry"/>
                </mxCell>
                <mxCell id="43" value="M(i)" style="rounded=1;whiteSpace=wrap;html=1;fillColor=#1ba1e2;fontColor=#ffffff;strokeColor=#006EAF;" parent="1" vertex="1">
                    <mxGeometry x="1042.25" y="1342" width="73" height="31" as="geometry"/>
                </mxCell>
                <mxCell id="44" value="" style="shape=curlyBracket;whiteSpace=wrap;html=1;rounded=1;labelPosition=left;verticalLabelPosition=middle;align=right;verticalAlign=middle;strokeColor=#000000;" parent="1" vertex="1">
                    <mxGeometry x="1022.25" y="1311" width="20" height="63" as="geometry"/>
                </mxCell>
                <mxCell id="46" value="Effectiveness" style="rounded=1;whiteSpace=wrap;html=1;fillColor=#1ba1e2;fontColor=#ffffff;strokeColor=#006EAF;" parent="1" vertex="1">
                    <mxGeometry x="1042.25" y="1415" width="73" height="31" as="geometry"/>
                </mxCell>
                <mxCell id="47" value="Sensitivity" style="rounded=1;whiteSpace=wrap;html=1;fillColor=#1ba1e2;fontColor=#ffffff;strokeColor=#006EAF;" parent="1" vertex="1">
                    <mxGeometry x="1042.25" y="1446" width="73" height="31" as="geometry"/>
                </mxCell>
                <mxCell id="48" value="Stiffness" style="rounded=1;whiteSpace=wrap;html=1;fillColor=#1ba1e2;fontColor=#ffffff;strokeColor=#006EAF;" parent="1" vertex="1">
                    <mxGeometry x="1042.25" y="1477" width="73" height="31" as="geometry"/>
                </mxCell>
                <mxCell id="49" value="MSF" style="rounded=1;whiteSpace=wrap;html=1;fillColor=#1ba1e2;fontColor=#ffffff;strokeColor=#006EAF;" parent="1" vertex="1">
                    <mxGeometry x="1042.25" y="1508" width="73" height="31" as="geometry"/>
                </mxCell>
                <mxCell id="50" value="DFI" style="rounded=1;whiteSpace=wrap;html=1;fillColor=#1ba1e2;fontColor=#ffffff;strokeColor=#006EAF;" parent="1" vertex="1">
                    <mxGeometry x="1042.25" y="1539" width="73" height="31" as="geometry"/>
                </mxCell>
                <mxCell id="51" value="" style="shape=curlyBracket;whiteSpace=wrap;html=1;rounded=1;labelPosition=left;verticalLabelPosition=middle;align=right;verticalAlign=middle;strokeColor=#000000;" parent="1" vertex="1">
                    <mxGeometry x="1020.25" y="1415" width="20" height="154" as="geometry"/>
                </mxCell>
                <mxCell id="61" style="edgeStyle=orthogonalEdgeStyle;html=1;entryX=0.1;entryY=0.5;entryDx=0;entryDy=0;entryPerimeter=0;strokeColor=#000000;" parent="1" source="53" target="60" edge="1">
                    <mxGeometry relative="1" as="geometry"/>
                </mxCell>
                <mxCell id="53" value="&lt;font color=&quot;#000000&quot;&gt;NACEN&lt;/font&gt;" style="ellipse;whiteSpace=wrap;html=1;fillColor=#f8cecc;strokeColor=#b85450;" parent="1" vertex="1">
                    <mxGeometry x="1391.75" y="919" width="103" height="69" as="geometry"/>
                </mxCell>
                <mxCell id="55" value="Betweenness" style="rounded=1;whiteSpace=wrap;html=1;fillColor=#1ba1e2;fontColor=#ffffff;strokeColor=#006EAF;" parent="1" vertex="1">
                    <mxGeometry x="1594.25" y="986.5" width="73" height="31" as="geometry"/>
                </mxCell>
                <mxCell id="56" value="Closeness" style="rounded=1;whiteSpace=wrap;html=1;fillColor=#1ba1e2;fontColor=#ffffff;strokeColor=#006EAF;" parent="1" vertex="1">
                    <mxGeometry x="1594.25" y="1017.5" width="73" height="31" as="geometry"/>
                </mxCell>
                <mxCell id="57" value="Degree" style="rounded=1;whiteSpace=wrap;html=1;fillColor=#1ba1e2;fontColor=#ffffff;strokeColor=#006EAF;" parent="1" vertex="1">
                    <mxGeometry x="1594.25" y="1048.5" width="73" height="31" as="geometry"/>
                </mxCell>
                <mxCell id="58" value="Eigenvector" style="rounded=1;whiteSpace=wrap;html=1;fillColor=#1ba1e2;fontColor=#ffffff;strokeColor=#006EAF;" parent="1" vertex="1">
                    <mxGeometry x="1594.25" y="1079.5" width="73" height="31" as="geometry"/>
                </mxCell>
                <mxCell id="59" value="Transivity" style="rounded=1;whiteSpace=wrap;html=1;fillColor=#1ba1e2;fontColor=#ffffff;strokeColor=#006EAF;" parent="1" vertex="1">
                    <mxGeometry x="1594.25" y="1110.5" width="73" height="31" as="geometry"/>
                </mxCell>
                <mxCell id="72" style="edgeStyle=orthogonalEdgeStyle;html=1;entryX=0;entryY=0;entryDx=59.99999999999999;entryDy=43;entryPerimeter=0;strokeColor=#000000;" parent="1" source="60" target="67" edge="1">
                    <mxGeometry relative="1" as="geometry"/>
                </mxCell>
                <mxCell id="60" value="" style="shape=curlyBracket;whiteSpace=wrap;html=1;rounded=1;labelPosition=left;verticalLabelPosition=middle;align=right;verticalAlign=middle;strokeColor=#000000;" parent="1" vertex="1">
                    <mxGeometry x="1571.25" y="986.5" width="20" height="154" as="geometry"/>
                </mxCell>
                <mxCell id="65" style="edgeStyle=orthogonalEdgeStyle;html=1;entryX=0;entryY=0.5;entryDx=0;entryDy=0;strokeColor=#000000;" parent="1" source="62" target="64" edge="1">
                    <mxGeometry relative="1" as="geometry"/>
                </mxCell>
                <mxCell id="62" value="&lt;font color=&quot;#000000&quot;&gt;rate4site&lt;/font&gt;" style="ellipse;whiteSpace=wrap;html=1;fillColor=#f8cecc;strokeColor=#b85450;" parent="1" vertex="1">
                    <mxGeometry x="895.25" y="1218" width="103" height="69" as="geometry"/>
                </mxCell>
                <mxCell id="73" style="edgeStyle=orthogonalEdgeStyle;html=1;entryX=0;entryY=1;entryDx=0;entryDy=0;entryPerimeter=0;strokeColor=#000000;" parent="1" source="64" target="67" edge="1">
                    <mxGeometry relative="1" as="geometry"/>
                </mxCell>
                <mxCell id="64" value="ConservationScore" style="rounded=1;whiteSpace=wrap;html=1;fillColor=#1ba1e2;fontColor=#ffffff;strokeColor=#006EAF;" parent="1" vertex="1">
                    <mxGeometry x="1026.25" y="1237" width="105" height="31" as="geometry"/>
                </mxCell>
                <mxCell id="127" style="edgeStyle=none;html=1;entryX=0.5;entryY=0;entryDx=0;entryDy=0;strokeColor=#006EAF;strokeWidth=3.5;fillColor=#1ba1e2;" parent="1" source="67" target="77" edge="1">
                    <mxGeometry relative="1" as="geometry"/>
                </mxCell>
                <mxCell id="131" style="edgeStyle=orthogonalEdgeStyle;html=1;exitX=1;exitY=1;exitDx=0;exitDy=0;exitPerimeter=0;entryX=0.5;entryY=0;entryDx=0;entryDy=0;fontSize=15;strokeColor=#000000;" parent="1" source="67" target="130" edge="1">
                    <mxGeometry relative="1" as="geometry"/>
                </mxCell>
                <mxCell id="67" value="paras.txt" style="shape=note;whiteSpace=wrap;html=1;backgroundOutline=1;darkOpacity=0.05;size=16;fillColor=#60a917;fontColor=#ffffff;strokeColor=#2D7600;" parent="1" vertex="1">
                    <mxGeometry x="1174" y="1141.5" width="60" height="70" as="geometry"/>
                </mxCell>
                <mxCell id="74" style="edgeStyle=orthogonalEdgeStyle;html=1;strokeColor=#000000;entryX=0;entryY=1;entryDx=0;entryDy=0;entryPerimeter=0;" parent="1" source="68" target="67" edge="1">
                    <mxGeometry relative="1" as="geometry"/>
                </mxCell>
                <mxCell id="68" value="" style="shape=curlyBracket;whiteSpace=wrap;html=1;rounded=1;labelPosition=left;verticalLabelPosition=middle;align=right;verticalAlign=middle;strokeColor=#000000;rotation=-180;" parent="1" vertex="1">
                    <mxGeometry x="1117.25" y="1311" width="20" height="63" as="geometry"/>
                </mxCell>
                <mxCell id="75" style="edgeStyle=orthogonalEdgeStyle;html=1;entryX=0;entryY=1;entryDx=0;entryDy=0;entryPerimeter=0;strokeColor=#000000;" parent="1" source="69" target="67" edge="1">
                    <mxGeometry relative="1" as="geometry"/>
                </mxCell>
                <mxCell id="69" value="" style="shape=curlyBracket;whiteSpace=wrap;html=1;rounded=1;labelPosition=left;verticalLabelPosition=middle;align=right;verticalAlign=middle;strokeColor=#000000;rotation=-180;" parent="1" vertex="1">
                    <mxGeometry x="1115.25" y="1416" width="20" height="154" as="geometry"/>
                </mxCell>
                <mxCell id="77" value="" style="rounded=0;whiteSpace=wrap;html=1;strokeColor=#000000;fillColor=none;fontSize=20;strokeWidth=2;" parent="1" vertex="1">
                    <mxGeometry x="488" y="1662" width="1432" height="280" as="geometry"/>
                </mxCell>
                <mxCell id="78" value="&lt;font face=&quot;Times New Roman&quot; style=&quot;font-size: 20px;&quot; color=&quot;#0000ff&quot;&gt;Machine Learning&lt;/font&gt;" style="text;html=1;strokeColor=none;fillColor=none;align=center;verticalAlign=middle;whiteSpace=wrap;rounded=0;fontStyle=1" parent="1" vertex="1">
                    <mxGeometry x="512.75" y="1682" width="132" height="42" as="geometry"/>
                </mxCell>
                <mxCell id="85" style="edgeStyle=elbowEdgeStyle;html=1;entryX=0;entryY=0.5;entryDx=0;entryDy=0;strokeColor=#000000;strokeWidth=1;fontFamily=Times New Roman;fontSize=12;fontColor=#0000FF;" parent="1" source="79" target="80" edge="1">
                    <mxGeometry relative="1" as="geometry"/>
                </mxCell>
                <mxCell id="86" style="edgeStyle=elbowEdgeStyle;html=1;entryX=0;entryY=0.5;entryDx=0;entryDy=0;strokeColor=#000000;strokeWidth=1;fontFamily=Times New Roman;fontSize=12;fontColor=#0000FF;" parent="1" source="79" target="81" edge="1">
                    <mxGeometry relative="1" as="geometry"/>
                </mxCell>
                <mxCell id="87" style="edgeStyle=elbowEdgeStyle;html=1;entryX=0;entryY=0.5;entryDx=0;entryDy=0;strokeColor=#000000;strokeWidth=1;fontFamily=Times New Roman;fontSize=12;fontColor=#0000FF;" parent="1" source="79" target="82" edge="1">
                    <mxGeometry relative="1" as="geometry"/>
                </mxCell>
                <mxCell id="88" style="edgeStyle=elbowEdgeStyle;html=1;entryX=0;entryY=0.5;entryDx=0;entryDy=0;strokeColor=#000000;strokeWidth=1;fontFamily=Times New Roman;fontSize=12;fontColor=#0000FF;" parent="1" source="79" target="83" edge="1">
                    <mxGeometry relative="1" as="geometry"/>
                </mxCell>
                <mxCell id="89" style="edgeStyle=elbowEdgeStyle;html=1;entryX=0;entryY=0.5;entryDx=0;entryDy=0;strokeColor=#000000;strokeWidth=1;fontFamily=Times New Roman;fontSize=12;fontColor=#0000FF;" parent="1" source="79" target="84" edge="1">
                    <mxGeometry relative="1" as="geometry"/>
                </mxCell>
                <mxCell id="79" value="Binary Classification" style="rounded=1;whiteSpace=wrap;html=1;fillColor=#1ba1e2;fontColor=#ffffff;strokeColor=#006EAF;" parent="1" vertex="1">
                    <mxGeometry x="571" y="1807.25" width="115" height="42" as="geometry"/>
                </mxCell>
                <mxCell id="91" style="edgeStyle=orthogonalEdgeStyle;html=1;entryX=0.5;entryY=0;entryDx=0;entryDy=0;strokeColor=#000000;strokeWidth=1;fontFamily=Times New Roman;fontSize=12;fontColor=#0000FF;" parent="1" source="80" target="90" edge="1">
                    <mxGeometry relative="1" as="geometry"/>
                </mxCell>
                <mxCell id="80" value="&lt;font face=&quot;Helvetica&quot; style=&quot;font-size: 12px;&quot;&gt;SVM&lt;/font&gt;" style="shape=step;perimeter=stepPerimeter;whiteSpace=wrap;html=1;fixedSize=1;strokeColor=#BD7000;strokeWidth=2;fontFamily=Times New Roman;fontSize=20;fontColor=#000000;fillColor=#f0a30a;" parent="1" vertex="1">
                    <mxGeometry x="858.5" y="1746" width="77" height="32" as="geometry"/>
                </mxCell>
                <mxCell id="97" style="edgeStyle=orthogonalEdgeStyle;html=1;entryX=0;entryY=0.5;entryDx=0;entryDy=0;strokeColor=#000000;strokeWidth=1;fontFamily=Times New Roman;fontSize=12;fontColor=#0000FF;" parent="1" source="81" target="90" edge="1">
                    <mxGeometry relative="1" as="geometry"/>
                </mxCell>
                <mxCell id="81" value="&lt;span style=&quot;font-size: 12px;&quot;&gt;&lt;font face=&quot;Helvetica&quot;&gt;RF&lt;/font&gt;&lt;/span&gt;" style="shape=step;perimeter=stepPerimeter;whiteSpace=wrap;html=1;fixedSize=1;strokeColor=#BD7000;strokeWidth=2;fontFamily=Times New Roman;fontSize=20;fontColor=#000000;fillColor=#f0a30a;" parent="1" vertex="1">
                    <mxGeometry x="858.5" y="1778" width="77" height="32" as="geometry"/>
                </mxCell>
                <mxCell id="98" style="edgeStyle=orthogonalEdgeStyle;html=1;entryX=0;entryY=0.5;entryDx=0;entryDy=0;strokeColor=#000000;strokeWidth=1;fontFamily=Times New Roman;fontSize=12;fontColor=#0000FF;" parent="1" source="82" target="90" edge="1">
                    <mxGeometry relative="1" as="geometry"/>
                </mxCell>
                <mxCell id="82" value="&lt;span style=&quot;font-size: 12px;&quot;&gt;&lt;font face=&quot;Helvetica&quot;&gt;GB&lt;/font&gt;&lt;/span&gt;" style="shape=step;perimeter=stepPerimeter;whiteSpace=wrap;html=1;fixedSize=1;strokeColor=#BD7000;strokeWidth=2;fontFamily=Times New Roman;fontSize=20;fontColor=#000000;fillColor=#f0a30a;" parent="1" vertex="1">
                    <mxGeometry x="858.5" y="1812" width="77" height="32" as="geometry"/>
                </mxCell>
                <mxCell id="99" style="edgeStyle=orthogonalEdgeStyle;html=1;entryX=0;entryY=0.5;entryDx=0;entryDy=0;strokeColor=#000000;strokeWidth=1;fontFamily=Times New Roman;fontSize=12;fontColor=#0000FF;" parent="1" source="83" target="90" edge="1">
                    <mxGeometry relative="1" as="geometry"/>
                </mxCell>
                <mxCell id="83" value="&lt;span style=&quot;font-size: 12px;&quot;&gt;&lt;font face=&quot;Helvetica&quot;&gt;XGB&lt;/font&gt;&lt;/span&gt;" style="shape=step;perimeter=stepPerimeter;whiteSpace=wrap;html=1;fixedSize=1;strokeColor=#BD7000;strokeWidth=2;fontFamily=Times New Roman;fontSize=20;fontColor=#000000;fillColor=#f0a30a;" parent="1" vertex="1">
                    <mxGeometry x="858.5" y="1846" width="77" height="32" as="geometry"/>
                </mxCell>
                <mxCell id="96" style="edgeStyle=orthogonalEdgeStyle;html=1;strokeColor=#000000;strokeWidth=1;fontFamily=Times New Roman;fontSize=12;fontColor=#0000FF;" parent="1" source="84" target="90" edge="1">
                    <mxGeometry relative="1" as="geometry"/>
                </mxCell>
                <mxCell id="84" value="&lt;span style=&quot;font-size: 12px;&quot;&gt;&lt;font face=&quot;Helvetica&quot;&gt;LGBM&lt;/font&gt;&lt;/span&gt;" style="shape=step;perimeter=stepPerimeter;whiteSpace=wrap;html=1;fixedSize=1;strokeColor=#BD7000;strokeWidth=2;fontFamily=Times New Roman;fontSize=20;fontColor=#000000;fillColor=#f0a30a;" parent="1" vertex="1">
                    <mxGeometry x="858.5" y="1878" width="77" height="32" as="geometry"/>
                </mxCell>
                <mxCell id="101" style="edgeStyle=orthogonalEdgeStyle;html=1;entryX=0;entryY=0.5;entryDx=0;entryDy=0;strokeColor=#000000;strokeWidth=1;fontFamily=Helvetica;fontSize=12;fontColor=#0000FF;" parent="1" source="90" target="100" edge="1">
                    <mxGeometry relative="1" as="geometry"/>
                </mxCell>
                <mxCell id="90" value="&lt;font face=&quot;Helvetica&quot;&gt;RFE&lt;/font&gt;" style="rhombus;whiteSpace=wrap;html=1;strokeColor=#B09500;strokeWidth=2;fontFamily=Times New Roman;fontSize=12;fontColor=#000000;fillColor=#e3c800;" parent="1" vertex="1">
                    <mxGeometry x="987" y="1798.5" width="59" height="59" as="geometry"/>
                </mxCell>
                <mxCell id="107" style="edgeStyle=orthogonalEdgeStyle;html=1;strokeColor=#000000;strokeWidth=1;fontFamily=Helvetica;fontSize=12;fontColor=#0000FF;" parent="1" source="100" target="104" edge="1">
                    <mxGeometry relative="1" as="geometry"/>
                </mxCell>
                <mxCell id="108" style="edgeStyle=elbowEdgeStyle;html=1;entryX=0;entryY=0.5;entryDx=0;entryDy=0;strokeColor=#000000;strokeWidth=1;fontFamily=Helvetica;fontSize=12;fontColor=#0000FF;" parent="1" source="100" target="102" edge="1">
                    <mxGeometry relative="1" as="geometry"/>
                </mxCell>
                <mxCell id="109" style="edgeStyle=elbowEdgeStyle;html=1;entryX=0;entryY=0.5;entryDx=0;entryDy=0;strokeColor=#000000;strokeWidth=1;fontFamily=Helvetica;fontSize=12;fontColor=#0000FF;" parent="1" source="100" target="103" edge="1">
                    <mxGeometry relative="1" as="geometry"/>
                </mxCell>
                <mxCell id="110" style="edgeStyle=elbowEdgeStyle;html=1;entryX=0;entryY=0.5;entryDx=0;entryDy=0;strokeColor=#000000;strokeWidth=1;fontFamily=Helvetica;fontSize=12;fontColor=#0000FF;" parent="1" source="100" target="105" edge="1">
                    <mxGeometry relative="1" as="geometry"/>
                </mxCell>
                <mxCell id="111" style="edgeStyle=elbowEdgeStyle;html=1;entryX=0;entryY=0.5;entryDx=0;entryDy=0;strokeColor=#000000;strokeWidth=1;fontFamily=Helvetica;fontSize=12;fontColor=#0000FF;" parent="1" source="100" target="106" edge="1">
                    <mxGeometry relative="1" as="geometry"/>
                </mxCell>
                <mxCell id="100" value="Best Feature Combination" style="rounded=1;whiteSpace=wrap;html=1;fillColor=#1ba1e2;fontColor=#ffffff;strokeColor=#006EAF;" parent="1" vertex="1">
                    <mxGeometry x="1071" y="1807" width="96" height="42" as="geometry"/>
                </mxCell>
                <mxCell id="113" style="edgeStyle=elbowEdgeStyle;html=1;strokeColor=#000000;strokeWidth=1;fontFamily=Helvetica;fontSize=12;fontColor=#0000FF;" parent="1" source="102" target="112" edge="1">
                    <mxGeometry relative="1" as="geometry"/>
                </mxCell>
                <mxCell id="102" value="&lt;font face=&quot;Helvetica&quot;&gt;&lt;span style=&quot;font-size: 12px;&quot;&gt;RF&lt;/span&gt;&lt;/font&gt;" style="shape=step;perimeter=stepPerimeter;whiteSpace=wrap;html=1;fixedSize=1;strokeColor=#BD7000;strokeWidth=2;fontFamily=Times New Roman;fontSize=20;fontColor=#000000;fillColor=#f0a30a;" parent="1" vertex="1">
                    <mxGeometry x="1255.5" y="1746" width="77" height="32" as="geometry"/>
                </mxCell>
                <mxCell id="114" style="edgeStyle=elbowEdgeStyle;html=1;strokeColor=#000000;strokeWidth=1;fontFamily=Helvetica;fontSize=12;fontColor=#0000FF;" parent="1" source="103" target="112" edge="1">
                    <mxGeometry relative="1" as="geometry"/>
                </mxCell>
                <mxCell id="103" value="&lt;font face=&quot;Helvetica&quot;&gt;&lt;span style=&quot;font-size: 12px;&quot;&gt;GB&lt;/span&gt;&lt;/font&gt;" style="shape=step;perimeter=stepPerimeter;whiteSpace=wrap;html=1;fixedSize=1;strokeColor=#BD7000;strokeWidth=2;fontFamily=Times New Roman;fontSize=20;fontColor=#000000;fillColor=#f0a30a;" parent="1" vertex="1">
                    <mxGeometry x="1255.5" y="1778" width="77" height="32" as="geometry"/>
                </mxCell>
                <mxCell id="116" style="edgeStyle=elbowEdgeStyle;html=1;entryX=0;entryY=0.5;entryDx=0;entryDy=0;strokeColor=#000000;strokeWidth=1;fontFamily=Helvetica;fontSize=12;fontColor=#0000FF;" parent="1" source="104" target="112" edge="1">
                    <mxGeometry relative="1" as="geometry"/>
                </mxCell>
                <mxCell id="104" value="&lt;font face=&quot;Helvetica&quot;&gt;&lt;span style=&quot;font-size: 12px;&quot;&gt;XGB&lt;/span&gt;&lt;/font&gt;" style="shape=step;perimeter=stepPerimeter;whiteSpace=wrap;html=1;fixedSize=1;strokeColor=#BD7000;strokeWidth=2;fontFamily=Times New Roman;fontSize=20;fontColor=#000000;fillColor=#f0a30a;" parent="1" vertex="1">
                    <mxGeometry x="1255.5" y="1812" width="77" height="32" as="geometry"/>
                </mxCell>
                <mxCell id="118" style="edgeStyle=elbowEdgeStyle;html=1;entryX=0;entryY=0.5;entryDx=0;entryDy=0;strokeColor=#000000;strokeWidth=1;fontFamily=Helvetica;fontSize=12;fontColor=#0000FF;" parent="1" source="105" target="112" edge="1">
                    <mxGeometry relative="1" as="geometry"/>
                </mxCell>
                <mxCell id="105" value="&lt;font face=&quot;Helvetica&quot;&gt;&lt;span style=&quot;font-size: 12px;&quot;&gt;LGBM&lt;/span&gt;&lt;/font&gt;" style="shape=step;perimeter=stepPerimeter;whiteSpace=wrap;html=1;fixedSize=1;strokeColor=#BD7000;strokeWidth=2;fontFamily=Times New Roman;fontSize=20;fontColor=#000000;fillColor=#f0a30a;" parent="1" vertex="1">
                    <mxGeometry x="1255.5" y="1846" width="77" height="32" as="geometry"/>
                </mxCell>
                <mxCell id="119" style="edgeStyle=elbowEdgeStyle;html=1;entryX=0;entryY=0.5;entryDx=0;entryDy=0;strokeColor=#000000;strokeWidth=1;fontFamily=Helvetica;fontSize=12;fontColor=#0000FF;" parent="1" source="106" target="112" edge="1">
                    <mxGeometry relative="1" as="geometry"/>
                </mxCell>
                <mxCell id="106" value="&lt;font style=&quot;font-size: 12px;&quot; face=&quot;Helvetica&quot;&gt;CatB&lt;/font&gt;" style="shape=step;perimeter=stepPerimeter;whiteSpace=wrap;html=1;fixedSize=1;strokeColor=#BD7000;strokeWidth=2;fontFamily=Times New Roman;fontSize=20;fontColor=#000000;fillColor=#f0a30a;" parent="1" vertex="1">
                    <mxGeometry x="1255.5" y="1878" width="77" height="32" as="geometry"/>
                </mxCell>
                <mxCell id="121" style="edgeStyle=elbowEdgeStyle;html=1;entryX=0;entryY=0.5;entryDx=0;entryDy=0;strokeColor=#000000;strokeWidth=1;fontFamily=Helvetica;fontSize=12;fontColor=#0000FF;" parent="1" source="112" target="120" edge="1">
                    <mxGeometry relative="1" as="geometry"/>
                </mxCell>
                <mxCell id="112" value="Best Model Combination" style="rounded=1;whiteSpace=wrap;html=1;fillColor=#1ba1e2;fontColor=#ffffff;strokeColor=#006EAF;" parent="1" vertex="1">
                    <mxGeometry x="1410" y="1807" width="96" height="42" as="geometry"/>
                </mxCell>
                <mxCell id="123" style="edgeStyle=elbowEdgeStyle;html=1;entryX=0;entryY=0.5;entryDx=0;entryDy=0;entryPerimeter=0;strokeColor=#000000;strokeWidth=1;fontFamily=Helvetica;fontSize=12;fontColor=#0000FF;" parent="1" source="120" target="122" edge="1">
                    <mxGeometry relative="1" as="geometry"/>
                </mxCell>
                <mxCell id="120" value="&lt;font face=&quot;Helvetica&quot;&gt;&lt;span style=&quot;font-size: 12px;&quot;&gt;Logestic Regression&lt;/span&gt;&lt;/font&gt;" style="shape=step;perimeter=stepPerimeter;whiteSpace=wrap;html=1;fixedSize=1;strokeColor=#BD7000;strokeWidth=2;fontFamily=Times New Roman;fontSize=20;fontColor=#000000;fillColor=#f0a30a;" parent="1" vertex="1">
                    <mxGeometry x="1547" y="1810" width="161" height="36.5" as="geometry"/>
                </mxCell>
                <mxCell id="122" value="Integrated&lt;br&gt;Score" style="shape=note;whiteSpace=wrap;html=1;backgroundOutline=1;darkOpacity=0.05;size=16;fillColor=#60a917;fontColor=#ffffff;strokeColor=#2D7600;" parent="1" vertex="1">
                    <mxGeometry x="1775" y="1793" width="60" height="70" as="geometry"/>
                </mxCell>
                <mxCell id="130" value="&lt;font style=&quot;font-size: 15px;&quot;&gt;Figures&lt;/font&gt;" style="rounded=0;whiteSpace=wrap;html=1;fillColor=#fa6800;fontColor=#000000;strokeColor=#C73500;" parent="1" vertex="1">
                    <mxGeometry x="1354" y="1280" width="93" height="53" as="geometry"/>
                </mxCell>
                <mxCell id="132" value="" style="shape=image;imageAspect=0;aspect=fixed;verticalLabelPosition=bottom;verticalAlign=top;image=data:image/png,iVBORw0KGgoAAAANSUhEUgAAD6AAAAKwCAYAAACMfoBZAAAAAXNSR0IArs4c6QAAIABJREFUeF7s3c2R3MiZBmDIgj2tAxsrmTAToRlZ0Jc2gPRAfWwGaQE3OEfKA8oAXmjBVE1EtwnUxjrAEy2YDSSn1D/sLgD5hwTyqcuMRGQCeL4PieJEvcCffv/9998HHwIECBAgQIAAAQIECBAgQIAAAQIECBAgQIAAAQIECBAgQIAAAQIECBAgQIAAAQIECBAgQIAAAQIECBAgQIAAAQIECBDoXuBPAujd9wAAAgQIECBAgAABAgQIECBAgAABAgQIECBAgAABAgQIECBAgAABAgQIECBAgAABAgQIECBAgAABAgQIECBAgAABAgQIBAEBdI1AgAABAgQIECBAgAABAgQIECBAgAABAgQIECBAgAABAgQIECBAgAABAgQIECBAgAABAgQIECBAgAABAgQIECBAgAABAkFAAF0jECBAgAABAgQIECBAgAABAgQIECBAgAABAgQIECBAgAABAgQIECBAgAABAgQIECBAgAABAgQIECBAgAABAgQIECBAgEAQEEDXCAQIECBAgAABAgQIECBAgAABAgQIECBAgAABAgQIECBAgAABAgQIECBAgAABAgQIECBAgAABAgQIECBAgAABAgQIECAQBATQNQIBAgQIECBAgAABAgQIECBAgAABAgQIECBAgAABAgQIECBAgAABAgQIECBAgAABAgQIECBAgAABAgQIECBAgAABAgQIBAEBdI1AgAABAgQIECBAgAABAgQIECBAgAABAgQIECBAgAABAgQIECBAgAABAgQIECBAgAABAgQIECBAgAABAgQIECBAgAABAkFAAF0jECBAgAABAgQIECBAgAABAgQIECBAgAABAgQIECBAgAABAgQIECBAgAABAgQIECBAgAABAgQIECBAgAABAgQIECBAgEAQEEDXCAQIECBAgAABAgQIECBAgAABAgQIECBAgAABAgQIECBAgAABAgQIECBAgAABAgQIECBAgAABAgQIECBAgAABAgQIECAQBATQNQIBAgQIECBAgAABAgQIECBAgAABAgQIECBAgAABAgQIECBAgAABAgQIECBAgAABAgQIECBAgAABAgQIECBAgAABAgQIBAEBdI1AgAABAgQIECBAgAABAgQIECBAgAABAgQIECBAgAABAgQIECBAgAABAgQIECBAgAABAgQIECBAgAABAgQIECBAgAABAkFAAF0jECBAgAABAgQIECBAgAABAgQIECBAgAABAgQIECBAgAABAgQIECBAgAABAgQIECBAgAABAgQIECBAgAABAgQIECBAgEAQEEDXCAQIECBAgAABAgQIECBAgAABAgQIECBAgAABAgQIECBAgAABAgQIECBAgAABAgQIECBAgAABAgQIECBAgAABAgQIECAQBATQNQIBAgQIECBAgAABAgQIECBAgAABAgQIECBAgAABAgQIECBAgAABAgQIECBAgAABAgQIECBAgAABAgQIECBAgAABAgQIBAEBdI1AgAABAgQIECBAgAABAgQIECBAgAABAgQIECBAgAABAgQIECBAgAABAgQIECBAgAABAgQIECBAgAABAgQIECBAgAABAkFAAF0jECBAgAABAgQIECBAgAABAgQIECBAgAABAgQIECBAgAABAgQIECBAgAABAgQIECBAgAABAgQIECBAgAABAgQIECBAgEAQEEDXCAQIECBAgAABAgQIECBAgAABAgQIECBAgAABAgQIECBAgAABAgQIECBAgAABAgQIECBAgAABAgQIECBAgAABAgQIECAQBATQNQIBAgQIECBAgAABAgQIECBAgAABAgQIECBAgAABAgQIECBAgAABAgQIECBAgAABAgQIECBAgAABAgQIECBAgAABAgQIBAEBdI1AgAABAgQIECBAgAABAgQIECBAgAABAgQIECBAgAABAgQIECBAgAABAgQIECBAgAABAgQIECBAgAABAgQIECBAgAABAkFAAF0jECBAgAABAgQIECBAgAABAgQIECBAgAABAgQIECBAgAABAgQIECBAgAABAgQIECBAgAABAgQIECBAgAABAgQIECBAgEAQEEDXCAQIECBAgAABAgQIECBAgAABAgQIECBAgAABAgQIECBAgAABAgQIECBAgAABAgQIECBAgAABAgQIECBAgAABAgQIECAQBATQNQIBAgQIECBAgAABAgQIECBAgAABAgQIECBAgAABAgQIECBAgAABAgQIECBAgAABAgQIECBAgAABAgQIECBAgAABAgQIBAEBdI1AgAABAgQIECBAgAABAgQIECBAgAABAgQIECBAgAABAgQIECBAgAABAgQIECBAgAABAgQIECBAgAABAgQIECBAgAABAkFAAF0jECBAgAABAgQIECBAgAABAgQIECBAgAABAgQIECBAgAABAgQIECBAgAABAgQIECBAgAABAgQIECBAgAABAgQIECBAgEAQEEDXCAQIECBAgAABAgQIECBAgAABAgQIECBAgAABAgQIECBAgAABAgQIECBAgAABAgQIECBAgAABAgQIECBAgAABAgQIECAQBATQNQIBAgQIECBAgAABAgQIECBAgAABAgQIECBAgAABAgQIECBAgAABAgQIECBAgAABAgQIECBAgAABAgQIECBAgAABAgQIBAEBdI1AgAABAgQIECBAgAABAgQIECBAgAABAgQIECBAgAABAgQIECBAgAABAgQIECBAgAABAgQIECBAgAABAgQIECBAgAABAkFAAF0jECBAgAABAgQIECBAgAABAgQIECBAgAABAgQIECBAgAABAgQIECBAgAABAgQIECBAgAABAgQIECBAgAABAgQIECBAgEAQEEDXCAQIECBAgAABAgQIECBAgAABAgQIECBAgAABAgQIECBAgAABAgQIECBAgAABAgQIECBAgAABAgQIECBAgAABAgQIECAQBATQNQIBAgQIECBAgAABAgQIECBAgAABAgQIECBAgAABAgQIECBAgAABAgQIECBAgAABAgQIECBAgAABAgQIECBAgAABAgQIBAEBdI1AgAABAgQIECBAgAABAgQIECBAgAABAgQIECBAgAABAgQIECBAgAABAgQIECBAgAABAgQIECBAgAABAgQIECBAgAABAkFAAF0jECBAgAABAgQIECBAgAABAgQIECBAgAABAgQIECBAgAABAgQIECBAgAABAgQIECBAgAABAgQIECBAgAABAgQIECBAgEAQEEDXCAQIECBAgAABAgQIECBAgAABAgQIECBAgAABAgQIECBAgAABAgQIECBAgAABAgQIECBAgAABAgQIECBAgAABAgQIECAQBATQNQIBAgQIECBAgAABAgQIECBAgAABAgQIECBAgAABAgQIECBAgAABAgQIECBAgAABAgQIECBAgAABAgQIECBAgAABAgQIBAEBdI1AgAABAgQIECBAgAABAgQIECBAgAABAgQIECBAgAABAgQIECBAgAABAgQIECBAgAABAgQIECBAgAABAgQIECBAgAABAkFAAF0jECBAgAABAgQIECBAgAABAgQIECBAgAABAgQIECBAgAABAgQIECBAgAABAgQIECBAgAABAgQIECBAgAABAgQIECBAgEAQEEDXCAQIECBAgAABAgQIECBAgAABAgQIECBAgAABAgQIECBAgAABAgQIECBAgAABAgQIECBAgAABAgQIECBAgAABAgQIECAQBATQNQIBAgQIECBAgAABAgQIECBAgAABAgQIECBAgAABAgQIECBAgAABAgQIECBAgAABAgQIECBAgAABAgQIECBAgAABAgQIBAEBdI1AgAABAgQIECBAgAABAgQIECBAgAABAgQIECBAgAABAgQIECBAgAABAgQIECBAgAABAgQIECBAgAABAgQIECBAgAABAkFAAF0jECBAgAABAgQIECBAgAABAgQIECBAgAABAgQIECBAgAABAgQIECBAgAABAgQIECBAgAABAgQIECBAgAABAgQIECBAgEAQEEDXCAQIECBAgAABAgQIECBAgAABAgQIECBAgAABAgQIECBAgAABAgQIECBAgAABAgQIECBAgAABAgQIECBAgAABAgQIECAQBATQNQIBAgQIECBAgAABAgQIECBAgAABAgQIECBAgAABAgQIECBAgAABAgQIECBAgAABAgQIECBAgAABAgQIECBAgAABAgQIBAEBdI1AgAABAgQIECBAgAABAgQIECBAgAABAgQIECBAgAABAgQIECBAgAABAgQIECBAgAABAgQIECBAgAABAgQIECBAgAABAkFAAF0jECBAgAABAgQIECBAgAABAgQIECBAgAABAgQIECBAgAABAgQIECBAgAABAgQIECBAgAABAgQIECBAgAABAgQIECBAgEAQEEDXCAQIECBAgAABAgQIECBAgAABAgQIECBAgAABAgQIECBAgAABAgQIECBAgAABAgQIECBAgAABAgQIECBAgAABAgQIECAQBATQNQIBAgQIECBAgAABAgQIECBAgAABAgQIECBAgAABAgQIECBAgAABAgQIECBAgAABAgQIECBAgAABAgQIECBAgAABAgQIBAEBdI1AgAABAgQIECBAgAABAgQIECBAgAABAgQIECBAgAABAgQIECBAgAABAgQIECBAgAABAgQIECBAgAABAgQIECBAgAABAkFAAF0jECBAgAABAgQIECBAgAABAgQIECBAgAABAgQIECBAgAABAgQIECBAgAABAgQIECBAgAABAgQIECBAgAABAgQIECBAgEAQEEDXCAQIECBAgAABAgQIECBAgAABAgQIECBAgAABAgQIECBAgAABAgQIECBAgAABAgQIECBAgAABAgQIECBAgAABAgQIECAQBATQNQIBAgQIECBAgAABAgQIECBAgAABAgQIECBAgAABAgQIECBAgAABAgQIECBAgAABAgQIECBAgAABAgQIECBAgAABAgQIBAEBdI1AgAABAgQIECBAgAABAgQIECBAgAABAgQIECBAgAABAgQIECBAgAABAgQIECBAgAABAgQIECBAgAABAgQIECBAgAABAkFAAF0jECBAgAABAgQIECBAgAABAgQIECBAgAABAgQIECBAgAABAgQIECBAgAABAgQIECBAgAABAgQIECBAgAABAgQIECBAgEAQEEDXCAQIECBAgAABAgQIECBAgAABAgQIECBAgAABAgQIECBAgAABAgQIECBAgAABAgQIECBAgAABAgQIECBAgAABAgQIECAQBATQNQIBAgQIECBAgAABAgQIECBAgAABAgQIECBAgAABAgQIECBAgAABAgQIECBAgAABAgQIECBAgAABAgQIECBAgAABAgQIBAEBdI1AgAABAgQIECBAgAABAgQIECBAgAABAgQIECBAgAABAgQIECBAgAABAgQIECBAgAABAgQIECBAgAABAgQIECBAgAABAkFAAF0jECBAgAABAgQIECBAgAABAgQIECBAgAABAgQIECBAgAABAgQIECBAgAABAgQIECBAgAABAgQIECBAgAABAgQIECBAgEAQEEDXCAQIECBAgAABAgQIECBAgAABAgQIECBAgAABAgQIECBAgAABAgQIECBAgAABAgQIECBAgAABAgQIECBAgAABAgQIECAQBATQNQIBAgQIECBAgAABAgQIECBAgAABAgQIECBAgAABAgQIECBAgAABAgQIECBAgAABAgQIECBAgAABAgQIECBAgAABAgQIBAEBdI1AgAABAgQIECBAgAABAgQIECBAgAABAgQIECBAgAABAgQIECBAgAABAgQIECBAgAABAgQIECBAgAABAgQIECBAgAABAkFAAF0jECBAgAABAgQIECBAgAABAgQIECBAgAABAgQIECBAgAABAgQIECBAgAABAgQIECBAgAABAgQIECBAgAABAgQIECBAgEAQEEDXCAQIECBAgAABAgQIECBAgAABAgQIECBAgAABAgQIECBAgAABAgQIECBAgAABAgQIECBAgAABAgQIECBAgAABAgQIECAQBATQNQIBAgQIECBAgAABAgQIECBAgAABAgQIECBAgAABAgQIECBAgAABAgQIECBAgAABAgQIECBAgAABAgQIECBAgAABAgQIBAEBdI1AgAABAgQIECBAgAABAgQIECBAgAABAgQIECBAgAABAgQIECBAgAABAgQIECBAgAABAgQIECBAgAABAgQIECBAgAABAkFAAF0jECBAgAABAgQIECBAgAABAgQIECBAgAABAgQIECBAgAABAgQIECBAgAABAgQIECBAgAABAgQIECBAgAABAgQIECBAgEAQEEDXCAQIECBAgAABAgQIECBAgAABAgQIECBAgAABAgQIECBAgAABAgQIECBAgAABAgQIECBAgAABAgQIECBAgAABAgQIECAQBATQNQIBAgQIECBAgAABAgQIECBAgAABAgQIECBAgAABAgQIECBAgAABAgQIECBAgAABAgQIECBAgAABAgQIECBAgAABAgQIBAEBdI1AgAABAgQIECBAgAABAgQIECBAgAABAgQIECBAgAABAgQIECBAgAABAgQIECBAgAABAgQIECBAgAABAgQIECBAgAABAkFAAF0jECBAgAABAgQIECBAgAABAgQIECBAgAABAgQIECBAgAABAgQIECBAgAABAgQIECBAgAABAgQIECBAgAABAgQIECBAgEAQEEDXCAQIECBAgAABAgQIECBAgAABAgQIECBAgAABAgQIECBAgAABAgQIECBAgAABAgQIECBAgAABAgQIECBAgAABAgQIECAQBATQNQIBAgQIECBAgAABAgQIECBAgAABAgQIECBAgAABAgQIECBAgAABAgQIECBAgAABAgQIECBAgAABAgQIECBAgAABAgQIBAEBdI1AgAABAgQIECBAgAABAgQIECBAgAABAgQIECBAgAABAgQIECBAgAABAgQIECBAgAABAgQIECBAgAABAgQIECBAgAABAkFAAF0jECBAgAABAgQIECBAgAABAgQIECBAgAABAgQIECBAgAABAgQIECBAgAABAgQIECBAgAABAgQIECBAgAABAgQIECBAgEAQEEDXCAQIECBAgAABAgQIECBAgAABAgQIECBAgAABAgQIECBAgAABAgQIECBAgAABAgQIECBAgAABAgQIECBAgAABAgQIECAQBATQNQIBAgQIECBAgAABAgQIECBAgAABAgQIECBAgAABAgQIECBAgAABAgQIECBAgAABAgQIECBAgAABAgQIECBAgAABAgQIBAEBdI1AgAABAgQIECBAgAABAgQIECBAgAABAgQIECBAgAABAgQIECBAgAABAgQIECBAgAABAgQIECBAgAABAgQIECBAgAABAkFAAF0jECBAgAABAgQIECBAgAABAgQIECBAgAABAgQIECBAgAABAgQIECBAgAABAgQIECBAgAABAgQIECBAgAABAgQIECBAgEAQEEDXCAQIECBAgAABAgQIECBAgAABAgQIECBAgAABAgQIECBAgAABAgQIECBAgAABAgQIECBAgAABAgQIECBAgAABAgQIECAQBATQNQIBAgQIECBAgAABAgQIECBAgAABAgQIECBAgAABAgQIECBAgAABAgQIECBAgAABAgQIECBAgAABAgQIECBAgAABAgQIBAEBdI1AgAABAgQIECBAgAABAgQIECBAgAABAgQIECBAgAABAgQIECBAgAABAgQIECBAgAABAgQIECBAgAABAgQIECBAgAABAkFAAF0jECBAgAABAgQIECBAgAABAgQIECBAgAABAgQIECBAgAABAgQIECBAgAABAgQIECBAgAABAgQIECBAgAABAgQIECBAgEAQEEDXCAQIECBAgAABAgQIECBAgAABAgQIECBAgAABAgQIECBAgAABAgQIECBAgAABAgQIECBAgAABAgQIECBAgAABAgQIECAQBATQNQIBAgQIECBAgAABAgQIECBAgAABAgQIECBAgAABAgQIECBAgAABAgQIECBAgAABAgQIECBAgAABAgQIECBAgAABAgQIBAEBdI1AgAABAgQIECBAgAABAgQIECBAgAABAgQIECBAgAABAgQIECBAgAABAgQIECBAgAABAgQIECBAgAABAgQIECBAgAABAkFAAF0jECBAgAABAgQIECBAgAABAgQIECBAgAABAgQIECBAgAABAgQIECBAgAABAgQIECBAgAABAgQIECBAgAABAgQIECBAgEAQEEDXCAQIECBAgAABAgQIECBAgAABAgQIECBAgAABAgQIECBAgAABAgQIECBAgAABAgQIECBAgAABAgQIECBAgAABAgQIECAQBATQNQIBAgQIECBAgAABAgQIECBAgAABAgQIECBAgAABAgQIECBAgAABAgQIECBAgAABAgQIECBAgAABAgQIECBAgAABAgQIBAEBdI1AgAABAgQIECBAgAABAgQIECBAgAABAgQIECBAgAABAgQIECBAgAABAgQIECBAgAABAgQIECBAgAABAgQIECBAgAABAkFAAF0jECBAgAABAgQIECBAgAABAgQIECBAgAABAgQIECBAgAABAgQIECBAgAABAgQIECBAgAABAgQIECBAgAABAgQIECBAgEAQEEDXCAQIECBAgAABAgQIECBAgAABAgQIECBAgAABAgQIECBAgAABAgQIECBAgAABAgQIECBAgAABAgQIECBAgAABAgQIECAQBATQNQIBAgQIECBAgAABAgQIECBAgAABAgQIECBAgAABAgQIECBAgAABAgQIECBAgAABAgQIECBAgAABAgQIECBAgAABAgQIBAEBdI1AgAABAgQIECBAgAABAgQIECBAgAABAgQIECBAgAABAgQIECBAgAABAgQIECBAgAABAgQIECBAgAABAgQIECBAgAABAkFAAF0jECBAgAABAgQIECBAgAABAgQIECBAgAABAgQIECBAgAABAgQIECBAgAABAgQIECBAgAABAgQIECBAgAABAgQIECBAgEAQEEDXCAQIECBAgAABAgQIECBAgAABAgQIECBAgAABAgQIECBAgAABAgQIECBAgAABAgQIECBAgAABAgQIECBAgAABAgQIECAQBATQNQIBAgQIECBAgAABAgQIECBAgAABAgQIECBAgAABAgQIECBAgAABAgQIECBAgAABAgQIECBAgAABAgQIECBAgAABAgQIBAEBdI1AgAABAgQIECBAgAABAgQIECBAgAABAgQIECBAgAABAgQIECBAgAABAgQIECBAgAABAgQIECBAgAABAgQIECBAgAABAkFAAF0jECBAgAABAgQIECBAgAABAgQIECBAgAABAgQIECBAgAABAgQIECBAgAABAgQIECBAgAABAgQIECBAgAABAgQIECBAgEAQEEDXCAQIECBAgAABAgQIECBAgAABAgQIECBAgAABAgQIECBAgAABAgQIECBAgAABAgQIECBAgAABAgQIECBAgAABAgQIECAQBATQNQIBAgQIECBAgAABAgQIECBAgAABAgQIECBAgAABAgQIECBAgAABAgQIECBAgAABAgQIECBAgAABAgQIECBAgAABAgQIBAEBdI1AgAABAgQIECBAgAABAgQIECBAgAABAgQIECBAgAABAgQIECBAgAABAgQIECBAgAABAgQIECBAgAABAgQIECBAgAABAkFAAF0jECBAgAABAgQIECBAgAABAgQIECBAgAABAgQIECBAgAABAgQIECBAgAABAgQIECBAgAABAgQIECBAgAABAgQIECBAgEAQEEDXCAQIECBAgAABAgQIECBAgAABAgQIECBAgAABAgQIECBAgAABAgQIECBAgAABAgQIECBAgAABAgQIECBAgAABAgQIECAQBATQNQIBAgQIECBAgAABAgQIECBAgAABAgQIECBAgAABAgQIECBAgAABAgQIECBAgAABAgQIECBAgAABAgQIECBAgAABAgQIBAEBdI1AgAABAgQIECBAgAABAgQIECBAgAABAgQIECBAgAABAgQIECBAgAABAgQIECBAgAABAgQIECBAgAABAgQIECBAgAABAkFAAF0jECBAgAABAgQIECBAgAABAgQIECBAgAABAgQIECBAgAABAgQIECBAgAABAgQIECBAgAABAgQIECBAgAABAgQIECBAgEAQEEDXCAQIECBAgAABAgQIECBAgAABAgQIECBAgAABAgQIECBAgAABAgQIECBAgAABAgQIECBAgAABAgQIECBAgAABAgQIECAQBATQNQIBAgQIECBAgAABAgQIECBAgAABAgQIECBAgAABAgQIECBAgAABAgQIECBAgAABAgQIECBAgAABAgQIECBAgAABAgQIBAEBdI1AgAABAgQIECBAgAABAgQIECBAgAABAgQIECBAgAABAgQIECBAgAABAgQIECBAgAABAgQIECBAgAABAgQIECBAgAABAkFAAF0jECBAgAABAgQIECBAgAABAgQIECBAgAABAgQIECBAgAABAgQIECBAgAABAgQIECBAgAABAgQIECBAgAABAgQIECBAgEAQEEDXCAQIECBAgAABAgQIECBAgAABAgQIECBAgAABAgQIECBAgAABAgQIECBAgAABAgQIECBAgAABAgQIECBAgAABAgQIECAQBATQNQIBAgQIECBAgAABAgQIECBAgAABAgQIECBAgAABAgQIECBAgAABAgQIECBAgAABAgQIECBAgAABAgQIECBAgAABAgQIBAEBdI1AgAABAgQIECBAgAABAgQIECBAgAABAgQIECBAgAABAgQIECBAgAABAgQIECBAgAABAgQIECBAgAABAgQIECBAgAABAkFAAF0jECBAgAABAgQIECBAgAABAgQIECBAgACYEpiTAAAgAElEQVQBAgQIECBAgAABAgQIECBAgAABAgQIECBAgAABAgQIECBAgAABAgQIECBAgEAQEEDXCAQIECBAgAABAgQIECBAgAABAgQIECBAgAABAgQIECBAgAABAgQIECBAgAABAgQIECBAgAABAgQIECBAgAABAgQIECAQBATQNQIBAgQIECBAgAABAgQIECBAgAABAgQIECBAgAABAgQIECBAgAABAgQIECBAgAABAgQIECBAgAABAgQIECBAgAABAgQIBAEBdI1AgAABAgQIECBAgAABAgQIECBAgAABAgQIECBAgAABAgQIECBAgAABAgQIECBAgAABAgQIECBAgAABAgQIECBAgAABAkFAAF0jECBAgAABAgQIECBAgAABAgQIECBAgAABAgQIECBAgAABAgQIECBAgAABAgQIECBAgAABAgQIECBAgAABAgQIECBAgEAQEEDXCAQIECBAgAABAgQIECBAgAABAgQIECBAgAABAgQIECBAgAABAgQIECBAgAABAgQIECBAgAABAgQIECBAgAABAgQIECAQBATQNQIBAgQIECBAgAABAgQIECBAgAABAgQIECBAgAABAgQIECBAgAABAgQIECBAgAABAgQIECBAgAABAgQIECBAgAABAgQIBAEBdI1AgAABAgQIECBAgAABAgQIECBAgAABAgQIECBAgAABAgQIECBAgAABAgQIECBAgAABAgQIECBAgAABAgQIECBAgAABAkFAAF0jECBAgAABAgQIECBAgAABAgQIECBAgAABAgQIECBAgAABAgQIECBAgAABAgQIECBAgAABAgQIECBAgAABAgQIECBAgEAQEEDXCAQIECBAgAABAgQIECBAgAABAgQIECBAgAABAgQIECBAgAABAgQIECBAgAABAgQIECBAgAABAgQIECBAgAABAgQIECAQBATQNQIBAgQIECBAgAABAgQIECBAgAABAgQIECBAgAABAgQIECBAgAABAgQIECBAgAABAgQIECBAgAABAgQIECBAgAABAgQIBAEBdI1AgAABAgQIECBAgAABAgQIECBAgAABAgQIECBAgAABAgQIECBAgAABAgQIECBAgAABAgQIECBAgAABAgQIECBAgAABAkFAAF0jECBAgAABAgQIECBAgAABAgQIECBAgAABAgQIECBAgAABAgQIECBAgAABAgQIECBAgAABAgQIECBAgAABAgQIECBAgEAQEEDXCAQIECBAgAABAgQIECBAgAABAgQIECBAgAABAgQIECBAgAABAgQIECBAgAABAgQIECBAgAABAgQIECBAgAABAgQIECAQBATQNQIBAgQIECBAgAABAgQIECBAgAABAgQIECBAgAABAgQIECBAgAABAgQIECBAgAABAgQIECBAgAABAgQIECBAgAABAgQIBAEBdI1AgAABAgQIECBAgAABAgQIECBAgAABAgQIECBAgAABAgQIECBAgAABAgQIECBAgAABAgQIECBAgAABAgQIECBAgAABAkFAAF0jECBAgAABArsV+Nf//t+/z+3zv+7+/fR//uXP/xX+9c///e2fPgQIECBAgAABAgQIECBAgAABAgQIECBAgAABAgQIECBAgAABAgQIECBAgAABAgQIECBAgAABAgQIEOhdQAC99w5w/gQIECBAYAcCh+PN8PaXf4QzGf899vPzTz8OP//1hzD8zaur2GmMI0CAAAECBAgQIECAAAECBAgQIECAAAECBAgQIECAAAECBAgQIECAAAECBAgQIECAAAECBAgQIECAwGYFBNA3WzoHToAAAQIE+hbIFTo/p3gKpAuj991rzp4AAQIECBAgQIAAAQIECBAgQIAAAQIECBAgQIAAAQIECBAgQIAAAQIECBAgQIAAAQIECBAgQIBATwIC6D1V27kSIECAAIGNC5xC5ylvOU8heH195c3oKYDGEiBAgAABAgQIECBAgAABAgQIECBAgAABAgQIECBAgAABAgQIECBAgAABAgQIECBAgAABAgQIECDQvIAAevMlcoAECBAgQIDA2sHzxxUQRNeTBAgQIECAAAECBAgQIECAAAECBAgQIECAAAECBAgQIECAAAECBAgQIECAAAECBAgQIECAAAECBAjsVUAAfa+VdV4ECBAgQGAHAq0Fzx+TCqLvoMmcAgECBAgQIECAAAECBAgQIECAAAECBAgQIECAAAECBAgQIECAAAECBAgQIECAAAECBAgQIECAAAECDwQE0DUEAQIECBAg0JxA68Hzx2CC6M21kAMiQIAAAQIECBAgQIAAAQIECBAgQIAAAQIECBAgQIAAAQIECBAgQIAAAQIECBAgQIAAAQIECBAgQCBSQAA9Es4wAgQIECBAoIzAxeXLYQygb/EjiL7FqjlmAgQIECBAgAABAgQIECBAgAABAgQIECBAgAABAgQIECBAgAABAgQIECBAgAABAgQIECBAgAABAgTuCwig6wcCBAgQIECgCYGtvfX8OTQh9CbayUEQIECAAAECBAgQIECAAAECBAgQIECAAAECBAgQIECAAAECBAgQIECAAAECBAgQIECAAAECBAgQIBApIIAeCWcYAQIECBAgkE9gDJ+Pbz7fy0cIfS+VdB4ECBAgQIAAAQIECBAgQIAAAQIECBAgQIAAAQIECBAgQIAAAQIECBAgQIAAAQIECBAgQIAAAQIE+hMQQO+v5s6YAAECBAg0JfD23fvhf35539Qx5TiYn3/6cfj08UOOqcxBgAABAgSqCxyOt8Pht5vq+93SDscHzvi0J7DH75XtKU8f0c9//fG7jX7+6YfpgbaoJmCdX05t3V9u1soI/b6sEuMabs1eZlZra99zzkvr3VqdaD8ECBAgQIAAAQIECBAgQIAAAQIECBAgQIAAAQIECBAgQIBALwIC6L1U2nkSIECAAIEGBfYaPr9P7W3oDTaeQyJAgACBSYH/+M+/TG7T+wafPv5TOKvBJtC7DRblzCGND2362x/BdKGxurUbQ4zj38d85gt8/fJ5/sa2bEpAvy8rh+84y7xqba2Pp6U9DHLayBYECBAgQIAAAQIECBAgQIAAAQIECBAgQIAAAQIECBAgQIAAgSUCAuhLtGxLgAABAgQIZBO4uHw5HI59vFlVCD1b25iIAAECBCoICLfMQxZwmedUeysB9NriZfZ3P5g+7kE4Pb+ztX65qVDucrNWRrg3LKuEXl/mVWvrnv47Woqp/k3RM5YAAQIECBAgQIAAAQIECBAgQIAAAQIECBAgQIAAAQIECBAg8FBAAF1HECBAgAABAtUFevzRrBB69TazQwIECBCIFBBKnAcngD7PqfZWQoa1xevu7xRMF0hPd7fWLze07i83a2GEXl9eBQHe5WalRxyOt8PF5YvSu9nF/Pp3F2V0EgQIECBAgAABAgQIECBAgAABAgQIECBAgAABAgQIECBAgEAjAgLojRTCYRAgQIAAgV4E3r57P4w/AO/x8+njh2EMLfgQIECAAIGWBQR451dHwGW+Va0t9W8t6Tb28+bVVTiQ8WFPPssEhHKXeZ22tu7Hua05qscH4KV66/NUwfzjrdnzTT0sZL6VLQkQIECAAAECBAgQIECAAAECBAgQIECAAAECBAgQIECAAAECUwIC6FNC/pwAAQIECBDIJtBz+PyE+PXL52yeJiJAgAABArkFhFuWiQq4LPOqsbUAeg3ldvchkD6/Ntb7+Vb3txx7zAMP4uzWGOWt0XHqAuhxbiVH+X6zTFcPL/OyNQECBAgQIECAAAECBAgQIECAAAECBAgQIECAAAECBAgQIEDgOQEBdL1BgAABAgQIVBEQPv/GLKhWpd3shAABAgQiBbwldDmch8ssNys5QkCrpO625h6Dwj//9cfh559+2NaBVzpaAfQ4aH+fi3Nba5Q+j5MX3o1zKzVKHy+XtVYvNzOCAAECBAgQIECAAAECBAgQIECAAAECBAgQIECAAAECBAgQIPCUgAC6viBAgAABAgSKCxyON8MYaPP5JjC+Me/0dkYmBAgQIECgFQFvCY2rhJBWnFupUQLopWS3O6+3oj9dO4HG+J627sfb1R7pnhAnrsfj3EqNsl7HyXpIVJybUQQIECBAgAABAgQIECBAgAABAgQIECBAgAABAgQIECBAgACB+wIC6PqBAAECBAgQKC7gR9/fEwuhF287OyBAgACBhQLCLQvB/tjcGxbj3EqN8r2zlOw+5h3D6OP3cJ9hsObHd4F1P96u5kg9Hq8tgB5vV2Kk7zZxqvo4zs0oAgQIECBAgAABAgQIECBAgAABAgQIECBAgAABAgQIECBAgMB9AQF0/UCAAAECBAgUFXj77n0IN/h8L/Dp44dhDC/4ECBAgACBFgSEW+KrIOASb5d7pD7OLbrP+bwVXQA9tbO9WTdVsPx4AfR4Y99r4u1yj9TH8aIeFhJvZyQBAgQIECBAgAABAgQIECBAgAABAgQIECBAgAABAgQIECBA4CQggK4XCBAgQIAAgWICwufnaf0YtljrmZgAAQIEFgoItywEe7S5oFaaX87RAug5Nfc/V89BdOt+Wn9b99P8aox2P4hX1t/xdrlHWqvTRD0sJM3PaAIECBAgQIAAAQIECBAgQIAAAQIECBAgQIAAAQIECBAgQICAALoeIECAAAECBIoJCKBP03oL+rSRLQgQIECgvIBwS5qxh8qk+eUcLXCYU7OfucYg+uvrq35OePAG9NRiW/dTBcuO970mzVcAPc0v52jfa9I09XKan9EECBAgQIAAAQIECBAgQIAAAQIECBAgQIAAAQIECBAgQIAAAQF0PUCAAAECBAgUERA+n8cquDDPyVYECBAgUFZAuCXdV8Al3TDHDHo5h2K/c/QURBfQTe9z6366YakZLi5fDofjTanpdz+v3m6jxNbp9Dr4b27phmYgQIAAAQIECBAgQIAAAQIECBAgQIAAAQIECBAgQIAAAQIE+hYQQO+7/s6eAAECBAgUExD+mU/rLejzrWxJgAABAvkFhFvymAq45HFMncV30FRB40eBHoLo1v70XrfupxuWmOFwvB0uLl+UmLqbOQXQ2yi1BynkqYN+zuNoFgIECBAgQIAAAQIECBAgQIAAAQIECBAgQIAAAQIECBAgQKBPAQH0PuvurAkQIECAQFEBbz9fxiu4sMzL1gQIECCQV0AIMY+n+3kex9RZBNBTBY0/Cew9hG7tz9PrX798zjORWbIJ6O10SoHddMPUGTxIIVXwbrx+zmdpJgIECBAgQIAAAQIECBAgQIAAAQIECBAgQIAAAQIECBAgQKA/AQH0/mrujAkQIECAQHEBwZ/lxN6CvtzMCAIECBDII+C+ncdxnEXAJZ9l7Ez6OVbOuOcE9hpEF9LN0/PW/TyOOWdxH0jX1NfphqkzWKNTBe/Ge0hUPkszESBAgAABAgQIECBAgAABAgQIECBAgAABAgQIECBAgAABAv0JCKD3V3NnTIAAAQIEigp4+3k8r7fnxdsZSYAAAQJxAsItcW7PjRJwyesZM5vgYYyaMVMCewyhW/+nqj7vz63785xqbaWv80gLoOdxTJnF95kUve/H6um8nmYjQIAAAQIECBAgQIAAAQIECBAgQIAAAQIECBAgQIAAAQIE+hEQQO+n1s6UAAECBAhUEbi4fDkcjjdV9rW3nXgL+t4q6nwIECDQvoBwS/4aeaBMftMlM+rpJVq2XSKwt6CxoO6S6p/fVrAxn2XqTPo6VfDbeD2dxzF2Fn0cK/f8uL3dw/MLmZEAAQIECBAgQIAAAQIECBAgQIAAAQIECBAgQIAAAQIECBAg8LSAALrOIECAAAECBLIKCP3Ec/pBbLydkQQIECCwXOBwvB0uLl8sH2jEWQGhrXUbxHfRdf172Pte3oYu4JivW/fSE/lE1pvJPSCPve8yeRxjZ7E+x8o9P85/b8tvakYCBAgQIECAAAECBAgQIECAAAECBAgQIECAAAECBAgQIECgDwEB9D7q7CwJECBAgEAVgbfv3g/jD2V94gT8IDbOzSgCBAgQiBMQbolzmxrlfj4lVPbPhQ/L+pr9m8AeAsfuAfm62bqfzzJlJj2dovdwrAB6PsuYmXyXiVGbHqOvp41sQYAAAQIECBAgQIAAAQIECBAgQIAAAQIECBAgQIAAAQIECBB4LCCAricIECBAgACBbAIC6OmUnz5+GMYAgw8BAgQIECgtINxSTljApZzt1Mz6ekrIn+cS2HoIXVg3Vyd8m8e6n9czZjbrf4za02P0cz7LpTNZm5eKzd/ew0LmW9mSAAECBAgQIECAAAECBAgQIECAAAECBAgQIECAAAECBAgQIHASEEDXCwQIECBAgEA2AT/4Tqd8fX0V3qjoQ4AAAQIESgoIt5TUFUQsq3t+dt9H19Tvb99bDrO5D+Tt1y33Ql6JdWY7HG+Hi8sX6+x8h3sVQF+vqNbmsvZfv3wuuwOzEyBAgAABAgQIECBAgAABAgQIECBAgAABAgQIECBAgAABAgR2JiCAvrOCOh0CBAgQILCWgLef55EXXMjjaBYCBAgQOC8g3FK2Q9zPy/qem10AfT37Xve81evdfSB/xwo25jedO6N+nis1bzsB9HlOJbbyPaaE6t2cerusr9kJECBAgAABAgQIECBAgAABAgQIECBAgAABAgQIECBAgACB/QkIoO+vps6IAAECBAisIiCAno/908cPwxhk8SFAgAABAqUEhFtKyd7NK+BS3vipPejtddx73+sWQ+gCu/m71rqf33TujNb+uVLzttPL85xyb2Vdzi36/XxbvF+XV7EHAgQIECBAgAABAgQIECBAgAABAgQIECBAgAABAgQIECBAgMDzAgLouoMAAQIECBDIIuAH31kYwyQC6PkszUSAAAEC3wsIt9TpCgGXOs6P9+I76Tru9jqEB0iN3+O38nEvyF+prfVAfoF1ZtTL+d0F0PObzpnx4vLlcDjezNnUNgkC+jsBz1ACBAgQIECAAAECBAgQIECAAAECBAgQIECAAAECBAgQIECgOwEB9O5K7oQJECBAgEAZAWGffK6vr6+GN6+u8k1oJgIECBAgcE9AUKtOOwgi1nF+vBffSddxt9dvAuN3+PG7/BY+7gVlqiTYWMb13Kx6Ob+5Ps5vOjXj4Xg7XFy+mNrMn2cQ0N8ZEE1BgAABAgQIECBAgAABAgQIECBAgAABAgQIECBAgAABAgQIdCMggN5NqZ0oAQIECBAoKyDsk89XYC2fpZkIECBA4HsB9+x6XSHgUs/6tCf9Xd/cHh8KbCWELrRbpnP9Xa6M67lZrfv5zX1/yW86NaM1eUoo359bp/NZmokAAQIECBAgQIAAAQIECBAgQIAAAQIECBAgQIAAAQIECBDYv4AA+v5r7AwJECBAgEBxgcPxZri4fFl8P73swI9he6m08yRAgEB9AeGWuubu6XW9x70JItY3t8fvBbYQQnc/KNe5X798Lje5mR8I6OMyDSGAXsb13Ky+v9Q11+N1ve2NAAECBAgQIECAAAECBAgQIECAAAECBAgQIECAAAECBAgQ2K6AAPp2a+fICRAgQIBAMwIC6HlLIayW19NsBAgQIHAnINxSvxsEEeua6/G63vb2vEDrIXTB3XLdK9hYzvbxzNb8MtZ6uIzrc7Naj+t6j3vz393qm9sjAQIECBAgQIAAAQIECBAgQIAAAQIECBAgQIAAAQIECBAgsE0BAfRt1s1REyBAgACBpgTevns/jD+Y9cknIKyWz9JMBAgQIPBN4HC8HS4uX+CoLCDEVRdcGLGut72dF2j5+hd4LNe9go3lbO/PrIfLObe8dpU76/Vm1sv17a3T9c3tkQABAgQIECBAgAABAgQIECBAgAABAgQIECBAgAABAgQIENimgAD6NuvmqAkQIECAQFMCAuj5yyGAnt/UjAQIEOhdQLhlnQ4QcKnrLoBe19vezgu0fP27J5TtXgHesr7j7Hq4nLH+LWf71My+u9T1Pu1Nn6/jbq8ECBAgQIAAAQIECBAgQIAAAQIECBAgQIAAAQIECBAgQIDAtgQE0LdVL0dLgAABAgSaFBBAz1+WTx8/DGNgxYcAAQIECOQSEG7JJbl8Hg+WWW4WO0Kfx8oZV0rgzaur4fX1Vanpo+cV3o2mmzWw5YcPzDqBDWxkvS9XJMHccraPZ7YW17N+vCfr9Hr29kyAAAECBAgQIECAAAECBAgQIECAAAECBAgQIECAAAECBAhsR0AAfTu1cqQECBAgQKBZgYvLl8PheNPs8W3xwATQt1g1x0yAAIF2BYRb1q2NIFc9f4HEetb2NF+gxTXAfWF+/WK39PCRWLnpcfp32ihlixbXrJTzaXmsXl63Otbpdf3tnQABAgQIECBAgAABAgQIECBAgAABAgQIECBAgAABAgQIEGhfQAC9/Ro5QgIECBAg0LyAAHr+Egmg5zc1IwECBHoWEG5Zt/resFjPXwC9nrU9zRdocQ1wX5hfv9gthXhj5abH6d9po5Qt9G6K3rKxvrcs88q9tV7PLWo+AgQIECBAgAABAgQIECBAgAABAgQIECBAgAABAgQIECBAYG8CAuh7q6jzIUCAAAECKwgIoOdH9xam/KZmJECAQM8Cwi3rV1/ApU4N9HodZ3tZLvDm1dXw+vpq+cBCIwR4C8Hem7bFBw+UP+s6e7DWl3X2naWs72l263Ad53N7sU6vXwNHQIAAAQIECBAgQIAAAQIECBAgQIAAAQIECBAgQIAAAQIECLQtIIDedn0cHQECBAgQ2ITA23fvh/GHsz75BATQ81maiQABAr0LCLe00QECLnXqIJRYx9le4gRaCnW6N8TVcOmolmq+9Nhb3V7vlq+Mvi1vPO7Bd5Y6zlN70e9TQv6cAAECBAgQIECAAAECBAgQIECAAAECBAgQIECAAAECBAgQ6FlAAL3n6jt3AgQIECCQSeBwvBnGt6D75BMQQM9naSYCBAj0LjDeo8d7tc+6AgLodfyFueo420ucQEvrgBBvXA2XjhJsXCo2vb11ftoodQt9myo4Pf5wvB0uLl9Mb2iL4gL6vTixHRAgQIAAAQIECBAgQIAAAQIECBAgQIAAAQIECBAgQIAAAQIbFhBA33DxHDoBAgQIEGhFQAA9byVaCqbkPTOzESBAgMAaAoJaa6g/vU8Bl/K10O/lje0hTaCVdUAAPa2Oc0f7u91cqXnb6dt5TqlbtbJOpZ5Hy+P1cjvVsU63UwtHQoAAAQIECBAgQIAAAQIECBAgQIAAAQIECBAgQIAAAQIECLQnIIDeXk0cEQECBAgQ2JyAAHrekvnxa15PsxEgQKBnAeGWtqrvHl++HgLo5Y3tIU2glXXA/SGtjktGC/Mu0Tq/rb7NZ3luJj1b3tn3lfLGS/ag55do2ZYAAQIECBAgQIAAAQIECBAgQIAAAQIECBAgQIAAAQIECBDoSUAAvadqO1cCBAgQIFBQwI9n8+G+vr4a3ry6yjehmQgQIECgWwH35/ZK//XL5/YOakdHpOd3VMwdn0oLQTdB3noN1spDB+qdcbk9WePL2d6fuYU1qs6ZrrMX6+867uf2ap1uryaOiAABAgQIECBAgAABAgQIECBAgAABAgQIECBAgAABAgQIEGhDQAC9jTo4CgIECBAgsHkBPwTPV0IB9HyWZiJAgEDPAofj7XBx+aJngibPXairbFl8Jy3ra/Y8Ai0E3QQg89Ry7iwePjJX6vnt9Gy64dwZfFeZKxW3nV6Ocys5qoX7csnzMzcBAgQIECBAgAABAgQIECBAgAABAgQIECBAgAABAgQIECBAIFZAAD1WzjgCBAgQIEDggcDF5cvhcLyhkkFAAD0DoikIECBAYBBuabMJBFzK1kUAvayv2fMJrB3wdI/IV8s5M61d7znH2Po2/ptDvQrp17LWvquU9Y2dXd/HyhlHgAABAgQIECBAgAABAgQIECBAgAABAgQIECBAgAABAgQI7FlAAH3P1XVuBAgQIECgooAfg+fD9na8fJZmIkCAQM8Cwi3tVt+9vlxt9H05WzPnFVj7YRQC6HnrOTXb2vWeOr4t/Ln1vV6VBHHLWVt7y9mmzmydThU0ngABAgQIECBAgAABAgQIECBAgAABAgQIECBAgAABAgQIENijgAD6HqvqnAgQIECAwAoC49vPxxC6T5qAH7ym+RlNgAABAt8EhFva7gTBrnL1EVAsZ2vm/AJrrgXuE/nrOTXjmvWeOrbW/1y/1q2QXi3nrZfL2eaY2UOiciiagwABAgQIECBAgAABAgQIECBAgAABAgQIECBAgAABAgQIENiTgAD6nqrpXAgQIECAwMoCAj/pBXh9fTW8eXWVPpEZCBAgQKBrAeGWtsvvgTPl6uP7aDlbM+cXWHMtcJ/IX8+pGdes99Sxtf7n1va6FRJAL+etl8vZ5phZ7+dQNAcBAgQIECBAgAABAgQIECBAgAABAgQIECBAgAABAgQIECCwJwEB9D1V07kQIECAAIGVBcY3oI9vQveJF/C2pXg7IwkQIEDgTkC4pf1uEHApUyO9X8bVrOUE1loLBNDL1fTczP6+t9xdry43Sx2x1rqUetytj9fLrVdoGDwopP0aOUICBAgQIECAAAECBAgQIECAAAECBAgQIECAAAECBAgQIECgroAAel1veyNAgAABArsWGMPnYwjdJ07AD13j3IwiQIAAgYcCwi3b6Aj3/TJ1EkAv42rWcgJvXl0Nr6+vyu3gmZndK6qThx0K9i5316vLzVJH6NNUwafH+45SxjX3rPo/t6j5CBAgQIAAAQIECBAgQIAAAQIECBAgQIAAAQIECBAgQIAAgS0LCKBvuXqOnQABAgQINCjgB7XxRRmDJ2MAxYcAAQIECKQIjA+DGR8K49O2gAB6mfr4LlrG1azlBNZaC4R6y9X03Mxr1Xuds82zV+t6HsclswjgLtGat+3heDtcXL6Yt7GtVhXQ/6vy20GqN0QAACAASURBVDkBAgQIECBAgAABAgQIECBAgAABAgQIECBAgAABAgQIECDQmIAAemMFcTgECBAgQGDrAkJv8RX89PHDMAYSfAgQIECAQIqAoFaKXt2xAi75vfV/flMzlhdYYy0QQC9f1+f2sEa91zvbtD3r0zS/2NF6NFbu+XF6Ob9pqRk9KKSUrHkJECBAgAABAgQIECBAgAABAgQIECBAgAABAgQIECBAgACBLQoIoG+xao6ZAAECBAg0LDC+cXUMofssF/j65fPyQUYQIECAAIF7AsIt22oHAZf89RJAz29qxvICa4Q93S/K1/W5Pbx5dTW8vr5a7wA2tGcPuFunWGusSeucab29+n5SzzrHnlwDORTNQYAAAQIECBAgQIAAAQIECBAgQIAAAQIECBAgQIAAAQIECOxBQAB9D1V0DgQIECBAoDEBPxJfXpAxgDAGEXwIECBAgECKgHBLit46Yz2AJq+7ayCvp9nqCKzxMAoB9Dq1fWova9R7vbON3/PheDtcXL6In8DIaAHh22i6Jwdab/N61pjNOl1D2T4IECBAgAABAgQIECBAgAABAgQIECBAgAABAgQIECBAgACBLQgIoG+hSo6RAAECBAhsTMBb0JcVTPh8mZetCRAgQOBpAUGtbXaGkFfeuvUcQK/xMINxnbn/Ofx28+//+evxdhj/HuATJ1CjfvePTCAyrk65Rln7pyX16LRRqS30Z15ZvZzXs8ZsAug1lO2DAAECBAgQIECAAAECBAgQIECAAAECBAgQIECAAAECBAgQ2IKAAPoWquQYCRAgQIDABgW8BX1+0QTQ51vZkgABAgSeFxBu2WZ3CLjkrZsAel7PmNnGkPopmP723fuYKbocUzvw6Z6xbptZ+6f9e17Pp3XKblF7PSp7NuvPrpfXr0HMEbgOYtSMIUCAAAECBAgQIECAAAECBAgQIECAAAECBAgQIECAAAECBPYmIIC+t4o6HwIECBAg0IiAt6DPK4Tw+TwnWxEgQIDAtIBwy7RRq1vUfvNxqw45jqvn66DVPhJ0ntfZtQPJ6jKvLiW3avWaLXnOc+fWn3OlymwneJvPVS/ns6w9U+37cu3zsz8CBAgQIECAAAECBAgQIECAAAECBAgQIECAAAECBAgQIECAwBwBAfQ5SrYhQIAAAQIEogS8BX2aTehg2sgWBAgQIDAtINwybdTyFoJe+aojgJ7PMvdM4zr16/h29ONN7ql3M1/Nvxu4b6zfNtb+52ugP9ftT72Zz99/F8tnucZMNe/La5yffRIgQIAAAQIECBAgQIAAAQIECBAgQIAAAQIECBAgQIAAAQIEpgQE0KeE/DkBAgQIECAQLeAt6OfpvP08urUMJECAAIFHAoJa224Jb1jMVz8B9HyWpWayXj0vWzP0qQ6lOnz+vNb+5616Xsvnd1C5LWuuReXOoo2Z9XIbdYg9CtdCrJxxBAgQIECAAAECBAgQIECAAAECBAgQIECAAAECBAgQIECAwF4EBND3UknnQYAAAQIEGhV4++79MIYbfL4X8CYlXUGAAAECuQSEW3JJrjePgEse+56vhS19txR+frrf37y6GsaHVNX4qEEN5el9WPu/N9Kb031Tegt9mUdYL+dxXHMWDwpZU9++CRAgQIAAAQIECBAgQIAAAQIECBAgQIAAAQIECBAgQIAAgRYEBNBbqIJjIECAAAECOxe4uHw5jG9D97kT8PZz3UCAAAECuQSEW3JJrjuPgEsefwH0PI61ZvH3hIfSNdcB945aXX5+PzVr3sYZTx+FdWHaqPQWAuh5hHv+TpJHsI1ZXA9t1MFRECBAgAABAgQIECBAgAABAgQIECBAgAABAgQIECBAgAABAusICKCv426vBAgQIECgOwE/Ir8rufB5d+3vhAkQIFBUwD22KG+1yYUQ81D3HPba0hvQT9U+HG+Hi8sXeYq/g1lqrgMC6O00zBav3VJ61oRSssvmFbhd5vXU1no53bCVGVwPrVTCcRAgQIAAAQIECBAgQIAAAQIECBAgQIAAAQIECBAgQIAAAQJrCAigr6FunwQIECBAoEOB8Q3oY0Cu94/wee8d4PwJECCQX6DnwG1+zXVnFHBJ9+/5ethqiFVI72Hf16qjAHr6epNrBmv/naS+zNVVafPoyTS/cbReTjdsZYaaD4dp5ZwdBwECBAgQIECAAAECBAgQIECAAAECBAgQIECAAAECBAgQIEDgJCCArhcIECBAgACBagJv370PP8Lt9eNHq71W3nkTIECgnIBwSznbNWb2XSFdXQA93XCNGaxld+q1gp/M1+j0p/dp7b9z6XkNb6cjh6HWOtTSOec+Fr2cW3Td+VwT6/rbOwECBAgQIECAAAECBAgQIECAAAECBAgQIECAAAECBAgQILCegAD6evb2TIAAAQIEuhToOYRe622GXTaWkyZAgECnAsIt+yu87wtpNe35mth671xcvhwOx5u0BtjB6FohNwH0tpqlVt3bOuuHR6Mn26mOfkyrhV5O82txtAeFtFgVx0SAAAECBAgQIECAAAECBAgQIECAAAECBAgQIECAAAECBAjUEBBAr6FsHwQIECBAgMADgR7DJZ8+fhjGH6z6ECBAgACBXALCLbkk25pH6CutHgLoaX5rjj4cb4eLyxdrHkIT+37z6mp4fX1V/FjcQ4oTL9pBrbovOqjKG+vJyuBndue7SFot9HKaX4ujBdBbrIpjIkCAAAECBAgQIECAAAECBAgQIECAAAECBAgQIECAAAECBGoICKDXULYPAgQIECBA4DuBnt6ELnzuAiBAgACBEgLCLSVU159TwCWtBgLoaX5rj+7xQVWPzWutAe4ha3f7w/3XqntbZ/3waHpev1uriwB6WkX0cppfq6NdF61WxnERIECAAAECBAgQIECAAAECBAgQIECAAAECBAgQIECAAAECJQUE0EvqmpsAAQIECBA4K7D3EPoYInhz/XdvPncdECBAgEARAeGWIqxNTPr1y+cmjmOLB9HzdbGHvvEW9CH83WF8gFXpjwB6aeHl8/ccbtSPy/ul5IieezHVVS+nCrY7vtb9uV0BR0aAAAECBAgQIECAAAECBAgQIECAAAECBAgQIECAAAECBAj0KCCA3mPVnTMBAgQIEGhIYK8h9NfXV8ObV1cNSTsUAgQIENiTgHDLnqr5/bkIfsXXVwA93q6VkT3X8FSDGg8TcB9ppePvjqPncKPrvq1+9D0kvh4Xly+Hw/EmfgIjmxaocX9uGsDBESBAgAABAgQIECBAgAABAgQIECBAgAABAgQIECBAgAABAt0JCKB3V3InTIAAAQIE2hMYf5z79pd/7OZHusLn7fWYIyJAgMDeBAQH91bRh+fTcwgxtbI9hxj3EooS3huGGrV0H0ldbcqMr1H7MkceP+vheDtcXL6In8DI7AIC6PGkPX8PiVfbzkjXxnZq5UgJECBAgAABAgQIECBAgAABAgQIECBAgAABAgQIECBAgACBPAIC6HkczUKAAAECBAhkENjD29A/ffwwjKExHwIECBAgUFJAuKWkbhtzC7jE1aHna2MvwVUB9GGocf0LoMetMaVH1ah96XNYOr9eXCpWfvse+zCHql7Oodj2HB4S1XZ9HB0BAgQIECBAgAABAgQIECBAgAABAgQIECBAgAABAgQIECCQX0AAPb+pGQkQIECAAIEEga2G0Mcfob65/rvweULtDSVAgACBeQLCLfOctr6VgEtcBQXQ49xaGuVtyALoLfVj7WPpce3ved2u3V9z9yeAPlfq4XZ6Oc5ta6P28sCfrbk7XgIECBAgQIAAAQIECBAgQIAAAQIECBAgQIAAAQIECBAgQGAdAQH0ddztlQABAgQIEJgQ2EoQXfBcKxMgQIBAbYEe3w48BqEuLl/Upl51fz2GEHOA9xz+2lMgquc6jtdBjfCnh5nkWHHKzFGj/mWOfPms+nC5WY0RPfVgLs8eH57y5tXV8Ovxdjgcb3IxbmIe18cmyuQgCRAgQIAAAQIECBAgQIAAAQIECBAgQIAAAQIECBAgQIAAgUwCAuiZIE1DgAABAgQIlBFoNYgueF6m3mYlQIAAgWmB3oKZY7jl9fXV0Nt5j50g4DJ9PTzeosc+ORkIoC/vl1ZH1Lj2BX9brf4w9PQAEn3YZh/WWIPaPPP4o+qxl8fvHT0G73tao+OvCCMJECBAgAABAgQIECBAgAABAgQIECBAgAABAgQIECBAgACBvQgIoO+lks6DAAECBAjsXKCVILrg+c4bzekRIECgcYEewy2nAHqPb34XcFl+QQqgLzdrcUSP1/v9OtQIf/Z4P2mx1587pj09UOKce89rdsv9WGMNavn8Y46tt14+fUftMYA+9odrJOYqMYYAAQIECBAgQIAAAQIECBAgQIAAAQIECBAgQIAAAQIECBDYooAA+har5pgJECBAgEDHAmMQ/fDb7XA43lRVEDyvym1nBAgQIPCMQG/hlpHhFMLrNeDSSwgx10Xf4zVysttTr/QeQD89eCPXdfHUPALoJXXT5+4h3KgH0/uk1Aw99F9Oux57+f59qsd7todE5byCzEWAAAECBAgQIECAAAECBAgQIECAAAECBAgQIECAAAECBAi0LCCA3nJ1HBsBAgQIECBwVmAMo4+f8ce+uT/jj0nHz5vrvw+nf8+9D/MRIECAAIElAr2HW0arHsPFQmBLrpI+e+QkJIC+rFda3loAveXq1Dm2HsKNPd7T63RP+l5891hm2ON39PvfOXp8SFQPa/Syq8DWBAgQIECAAAECBAgQIECAAAECBAgQIECAAAECBAgQIECAwF4FBND3WlnnRYAAAQIEOhM4hdHHt6OPnyVvSL8fMB8D5+NH6LyzBnK6BAgQ2IBAj+GWxyFMb1jcQKOufIg9BxoF0Fduvoy7F0DPiLnhqfYcAu7xO82WWnHPvVeiDr1993gcvu4xgD72keukxNVkTgIECBAgQIAAAQIECBAgQIAAAQIECBAgQIAAAQIECBAgQKA1AQH01irieAgQIECAAIHsAqcw+q/H2+FvP/3w7/mFzLNTm5AAAQIECgr0Fm4ZKR8HansNuOwpWFzwEglT93idnEz31Ce9h1MF0EuvFNuYf89v2O39Gm+9AwVr51eox15+6h7lIVHze8aWBAgQIECAAAECBAgQIECAAAECBAgQIECAAAECBAgQIECAAIEtCQigb6lajpUAAQIECBAgQIAAAQIEuhQQbrkre48BY0Gw+Zd9j/1x0hFAn98nrW8pgN56heod356u6/tqPa/V9bonfk++d8y36zF4/VR/eEjU/J6xJQECBAgQIECAAAECBAgQIECAAAECBAgQIECAAAECBAgQIEBgSwIC6FuqlmMlQIAAAQIECBAgQIAAgS4FBNDvyt5j0GfPb8HNfUH3HGrcU1C1xzXv/rUggJ57ZdjufHsMAvd+fW+hG/fYd6Xce/ze8dT3jV4D6K6VUleWeQkQIECAAAECBAgQIECAAAECBAgQIECAAAECBAgQIECAAIFWBATQW6mE4yBAgAABAgQIECBAgAABAs8ICLfcwQi4uEzOCfR4rZw89hRA7/FBE/f7WgDdOncS2OMDSATQ2+9vodp5Neqxl8/dn3q8d+9xjZ7X/bYiQIAAAQIECBAgQIAAAQIECBAgQIAAAQIECBAgQIAAAQIEehEQQO+l0s6TAAECBAgQKCrw9t374W8//TCMPz71IUCAAAECOQWEW77X7DFkXCOQmrNv15qrx944WQugr9V1+fdb43rv8d6Sv1J1ZtxbGLjndbpOx6TvZW89ly7y9Aw99vK53uj1IVF7+v5V6loxLwECBAgQIECAAAECBAgQIECAAAECBAgQIECAAAECBAgQILBdAQH07dbOkRMgQIAAAQIrCxyON8PbX/4xjP8cP958tHJB7J4AAQI7FejxbYJT4cseTXzPmHeB9xgGO8nsKQDV4zV+v8NrhD8F0OetKS1sVaMfap2nvqslnbafPfVcmsTzo3vt5XPfNXoNoLteSl1l5iVAgAABAgQIECBAgAABAgQIECBAgAABAgQIECBAgAABAgRaEBBAb6EKjoEAAQIECBDYlMDj4Pn9g99T8GdTRXGwBAgQ2LFAj4HaqfupgMuOGz7x1Hq8Xk5kU9dNIm3V4T3XcYSuEWbrNTxZtZEz7WxPDyDp/drO1BLFp6mxBhU/icI76HENnXpA1Eje4wNk9rRGF75sTE+AAAECBAgQIECAAAECBAgQIECAAAECBAgQIECAAAECBAhsUEAAfYNFc8gECBAgQIBAfYFzofP7R/Pp44fwJnQfAgQIECCQQ0C45XnFHkNsAi7TV1WPfXFS2UsAvdcHTDz8O8U/h59/+mG64RO26PH+ksC1+tA9BIL13OptNPsA9tBvs082csMev2/M6Yte7+FzbCJbzTACBAgQIECAAAECBAgQIECAAAECBAgQIECAAAECBAgQIECAwKoCAuir8ts5AQIECBAg0KLAGDYfP29/+Uf45+l/zzlWAfQ5SrYhQIAAgbkCPYZb5rxdcfTr8Q2L43nvJWQ89xpYul2P18zJaC+9IaRa5zrnvHR1WXf7PTyARM+t20NL9i5Me16r116e8z2j1wD6HtboJWuEbQkQIECAAAECBAgQIECAAAECBAgQIECAAAECBAgQIECAAIF+BATQ+6m1MyVAgAABAgTuCZxC5b8eb8P/e/jtj3/+ET6PxfKj01g54wgQIEDgsYBwy/me6DXgIhR2vi8E0Le/lva69t2v3JyQX2qlOacK1h9foy9KnlXP63NJ1xJz+65xXrXH9XPuA6JGuR4fEuW/BZZYicxJgAABAgQIECBAgAABAgQIECBAgAABAgQIECBAgAABAgQItCAggN5CFRwDAQIECBAgUF1gDKCPP4ot8dl6MKCEiTkJECBAYLmAcMu0WY9hNgGX833RY0+cRPbyHbTnGtasZY/3mOm7SttbbDkUrN/a7q3HR7flXqsh3eN9aklPeEhUjS60DwIECBAgQIAAAQIECBAgQIAAAQIECBAgQIAAAQIECBAgQIBAHQEB9DrO9kKAAAECBAg0JlAygP7p44dhDIf5ECBAgACBFIEewy1L3q442vb4hsXxvPcSNE65Pp4b2+N1c7LYQ18IqX6rZo1asi6xApWdc8sPIOn1fl22I8rNviRsXO4o2py517VzyX2p1wD6ltfoNq82R0WAAAECBAgQIECAAAECBAgQIECAAAECBAgQIECAAAECBAi0ICCA3kIVHAMBAgQIECCwikCpH8H70ekq5bRTAgQI7EpAuGVeOXsNuAiGPd8fAujzrp1Wt+p17btfj6UP4oitJetYuXXHbXX973ltXrdj4va+1T6LO9tlo0r9d6RlR1F365j7Uo9OY1WWBPXrVtHeCBAgQIAAAQIECBAgQIAAAQIECBAgQIAAAQIECBAgQIAAAQJxAgLocW5GESBAgAABAjsQKPWDWAH0HTSHUyBAgMDKAj0GA2PCLWOZegy1+a7x/AXaYz+cNLYeeupx3Xuqk2PXwqW3Ld5LxdrYfovrv15ro3eWHIUAuu8Z9wVi+sFDopZccbYlQIAAAQIECBAgQIAAAQIECBAgQIAAAQIECBAgQIAAAQIECLQrIIDebm0cGQECBAgQIFBY4HC8GcYQeonPp48fhjEc4EOAAAECBGIEegzRxoYuSz1QJqZuNcfEhIFqHt9a++rx2jlZC6Cv1XV59xu7Fi49CqHgpWLtbL+1a73ndbmdrll2JL5jPO3V67oZs+b0GkDf4kNClq0OtiZAgAABAgQIECBAgAABAgQIECBAgAABAgQIECBAgAABAgR6ExBA763izpcAAQIECBB4IFDqx/AC6BqNAAECBGIFhFuWyfUacKkVUl1WjfW3LvXdbv0zmz6CmIDY9Kx1tuh13XtKt1Ydmdfp7RJ72VI4WJ+V6IDyc26px8pr3O2hx+8YKd83e31IVK37eM3ety8CBAgQIECAAAECBAgQIECAAAECBAgQIECAAAECBAgQIECgXwEB9H5r78wJECBAgACBYQhvQB/fhJ77461HuUXNR4AAgX4ESt2bWhZMCbeM59VjIMh3jac7usdeOElsOfDUc90ed3KtOgoGt3xXPH9sW1r/9dk2+0wA/fu69drLKb3Q60OiUsy2uWI4agIECBAgQIAAAQIECBAgQIAAAQIECBAgQIAAAQIECBAgQGDPAgLoe66ucyNAgAABAgQmBd6+ez+MPyTO/dlSKCD3uZuPAAECBOIFeg1qpAbQewztj10m4PL9tdZzkLlWcDl+hXt6ZK/X71MaNf8O0WuYMnf/rjXfVtb/ntfktXojx3630l85znXuHL2umSnfLXr9e03Ne/nc/rUdAQIECBAgQIAAAQIECBAgQIAAAQIECBAgQIAAAQIECBAgQCBWQAA9Vs44AgQIECBAYBcC49vPx9BLic+njx+G8YenPgQIECBAYK6AcMtcqYfbCbjEue1xVM9hx5SQ2Fq90Oua95x36sM4ltTx/9m7fxg7jjNf2B1yoysGN2BmAtINBKwEATQN6E+i6KOUKLa9gAACF5KtYcYFlX4JBTkjrSUTAgJ05ViJNDdSIlJYjQkI0gIKLAF0cAEG/gDSyV2GH2pmjzkiZ+Z0n1PVXVXv0wBB2ezTXfW8Vd1nyP51sZ+iVd++c46VTXtvjG0qt/znBNCfrkHE7xc5rjNRXzJjDi1/HdMCAgQIECBAgAABAgQIECBAgAABAgQIECBAgAABAgQIECBAII+AAHoeR0chQIAAAQIEGhYo9SCxAHrDg0LTCRAgsJBAqXvSQt0Zddoc4ZZ0ooh2qd8tho5HDYwNd4o6DlocC1FDaScN7VzXwzHTRzh4jFK9+7Swwq45Xu/4Wdcy4dmfC0W9XuYYB14StW62+XMCBAgQIECAAAECBAgQIECAAAECBAgQIECAAAECBAgQIECAQN0CAuh110frCBAgQIAAgRkESj0Y30IoYAZepyBAgACBkQJRwy25Apel7ucjy7fYbjnCQYs1vsCJBdALoGY+ZNQw2hjGOedz1HvOmDq0ss+c42UTk8jX4028avpM7WNrbquo18scLzmKes/394Fzz1LnI0CAAAECBAgQIECAAAECBAgQIECAAAECBAgQIECAAAECBEoJCKCXknVcAgQIECBAoBmB23e+GVJorcSW44HdEu1yTAIECBCoT0C4ZbuaCLhs59fLpyMHHlv43hn1Ojd2fs1ZQ7UYW5V696s54Gh81TtuxrRMAP3nShG/W+R6QVSS9JKoMbPOPgQIECBAgAABAgQIECBAgAABAgQIECBAgAABAgQIECBAgACBOgUE0Ousi1YRIECAAAECMwqUDKB//tknQwoG2AgQIECAwDoB4ZZ1Quv/PKJhUpkztLq+CsvuEXUM1DwO0sshrv7h+pC+c9uOF8gZ9hvjLCA8Rqn+fWq9/ke+Ftc/ata3UAD9sVHUa2XOe5KXRK2fc/YgQIAAAQIECBAgQIAAAQIECBAgQIAAAQIECBAgQIAAAQIECNQqIIBea2W0iwABAgQIEJhVoNSKTFcu7wzpwV0bAQIECBA4SUC4Jc/4KHU/z9O6ckcRFHtsGzn0WFMQNYXN0iZ4Pn7ezz2Po953xlekjT3nHjdjVIytMUp171PjuFpKLOp3y5zfKaIG0NOYzem41BxwXgIECBAgQIAAAQIECBAgQIAAAQIECBAgQIAAAQIECBAgQCC2gAB67PrrPQECBAgQIPBfAqUeKk6rn6dV0G0ECBAgQOAkgahhrdyhjKgBF983Hs8uAfR5r7WroHk66+2vvxm+urNnpfMNS5D7eriuGVHvO+tcWvvzGq//xlZro+jp9gqgx/5ekXP185Vkqb9zq322mUu1V0j7CBAgQIAAAQIECBAgQIAAAQIECBAgQIAAAQIECBAgQIAAgXUCAujrhPw5AQIECBAgEELg9p1vhvRAbIlt7jBJiT44JgECBAiUFYgYmi0RbklVimiZ+i3gcjBHo9Y/9T0FUUtv6TuzLb9AqevhSS0VEs5fx6WOWNv1P/J1eKkxkPu8tY2p3P0be7yo18kS9yQviRo76uxHgAABAgQIECBAgAABAgQIECBAgAABAgQIECBAgAABAgQIEKhLQAC9rnpoDQECBAgQILCgQKkH5dMK6HMEghakc2oCBAgQ2EJAuGULvCM+GnWFxRJhobyVmedopb7PzdN6Z4kqsETYM+q9J42x9LNZTy9TqGkV9Mjjqqfr1xLXpBr9on6nKPESxagB9DSuS3jWOF+0iQABAgQIECBAgAABAgQIECBAgAABAgQIECBAgAABAgQIEOhTQAC9z7rqFQECBAgQILCBQKnAWk2BgA1YfIQAAQIECguUuv8UbvbWhy8VxogacPF942BIRg2LbT0hHWBRgVLXw5M6FTkonF7YcfXD64vWPPfJlxhDR/Uh6nea3PVc+ngC6MMQ9RpZ8oVGUa8P5tPSVzTnJ0CAAAECBAgQIECAAAECBAgQIECAAAECBAgQIECAAAECBLYREEDfRs9nCRAgQIAAga4ESj0MKxDW1TDRGQIECGQViBqWLhluSQWKGkIWcIlb+6wXJgebVaD09fC4zkQNVyaPZP7Vnb2uVkGv4frf23eaHl9UMPbiVsN4GtvWUvtFvUaWvCf1do0YO/b8neBYKfsRIECAAAECBAgQIECAAAECBAgQIECAAAECBAgQIECAAAECNQoIoNdYFW0iQIAAAQIEFhG4feebIYXQS2yff/bJkB46tREgQIAAgcMCwi1lxkOpl8qUaW2+owq4CKDnG02ONJdAybDfSX2Iev9JJsn81Zd/Nbz51m/nKnPx89Rw/e9pTKUxkrarH14vXrsaTyCAHvf7xN//9pdiQzJqAD2BmlPFhpUDEyBAgAABAgQIECBAgAABAgQIECBAgAABAgQIECBAgAAB+kIDSAAAIABJREFUAoUFBNALAzs8AQIECBAg0JZAqRVTBdDbGgdaS4AAgbkESt135mr/pucpGW5JbYoccCltu2nN5/pc1Dk1l6/z5BVYKnyeetFTWHhqVVbuvV0vlg449uQpgP6/hldfOT91anWzf9Tr4xz3pKgviZrDtpsJqCMECBAgQIAAAQIECBAgQIAAAQIECBAgQIAAAQIECBAgQIBAVQIC6FWVQ2MIECBAgACBpQVKPQxbw4p0S9s6PwECBAj8XEC4peyI6CkIN0Vq6QDilLaW2Ddq3UtYOmZ5gSUDaVHvQamqK/dSP/uVHzlHn2HJnzl7G0/pZS699WnKuIz+XSJq7ee4J0V9SdSS1+cpc9++BAgQIECAAAECBAgQIECAAAECBAgQIECAAAECBAgQIECAAIEnBQTQjQkCBAgQIECAwCGBqx9e33/QvMQWfUXSEqaOOV3g0Y939z/04H/f2P999b/XHenUc+eGU8+e29/t9IV31+3uzwkQGCEg3DICaYtdegsWjqWIHnARQB87UuxXg8CSPx9EvQeluq9Clr0FIZe8/vc0nlbjo6c+Tb3eRQ+gR/0uMcc9qbfr7pS5FX1eTbGyLwECBAgQIECAAAECBAgQIECAAAECBAgQIECAAAECBAgQIFCPgAB6PbXQEgIECBAgQKACgdt3vhlSYK3E9vlnnwwpFGAjMKdACpinsPnYoPmUtj1z4Z393f/p2V8OKaBuI0BgmoBwyzSvqXtHDrjMESCaWo+59o86r+bydZ58AnOsNHtSayOHaw/b93bNWCrg2JPjyjDyHFlqHOW7wm5+pKh1n/Oe5CVRm49PnyRAgAABAgQIECBAgAABAgQIECBAgAABAgQIECBAgAABAgQIzC0ggD63uPMRIDCbQAqRrjaBz9nYnYhAFwKlHp6/cnlnf7U9G4HSAiVD5ye1PQXSrY5eurqO34tA1HDL3Kuzlrqn1z4OIwfHota89jGpfU8LLP2iiKj3oVSJw0HL3oKQc99nk2dvY2k1N3vr15TrcOTvEb1dE8bWfc4AupdEja2K/QgQIECAAAECBAgQIECAAAECBAgQIECAAAECBAgQIECAAAECywsIoC9fAy0gQGBLgVXQ/Ks7e8Ptr/f2j3Y4fH7S4dODua++fH547ZXzViXesg4+TqAngVIPHC8RBuipLvpyskAKnf/nT38eHv10t8hq51P8BdGnaNk3qkDUUNOc4ZY0tkrd02sft5G/cwig1z46tS8JzH0tPEo96n3oSf8eg5Bzv9ygp+vu4bkZeY5EDaD3eD0Ye9ed87oR2Tnq3Bo7Du1HgAABAgQIECBAgAABAgQIECBAgAABAgQIECBAgAABAgQI1CcggF5fTbSIAIE1AilcfvUPfxwdMp8Cugqkp89YpXiKnH0J9CWQrjMpsFZim/Oh3hLtd8w6BR7s3hge7t6srnGC6NWVRIMqEugprDWFde77oIDL+Snl6WLfqHOri+IF6sTc18KjaCOHa598AUBv1405A4693WcP20WeI3OOoZou/VFrvsRLUbwkqqaRry0ECBAgQIAAAQIECBAgQIAAAQIECBAgQIAAAQIECBAgQIAAgeMFBNCNDgIEmhBYrWheKnh+HMKVyzv7fySM3sQw0UgC2QRKBtA//+yTIb3swkYgh0Ba9fz+9Ys5DlX0GCmI/k/P/nI49dy5oudxcAKtCEQNtyy1KndvwcKx43yJMNHYtpXcL2q9S5o6dl6BWuZm1HvR6u94Vn/fk/53b0HIOe+3vY2jwy+H6K1vU65kUQPoUb9DLHFf6u3lFVPmVw0voZnSXvsSIECAAAECBAgQIECAAAECBAgQIECAAAECBAgQIECAAAECsQUE0GPXX+8JVC9QcrXzKZ1frYwuiD5Fzb4E2hYoFUKYMwzQdgW0/iSBFDx/8L9vDOn3ljYrordULW0tKSDcUlL36WOXuqfP24vpZ4v6nSPq/Jo+QnxiKYFagmeRw7VPhi17DELOFSDu6Zr75LiIPEfmGj9LXYePOm/kei9xX+rxujt2PEecX2Nt7EeAAAECBAgQIECAAAECBAgQIECAAAECBAgQIECAAAECBAjUJyCAXl9NtIgAgWEYrn54fUgP/tW4pVWyBNFrrIw2EcgrUCqsFjUMlrc6sY/2YPfG8HD3ZrMIQujNlk7DMwlEDlssEW5JZYtsHjHg0lMYMtNlx2EqElhildnjuh85bHlUHUr9/LfU8Jvj587extCT98ze+jdlLEb8/hC13kvel3q77o6dY3Ncn8e2xX4ECBAgQIAAAQIECBAgQIAAAQIECBAgQIAAAQIECBAgQIAAgXUCAujrhPw5AQKzCtSy4vmYTguij1GyD4F2BdL1KD0MW2L7/LNPhvTAqY3AFIG02vn96xenfKTqfQXRqy6PxhUUiBpuWTpoETWUvLR7wal07KGj1noJa+ecJrBkyO+olka9HyWLCAH01M/SL37pbQw96dVb/6ZcsSIG0KN+f1jy3uQlUeenTEv7EiBAgAABAgQIECBAgAABAgQIECBAgAABAgQIECBAgAABAgQWERBAX4TdSQkQOEqg5lXPj6uYELqxTKBvgVIPIAug9z1uSvSut/D5ykgIvcRocczaBUrdW2rv95LhlmQTdYXF1PfSAcTaxl7UOVZbHbTnaYHa5mLkcO1R96Qeg5ClQ8Q9XW+PGhOR50jpsVPbPSJyrZe8N/V43R07tpf+2WhsO+1HgAABAgQIECBAgAABAgQIECBAgAABAgQIECBAgAABAgQIEBBANwYIEFhcoKVVz4/DEkRffBhpAIEiAqXCahFXIy1SoCAHfbB7Y3i4e7Pb3gqhd1taHTtCQLhluWEROeASLUTWUyByuRnjzLkFagyaRb4nHVePUj//5R5PY49X8ufO3sbPUSHc3vo4dtyk/aJ9d4ha6xruTb1dd8fOs5LX57FtsB8BAgQIECBAgAABAgQIECBAgAABAgQIECBAgAABAgQIECBAYIyAAPoYJfsQIFBMoKeHzITQiw0TByawmEDJa9SSq0wtBurEkwV6D5+vQE49d244s3Nrso8PEGhNIGq4pZaARdRgci3+c83XqHWey9d5pgvUEPA7qtVR70nJIkoAPfW1VJC4p2vtcffJyHOk1LiZfgWd5xM9jecpYjXcn7wk6vyUktmXAAECBAgQIECAAAECBAgQIECAAAECBAgQIECAAAECBAgQIDC7gAD67OROSIDASqBksHNJ5c8/+2RID6/aCBBoX+D2nW+GdK0qsblWlFDt65hRwuerqlkJva/xqzdHCwi3LDsyev35Y4xqpBffRJ1nY8aBfZYRqHX+RQ7XHhe67DEIWeIlJL2NnePGQ2/9nHIFjBRAj1znGu5PPV53x861Etfnsee2HwECBAgQIECAAAECBAgQIECAAAECBAgQIECAAAECBAgQIEBgrIAA+lgp+xEgkFWg9/CH1dCzDhcHI7CoQKkQkwD6omWt/uTRwuerggihVz80NXALAeGWLfAyfTRywCVSkKzUd7dMw9BhggnUsLrsceSR70sn1aXHv6/KHTLtbewc59NbP6dcfiN9b+hxzo+pdU33p6g1SHXKfX0eU3v7ECBAgAABAgQIECBAgAABAgQIECBAgAABAgQIECBAgAABAgSmCAigT9GyLwECWQSiPFQmhJ5luDgIgcUFSl2zrHS0eGmrbUDU8PmqIELo1Q5NDdtSIGqIqbb7XdRwcm112HI6nfjxqDUuaerYmwnUFO47qgdR70vJIloAPXeYuKfr7En3x8hzJPeY2ewqWv5TkV9OVNM9KnIdosy18rPZGQgQIECAAAECBAgQIECAAAECBAgQIECAAAECBAgQIECAAIFSAgLopWQdlwCBpwRu3/lmSEHOSJsVjiNVW197Fch57UoPt6ft/cvv7f+++t+92unXdIFHP94d7l+/OP2DnX1CCL2zgurOvkBPYa0pJa0p3JLaXerFMlNMlto3SsAl6lxbalw579ECtV37jmpl5HDtSfXpMQiZ8yUkvY2bk8ZCb32dcr2O8p0hco1rWnm7x+vu2PmW8/o89pz2I0CAAAECBAgQIECAAAECBAgQIECAAAECBAgQIECAAAECBAhMERBAn6JlXwIENhbIGeDcuBELfVAIfSF4pyWQSWCT69cqWP7qy+eH1145v98SYfNMBen8MPcuvdh5D8d3Twh9vJU96xcQbqmnRpEDLlHCZALo9cy3qC1pIXyeahP53rSuRj2+rCTXPaC3cXNSCLe3vk65JucaL1POucS+Ub8zrLsGLlGLHq+7Yx1rehnA2DbbjwABAgQIECBAgAABAgQIECBAgAABAgQIECBAgAABAgQIEIgjIIAep9Z6SmBRgagP9K3QhdAXHX5OTmBrgTHXsBQwTyubC5pvzR32AA92bwwPd2+G7f9RHT977TseBLoQGHMf6aKjT3Si1hX91KPH0fa4T1Hr23dV2+ldjaG+4/Qih2vX1anHl5Ws6/PYWdbTNXbd95TIcyRCAD1yfXNdD8ZeN8bs1+N1d0y/0z4R5ttYC/sRIECAAAECBAgQIECAAAECBAgQIECAAAECBAgQIECAAAEC9QkIoNdXEy0i0J1A5BVMDhdTCL27oa1DgQSOu44JnQcaBIW7Knx+NPCp584NZ3ZuFdZ3eAJlBSKHKWoMt6RqR/75JELApadwZNmrk6PnFlgXZs19vm2PJ3y5cyxhj/fuHOOztzGz7ntKb/2dcs2I8H0hcn1rXHG7x+vu2DmX4/o89lz2I0CAAAECBAgQIECAAAECBAgQIECAAAECBAgQIECAAAECBAhMFRBAnypmfwIEJglc/fD6kB7osw37qyKnELqNAIH2BG7f+WY/rJa2Veh89d/t9UaLaxN49OPd4f71i7U1q5r2pAB6CqLbCLQqINxSX+UEXPr+mUQAvb45F6FFLf68H/n+tC54nMZsjy8r2TZU3Nv1dV0IN/Ic2XastHDd7208jzUfc/0be6zc+/V43R1rFGHOjbWwHwECBAgQIECAAAECBAgQIECAAAECBAgQIECAAAECBAgQIFCXgAB6XfXQGgJdCQifP13OK5d3hvSgn40AgbYEUgD96h/+OLx/+b39ALqNQE6BFD5PIXTb0QJWQTcyWheIGm6pPYwZtS5pPq0L3JlzrQto/xICLc6ryOHaMQHMHl9Wss29ubfxMmYM9NbnKdfG3sOwkWs7ZuxPGSs59+3xujvWp+a6jO2D/QgQIECAAAECBAgQIECAAAECBAgQIECAAAECBAgQIECAAIE+BQTQ+6yrXhGoQmCJUMfhlYkTwlFB0RQkTdtXd/YWWZ09rYIuwFrFENUIAgQILC7wYPfG8HD35uLtqL0Bz1x4Zzh94d3am6l9BJ4SEG6p98VLVlg83+2MXeLn0G4xdWytwMHfQewMr77S3pxyjzr5HtVrEHLTlyX0Nl7GhD176/PaC9qhHQTQp2i1te+m14A5etnrdXeM3TYvCBlzfPsQIECAAAECBAgQIECAAAECBAgQIECAAAECBAgQIECAAAECBDYVEEDfVM7nCBA4UWCu1c/Tw1mvvnx+eO2V81uFulN705YeLi29eaCstLDjEyBAoB2Be5debKexC7f0zM6tIa2GbiPQkoDgUr2BTAGXT1qaSpPaKoA+icvOWwi0/rN95HvUmPBxGho9vqxk02Bxb9fWMSHcyHNk03GyxSV11o/2Np7H4o299o09Xon9erzujnXqfd6NdbAfAQIECBAgQIAAAQIECBAgQIAAAQIECBAgQIAAAQIECBAgUJeAAHpd9dAaAl0IzBU+L7GS+Fxtv3J5Z0gP/dkIECBAIK6A1c+n1T6Fz1MI3UagJYGo4ZZUozHBrqVrqT5LV6DM+SPXtYyoox4l0EKIb13lIodrx9avx5eVbPLihN7Gytj699bvddeEw3/ecxA2cl3Hjv0pYyX3vj1ed8cabXJ9Hnts+xEgQIAAAQIECBAgQIAAAQIECBAgQIAAAQIECBAgQIAAAQIENhUQQN9UzucIEDhWoPQD/3OEt+cIopcI0BuWBAi0JfBg7/v9Bj/883+Mavgzv/znf+x3+vwLoz5jp3oFBNCn18Yq6NPNfGI5AeGW+l+2ZIXFeleo32bmlv55dJu2+WwfAi0E+MZIu0+tv0/1GoScGi7u7X45dg5HniNTx8iYa04t+0T+ntDCC6J6ve6OHf8t1GhsX+xHgAABAgQIECBAgAABAgQIECBAgAABAgQIECBAgAABAgQI9CEggN5HHfWCQDUCJYPbaRWQ9y+/N6Tf59pK9yeF0G0ECPQvkILmq5B5+n0VPM/R8xRET8H0VThdMD2HavljPPrx7nD/+sXyJ+rsDALonRW08+70FtaaUq5WQkuRAy49r7AYOVg2ZZ7adzOBVq5vY3oXOVw7NoCcHHu8n0+9B/R2XR0b8Iw8R3q61h2+Hvru18bfQ/d43R1zX0779Dr3xvbffgQIECBAgAABAgQIECBAgAABAgQIECBAgAABAgQIECBAgEB9AgLo9dVEiwg0LVDqodQ5Vj0/Dr5kCN0q6E0Pd40ncKzAKnCeO2w+ljyF0H/xu1/v7y6QPlZt3v2sfr6Z96nnzg0phG4j0IJAqe/FLfR9bLCrhr5ErlOvAZfINa1hTvXahqmB3RYcIodrpwTQew2sjr1X9zZOptS+t75PuS71+h0hck2njP0pY6XEvr1ed8dY9fh9Y0y/7UOAAAECBAgQIECAAAECBAgQIECAAAECBAgQIECAAAECBAjUKyCAXm9ttIxAcwKlgtpLhs9XRSjVNw+VNTfMNZjAsQKr0Pm9jz6tSmkVQE+BdGH0ekpz79KL9TSmsZZYBb2xggVtrnDLTjOVt8Li+WZqNbahAuhjpew3VqCl0N7YPqX93KvG36t6vK6MDRj31vcp8znyHBk7PqZcc2rYt7fxPMV07Esnphyz1L6RA+jJtKValRoDjkuAAAECBAgQIECAAAECBAgQIECAAAECBAgQIECAAAECBAjUIyCAXk8ttIRA8wIlQto1hM9Xhbl955shBVRybx4qyy3qeATmFUiB89pC58cJrFZGF0Sfd4w8eTarn2/nbxX07fx8eh6ByOGW1gJLkQMuvb4MK/L8m+cKF+csaY68f3lnePWV/l7UkKoYOVw7JYScrHp8WcmYe0CPY2TK38H12P+xV/DWvs+N6Vfkeo6Z72MM59ynx+vuWL8e59/YvtuPAAECBAgQIECAAAECBAgQIECAAAECBAgQIECAAAECBAgQqE9AAL2+mmgRgSYFeg+fr4pSop+ff/bJkB4EtBEg0I7AKnDeSvD8KFlh9OXG2/3rF4dHP95drgEdnPnste866IUu9CoQOdCcajol2FXLGIgcWO4x4BK5nrXMqR7aMTWg3GKfI4cxp9a313v7untAb2Nkat176/+U69S6sTHlWLXsG7meU8d+DTXr9bo7xrbFFwaM6Zd9CBAgQIAAAQIECBAgQIAAAQIECBAgQIAAAQIECBAgQIAAgTYFBNDbrJtWE6hOIHcwu+YHrSL1tbqBpkEEFhZIgfOHf/6P4cHe9wu3JN/pBdHzWY490r1LL47d1X7HCJzZuTWkldBtBGoUEG7ZqbEsJ7Yp8gqLNf/ctelAEkDfVM7nkkDvq54frrL71bT7VY/XlnWh1N76vK6/T14FI8+RHgPovY3nKXftFl8QFTmAnmrb4xycMmbtS4AAAQIECBAgQIAAAQIECBAgQIAAAQIECBAgQIAAAQIECNQjIIBeTy20hEDTArkf4qv9wbjcIRWroDc9/DU+gECPwfMnyyaIPs9ATiufpxXQbdsJpPB5CqHbCNQokPt7cY19PK5NrQYlogdcav/Za+ociDwHp1rZ/7FApOD5qteRw7VTg8jJLPffA9Uw/056CUmP42Pq/a5Hg7HjrtXvdMf1L3ItW37ZUI/X3bFzcJP71Nhj248AAQIECBAgQIAAAQIECBAgQIAAAQIECBAgQIAAAQIECBAgMEVAAH2Kln0JEDhSIPeK4Fcu7wzpIauat9t3vtl/+DjX1vLDgLkMHIdArQIpfJ5+RdlSEP2ljz+I0t3Z+/lg98bwcPfm7Oft7YQC6L1VtJ/+RA63pCpODXbVVPnIoeXeQmaRa1nTnGqpLVFDXpHvWZvUvNeXlRx3D+gt+LlJzSPPkd6+G0Su5SZjv5Z7eK/X3TG+/q1gjJJ9CBAgQIAAAQIECBAgQIAAAQIECBAgQIAAAQIECBAgQIAAgTkEBNDnUHYOAp0L5A6gtxJcyf0wbiv97nw46x6BfwhEC54/WfoUQk9hdFtegbT6eVoF3ba9wNlr321/EEcgkFlAuKXul0idVO7c3+0zD62ih+st4CKAXnS4dHXwFMp79eVfDa++cr6rfo3tjHvW9HtWj9eX4+4BvfV1kxBu5DnSWwC9t/E89jqf9mv575sjB9BT7Xqbh1PGrX0JECBAgAABAgQIECBAgAABAgQIECBAgAABAgQIECBAgACBegQE0OuphZYQaFYgZ1ijhdXPV4XKvQr65599MqQHf20ECCwrED14flg/BdB/8btfC6JnHJL3Lr2Y8WixD3Vm59aQVkK3EahJIHK4JQW7Wt6+urM3pO/3UbeWw0lP1izyPIw6fqf0O/3M/f7lnbCh88NWkcO1m4SRk13Ov/+aMm5L7/vkPaDHsbHJfa5Hh7Fjqafga+Q6pnvea42/ZCW9+Dbq1ttLoqLWUb8JECBAgAABAgQIECBAgAABAgQIECBAgAABAgQIECBAgEDrAgLorVdQ+wlUIJDrAf+Wwucr9pyrvwugVzCYNSG8gPD50UPg7O9/M6Rftu0E0srnaQV0Wx4BAfQ8jo6STyByuCWfoiMtJdBT0CzXz6dL1cJ5ywgInj/tGvm+tWkAvdfVeJ+8B/R2Hd203pHniO8FZe5FjkpgqsAmL8+Yeg77EyBAgAABAgQIECBAgAABAgQIECBAgAABAgQIECBAgAABAgROEhBANz4IENhKIGcAu8UAes5V0K1qstVQ9GECWwk82Pt++Ou//WlIv9uOFkirob/08Qd4thB4sHtjeLh7c4sj+OhhgWcuvDOcvvAuFALVCPS6Kmo1wBpSVKCnn0V6C04WLXyAgwueH1/kyOHaTQPJSbPHa8zhe0CP42LTevdoMfay30sAvdeXRoyto/3aF+hlLrZfCT0gQIAAAQIECBAgQIAAAQIECBAgQIAAAQIECBAgQIAAAQJxBQTQ49ZezwlkEcgZQG91RY9cYaOeQh9ZBpeDEJhJwKrn46FTCP0Xv/v1kH63TRcQQJ9udtInTj13bkiroNsI1CLQYyCtFlvtmEegl4CLuTjPeKn5LELn46oTOVy7aSA5yeb6O6BxVZpvr9U9oMdxsenfN/ZoMXZE9fKdIHINx9bafnUL+PeCuuujdQQIECBAgAABAgQIECBAgAABAgQIECBAgAABAgQIECBAIIKAAHqEKusjgYICuR68bflhqlwGqUybPhRbsMQOTaBrAeHzzcp79ve/GdIv2zQBAfRpXuv2FkBfJ+TP5xQQbplT27lKCfQSNhNALzVC6j1u+vuEtL1/eWd49ZXz9Ta0spZFvndtE0DvdUXl1d/L9XYN3abWkeeI7wSVXbA1J7SAfy8IXX6dJ0CAAAECBAgQIECAAAECBAgQIECAAAECBAgQIECAAAECiwsIoC9eAg0g0LZArgdTr1zeGdJDoS1ut+98s78CVo7NA2U5FB2DwDgB4fNxTsftJYQ+3U8AfbrZuk+cvfbdul38OYFZBHJ9J56lsU5C4BiBll8KdrhL5mOMIb5a5Tz1Vuh8s5pHDtduE0pO2r1eZ5LL1Q+vbzagKv3UNkHqyHNkG7dahkLk+tVSA+3II9DDfMwj4SgECBAgQIAAAQIECBAgQIAAAQIECBAgQIAAAQIECBAgQIDAEgIC6EuoOyeBjgRyPXT7+WefDKtVy1rk4dBi1bQ5soDweZ7qC6FPcxRAn+Y1Zm8B9DFK9ikt0OtKqKXdHL9OgR4CLrl+NquzQnFbZZXz/LWPHM7cNoCeXkKYXkZoq19gmxc9Rp4jPXwfiFy/+memFk4R6OUlUVP6bF8CBAgQIECAAAECBAgQIECAAAECBAgQIECAAAECBAgQIECgHgEB9HpqoSUEmhTI9XD/Ng+E1gCX6+Hj1oP4NdRCGwisE/j27SvDg73v1+3mz0cKCKGPhBqGQQB9vNXYPQXQx0rZr6SAcEtJXceeW6CHgEuun1Hntne+tJL5r/YZXnvl/PDqywf/bXXzciMj8v1r2wC6l8+UG5c5j7xtnSPPkR4C6L4P5JxNjrW0QA9zcmlD5ydAgAABAgQIECBAgAABAgQIECBAgAABAgQIECBAgAABAgQ2ExBA38zNpwgQGIb91Z5S8DrHJoB+oHjl8s6QHpC1ESBQRkD4vIyrEPo41/vXLw6Pfrw7bmd7jRIQQB/FZKfCAsIthYEdfnaB1n82MydnHzInnnAVKj+8UwqYrzZB8+XqFTlcu20wOVXNtWa5sTv2zNsGNiPPkW3txtao1H6Ra1fK1HGXFWh9Ti6r5+wECBAgQIAAAQIECBAgQIAAAQIECBAgQIAAAQIECBAgQIDANgIC6Nvo+SyB4AK5Aug9rLKXawV0AfTgk0r3iwoInxflHYTQ1/sKoK83mrqHAPpUMfvnFhBuyS3qeDUItB5wiRwKTbVbcrNa+ZL6088d+R6WI4Ce6++BplfOJ8YKbPtClchzpPXvApFrN3Z+2K8tgR7+/aQtca0lQIAAAQIECBAgQIAAAQIECBAgQIAAAQIECBAgQIAAAQIEVgIC6MYCAQIbCwigP6a7+uH1IT3cuO0mgL6toM8TOFrg3kefDumXrayAEPrJvgLoecffqefODWd2buU9qKMRmCgg3DIRzO5NCLQecIkcQN82bNnEANXIbAKR72E5AuiOX+EuAAAgAElEQVS37+wNb77122z1cKC8AjlqHHmOtB5Aj/xdIO9McrSaBFqflzVZagsBAgQIECBAgAABAgQIECBAgAABAgQIECBAgAABAgQIECAwXkAAfbyVPQkQeEJAAP0xiAC66UGgXgHh83lrEymEnu6DX93Z2wdOAYd1mwD6OqFpfy6APs3L3mUEhFvKuDrq8gItB5kjz8uW67b8qI/Xgsjh2hzh5DRiIl9vap8xOYKakedIDr+lxkjkui1l7rzzCLT+kqh5lJyFAAECBAgQIECAAAECBAgQIECAAAECBAgQIECAAAECBAgQyC0ggJ5b1PEIBBIQQH9cbAH0QANfV5sSED5fplwvffzBcPr8C8ucvOBZV4Hz21/vDem/V9vYh4Af7N4YHu7eLNjCWIcWQI9V7xp7K9xSY1W0KZdAy8GzyIFQAfRcMyDGcSLfx3IF0N98619+9nNBjJHTRi9zXA8jzxHfA9oY51oZTyDHtS2emh4TIECAAAECBAgQIECAAAECBAgQIECAAAECBAgQIECAAAEC2wgIoG+j57MEggvkCqAnxtYfnsr10PGVyzujVtENPvR0n8AogQd73w/fvn1l1L52yi/QSwg9vWAkbSl8cNI25j726Me7Q1oF3ZZHQAA9j6OjbC6Q6/vf5i3wSQLlBMa+XKVcCzY/sgD65nY+GUsgcrg2VwD99p294c23fhtr4DTQ21z1jTxHWg2gm5MNTFBN3Eqg1bm5Vad9mAABAgQIECBAgAABAgQIECBAgAABAgQIECBAgAABAgQIEFhUQAB9UX4nJ9C2gAD64/rlCiAJoLc9J7S+LoEvn3+jrgYFa01aAT2F0FvbxgbOn+yXAPr8lX7mwjvD6Qvvzn9iZyTwXwKRQ64GQQyBVgMukefmmO8jMUavXo4RiByuzRVQTs65/j5oTM3sM04g1/0r8hzJZTiuYvn2ilyzfIqOVLNAyy+JqtlV2wgQIECAAAECBAgQIECAAAECBAgQIECAAAECBAgQIECAAIHjBQTQjQ4CBLYSyPVwf+sPyudy+PyzT4b0IJmNAIHtBNLK52kFdNuyAmd//5sh/ap5Sy9T+erO3nD7670h/fem29jr971LL256Cp97QkAA3ZBYUkC4ZUl9555LoNXwWa6fzeZyznme1n+uzmnhWOsFIt/LBNDXj49W98gZzow8R3wHaHUGaHcEAd/3IlRZHwkQIECAAAECBAgQIECAAAECBAgQIECAAAECBAgQIECAQD0CAuj11EJLCDQpkOvh/rHBvVqRONRaGe2KKHDvo0+H9MtWh0BtIfRV4DzppEBBrm3sfez+9YvDox/v5jpt6OOcvfZd6P7r/LICub77LdsLZydwskDOEN+c1pHnp0DSnCOt/XNFDtfmDKDfvrM3vPnWb9sfEJ30IGdtI8+RFgPokevVyfTVjZECLc7PkV2zGwECBAgQIECAAAECBAgQIECAAAECBAgQIECAAAECBAgQIFChgAB6hUXRJAItCbz51r9stWLsqq+thhtS+69+eD1biFFgoKXRr601CqRVz9Pq57a6BF7/4YtFG5Su02nLGTh/skNXLu8MKeywbhNAXyc0/s8F0Mdb2TOvgHBLXk9Hq1ugxYCLAHrdY0rr6hGIfD/LGVJOFc31d2P1jI52W5Lz79Uiz5EW7/+R69XujNXyTQRa/neUTfrrMwQIECBAgAABAgQIECBAgAABAgQIECBAgAABAgQIECBAgMCyAgLoy/o7O4HmBXI9ZNvyg1MC6M0PYx3oSCCFz1MI3VaXwNyroM8ROH9SeGwA/cHujeHh7s26CtRga5658M5w+sK7DbZck3sQEG7poYr6MFagxZ/TBNDHVtd+0QUi388E0Psc/bnvWZHnSIsB9Mj3/z5ntF6dJNDiHFVRAgQIECBAgAABAgQIECBAgAABAgQIECBAgAABAgQIECBAoE0BAfQ266bVBKoRuH3nm/2VnnJsn3/2yZAeFm1ty/WA49jwYms+2ktgLgGrn88lvdl5SobQ073oqzt7w+2v94b030ttY1bbe/Tj3SGtgm7bTkAAfTs/n95OINd3v+1a4dME5hHIHeabo9WR5+iY7yJz1MA52hCIHK7NHUC/fWdvePOt37ZR+I5bmbuukedIa+HWyLXqeErr2gkCrc1RxSRAgAABAgQIECBAgAABAgQIECBAgAABAgQIECBAgAABAgTaFRBAb7d2Wk6gCoGcAfQWww05Vz8XQK9iSGtEwwJfPv9Gw63vv+k5A+irwHlSSw+a17KNDX2lAHoKots2Fzizc2s49dy5zQ/gkwQ2FBBu2RDOx5oWaC3gIoDe9HDT+BkFIt/TcgeVU9nSyxmXfBnWjEOn2lON/XlsbAciz5HW7v3m39hRbb9eBFr8d5Re7PWDAAECBAgQIECAAAECBAgQIECAAAECBAgQIECAAAECBAhEExBAj1Zx/SVQQCDnA/65HxYt0N2fHTJnAL3VFeBLGzs+gTEC9z76dEi/bHULbBNCT9fbtNUUOH9Se+yLRATQtx+nZ699t/1BHIHABgKRg0gbcPlIJwKtBVxy/nzaWglb+3m6Nd/e2hv5nlYigB7Zs4a5UeJeFbmmrQXQI9/7a5h/2rCMQGvzdBklZyVAgAABAgQIECBAgAABAgQIECBAgAABAgQIECBAgAABAgS2FRBA31bQ5wkQyLrK09jwXg3sOcPnqT/CAjVUVRtaFHiw9/3w7dtXWmx6yDa//sMXo/q9WuX89td7zawkOPYellY/TyF022YCz1x4Zzh94d3NPuxTBLYUEG7ZEtDHmxVo6WeVyPO0pTo1Oxk6anjkcG2JAPrtO3vDm2/9tqMR0lZXStQ08hxpKdgauU5tzVKtzS1Q4sUbudvoeAQIECBAgAABAgQIECBAgAABAgQIECBAgAABAgQIECBAgED7AgLo7ddQDwgsLpA7iN3KSuA5gw0eGFt8GGtAwwIpfJ5C6LY2BKasgp7zOjuXztjgl1XQN6+I1c83t/PJ7QSEW7bz8+m2BVoKorX4/SHX6Bj7PSTX+RynbYHI97USYeU0Gt5861+aeXlW26P36daXuP5FniPu+73NEP3pVaDEta9XK/0iQIAAAQIECBAgQIAAAQIECBAgQIAAAQIECBAgQIAAAQIENhMQQN/MzacIEDgkkFapTQ/Z5tpaCGPnDt2PXTU3l7HjEOhFwOrnbVZy7Croua+1c2iNfYmKVdA3q4bVzzdz86k8AkJleRwdpU2BFn5GW8kKoLc5xrR6foHI4dpSAXSroM8/jtMZS9Uz8hxpJYBuzi0z55y1HoFW5mo9YlpCgAABAgQIECBAgAABAgQIECBAgAABAgQIECBAgAABAgQITBUQQJ8qZn8CBI4UyB3IGRvgW6IcuQP3qQ9WK1miks7Zg4DVz9us4thV0FsMoE95oci9Sy+2WcAFWy2AviC+Uw+RQ63KTyAJtBJwiTxX/Vxprk4RiByuLRVYFoadMgLz7VuqnpHnSCv3/Mg1yjeDHKllgZZeEtWys7YTIECAAAECBAgQIECAAAECBAgQIECAAAECBAgQIECAAIHIAgLokauv7wROEEgh66t/+OPw/uX3hvQg07qtRCi71hB67rD9lLDiujr4cwKRBKx+3na1x66C3mKIbGz46/71i0NaCd02TuDUc+eGMzu3xu1sLwKZBYRbMoM6XJMCrYTRWvzukGtAjP0Okut8jtO2QOR7W6nAchoRuf/OqO1RNk/rS137Is8R9/x5xq6zEMghUOoamKNtjkGAAAECBAgQIECAAAECBAgQIECAAAECBAgQIECAAAECBAi0LyCA3n4N9YBAdoHDD8tOWUUj94P+U86dHeGYA5ZYjVcAfa7qOU9vAvc++nRIv2xtClgFfdgPn6cQum2cgNXPxznZq4xA7u+5ZVrpqATKCtT489lRPY48XwWQys6B3o4eOVxbMoBuFfR5Z0rJWkaeIy0E0CPXZ95Z5my1C7QwX2s31D4CBAgQIECAAAECBAgQIECAAAECBAgQIECAAAECBAgQIEDgeAEBdKODAIF/CBwXrh77EHuJVZ5qCjksHT5Pvmkbuyq9oU2gd4Fv374ypFXQbW0KjA2g377zzf4qgi1tU14s8mD3xvBw92ZL3VusrWevfbfYuZ04toBwS+z66/3PBVoIuAigG7UExglEvr+VDC0LoI8bf7n2KlnLyHOkhft95Prkmj+O04dATf9+0oeoXhAgQIAAAQIECBAgQIAAAQIECBAgQIAAAQIECBAgQIAAAQKHBQTQjQcCBIZ1werPP/tkSA8yrdtKhQTTuZcOXZcI1yfPKSHFTVemX1c3f06gRYEUPE8BdFvbAq//8MWoDrQYJBv78pYEkFZBT6uh244XsPq50bGkgHDLkvrOXZtACwGXFr835KrzlO8fuc7pOO0KRL6/lQwtpxFR6u+Q2h1t5Vpe8roXeY60EECPfL8vN6McuVWBFuZsq7baTYAAAQIECBAgQIAAAQIECBAgQIAAAQIECBAgQIAAAQIEogsIoEcfAfofWiAFxq/+4Y9D+v2kbUrIoORDtlPC2rkKO9Zo0/ONfVD2uHD/Eiab9tXnCOQUsPp5Ts3ljjV2FfR1L0pZrgfHn3nK9TmFz1MI3Xa0gPC5kbG0gHDL0hVw/poEpvxsuFS7I8/ZsT9fLlUb561LIHK4tnQA3Sro84z10nWMPEdqD7NGrs08s8tZWhOofc625qm9BAgQIECAAAECBAgQIECAAAECBAgQIECAAAECBAgQIECAwGMBAXSjgUBAgU1C1WMfZC+1CvqqTFMCfduWtqa+nBTsr2GF+G2tfZ7AVIEvn39j6kfsX6HA6fMvDC99/MGolrUYJht770wAVkE/fhicvfbdqDFiJwIlBIRbSqg6ZusCtQdcWvzOkGtMTPnukeucjtOuQOR7XOngsgD6PPOidB0jz5Ha7/UlX4A6z+h1FgJ5BVp4SVTeHjsaAQIECBAgQIAAAQIECBAgQIAAAQIECBAgQIAAAQIECBAgMJeAAPpc0s5DoAKBTYLnq2ZPCX7PsVLtlPZMpd/Gacq5poQDxoQoBNGn6Nu3ZYEHe98PaQV0Wx8Cr//wxaiOtPKAeboWv/ry+eG1V84P6b/HblZBP1rK6udjR5D9SglEDh6VMnXc9gVqD7iM+dmp/Soc3YMpP2P2aqBf4wUi3+NKB5dTFVr5+WX8iKlvz9LXvMhzpPYAeuR7fX0zUYtqEah93tbipB0ECBAgQIAAAQIECBAgQIAAAQIECBAgQIAAAQIECBAgQIDANAEB9Gle9ibQpECuQPWUBzvnetA2ZxA9l9OYQTKl3VMD/VOOPaatve7z6Ke7+11Loc+0/edPf/5HV1f/35N9P/XcuX/8X//07C//8d/p/z/17OM/69Wsln6l8HkKodv6EDj7+98M6de6beq1cN3xcv35KnCejpeCLNtsD3ZvDA93b25ziK4+K3zeVTmb7YxwS7Ol0/DCAlN+NizclKcOH3ne1lyXuceB860XiByunSOAbhX09WNwmz3mqGHkOVJzkDVyXbaZMz7bv0DtL4nqvwJ6SIAAAQIECBAgQIAAAQIECBAgQIAAAQIECBAgQIAAAQIE+hQQQO+zrnpF4B8COQN7U4LNKcydQuhzbaltaZsa/luFztNn03/PsU1xTO3ZNEDx+WefTFp9d46+L3WOVdg8hTvTdlzAfNv2pSD6KpgulL6t5vGf//L5N8od3JFnFzh9/oXhpY8/WHvenPeztSdbs8Om95wx5xVCP1BK19AzO7fGkNmHQDEB4ZZitA7cgUDNwbRNf37qoCyDAHoPVZyvD5Hvc3OEl7f5+5z5RkG7Z5qjhpHniPt8u3NDy2ML+C4Yu/56T4AAAQIECBAgQIAAAQIECBAgQIAAAQIECBAgQIAAAQIESggIoJdQdUwCFQiUCOpNXUVjrlXQn+Q+vBrt6s9ee+X88NWdvf3/efvr//p9psD54fZNNdy2jul8719+L2QQPYXOU5CzVNh87DQ/feHd/V3TSr627QXSyudpBXRbXwKv//DF2g7N/WKTww1aBc7TvSRdV0tv969fXPzaVbqP646fwucphG4jsKTAUt9ll+yzcxMYKzD155qxx82xnwB6DkXHiCAQOVw7R3g5jSHfJcrNpDlClpHnSK0B9Mg1KTebHLkngVrnbk/G+kKAAAECBAgQIECAAAECBAgQIECAAAECBAgQIECAAAECBKIJCKBHq7j+di+wWtG71Grec63e3Wuhpq5Knis8ESWIXkvo/LjxK4y+/cxO4fMUQrf1JZBWQE8roa/bcl0T151n9SKTuQLnR7Uncgg9vbBjdb1cVyt/TqCkwFzXnJJ9cGwCJQVqDbhEnrtzBDJLjinHnlcgcpBzrgD67Tt7w5tv/XbewgY421z1izxHar3HR65JgKmtixkEan5JVIbuOQQBAgQIECBAgAABAgQIECBAgAABAgQIECBAgAABAgQIECCwgIAA+gLoTkmghEDp4PnhNk8JUS+5Ym0J522OOTW8v+3q50e1dWobtunvXJ+tPXR+nEMKV6bVfU89a4XfKWNFAH2KVjv7nv39b4b0a91WcgXB1SrnKcxQyxYxhC58Xsvo0w7hFmOAwHqBWsNpAujra2cPAkkg8r1urgBzco58TSo10+aqX+Q54h5favQ6LoHyAl5IVN7YGQgQIECAAAECBAgQIECAAAECBAgQIECAAAECBAgQIECAQCQBAfRI1dbXLgXmDJ6vAKeupFEiSN1aMacGv0sG93tZDb3V4PmTYzeF0P/p2V8OKXRpWy/w5fNvrN/JHs0JpNXP0yro67ac95MaA+dH9f/epRfXsXTz52d2bu2/mMNGoAYBYbEaqqANtQtM/blwrv5Enr8CR3ONsj7OEzlcO1eAOY2Uki/R6mMkTu/FXNe6yHOkxgB65HpMnyU+EVmgxvkbuR76ToAAAQIECBAgQIAAAQIECBAgQIAAAQIECBAgQIAAAQIEWhcQQG+9gtofVmCJ4Plh7CmroKfP5QwNtlb0TYIZczyg3GoQvZfg+VHjOK2KLoh+/Ax/sPf9kFZAt/Up8PoPX6zt2Db3klXg/LVXzg/p+tfK9ujHu0NaCb33Tfi89wq31T/hlrbqpbXLCtQYcBFAX3ZMOHs7ApHvd3MG0G/f2RvefOu37QyMyls6Z+0iz5Ea7++R61H5tNS8ygQ2+beIyrqgOQQIECBAgAABAgQIECBAgAABAgQIECBAgAABAgQIECBAgEBFAgLoFRVDUwiMEVg6eL5q4yYPMm0THBxjU+M+LTht0sYlrHsOnh/2TCH0tAmiPz3KBNCXmHnznXNMAD3dA9MLOsZs6dr26svnh9YC58f1LYXQUxi9x034vMeqtt0n4Za266f18wrU+LOEAPq8Y8DZ2hWIfL+bM8ScRkjk61LuGTJn7SLPkRoD6OZR7tnkeD0L1DiHe/bWNwIECBAgQIAAAQIECBAgQIAAAQIECBAgQIAAAQIECBAg0LOAAHrP1dW37gRqC3Cn1WTTg59Tttr6MKXtU/fdJIwxJVw5tT3r9t+knuuOmePPowTPn7SyGvrTo+feR58O6ZetT4Gzv//NkH6t20566Hy1yvnUe9O6c9by5w92bwwPd2/W0pyt23HquXPD6f/n3SH9biNQk4BwS03V0JbaBTb5mad0nyLP4b//7S+leR2/I4HI4do5Q8xpyKSXaKW/77FtLzDndS7yHKktvBq5FtvPGkeIKFDbHI5YA30mQIAAAQIECBAgQIAAAQIECBAgQIAAAQIECBAgQIAAAQK9CAig91JJ/ehaoObQ9iah5Zr7k2sgbeKSzr30Q8kpQPL+5feG9HsNWwpapsBl5E0Q/XH1v337ypBWQbf1KbBJAL33wPlRle4lhJ5C52nlcxuB2gSEW2qriPa0IFBbwEUAvYVRo401CES+580dQL99Z294863f1lD2ptswd90iz5Ha7u1L/31p0xNH40MK1PiSqJCF0GkCBAgQIECAAAECBAgQIECAAAECBAgQIECAAAECBAgQINCBgAB6B0XUhX4F0upIV//wx+pXSfr8s08mB5Z7DqFvGj6vyWTpIHrUVc+Pu5rtrxJ84d3h1LOxVwkWQO/3fpd6NjaAvlo5sJYXZSxVlVaD6FY9X2rEOO9YgchBo7FG9iPwpEBtARcBdGOUwDiByPe8uYPMqSKRr03jRuT6veauW+Q5UlsA3fxZPz/sQeBJgdrmsQoRIECAAAECBAgQIECAAAECBAgQIECAAAECBAgQIECAAAECbQoIoLdZN63uXKCV4PmqDJsGDmoKXOcaUj2Ezw9bbNqfbTyten68XvTV0L98/o1thpbPVi5w+vwLw0sff1B5K+tqXmsh9GcuvLP/Mg0bgZoFhFtqro621Szw97/9pZrmRZ7HNdWhmgGhIccKRA7Xzh1kTkWwgvP2k3Hua1zkOVJTcDVyHbafNY4QWWDTf7OJbKbvBAgQIECAAAECBAgQIECAAAECBAgQIECAAAECBAgQIECAwNMCAuhGBYGKBFoLnq/otg0p9xJE32Ql+GSY6p4eRK5527bGY/t2//rF4dGPd8fuHnK/yCF0AfS+h7wA+ub1rT2IbtXzzWvrk/MKCLfM6+1sfQnUFFQTQO9rbOlNOYHI970lAui37+wNb77123IF7fzIS9Qs8hxxX+98QuleGIG5X9wRBlZHCRAgQIAAAQIECBAgQIAAAQIECBAgQIAAAQIECBAgQIBAIAEB9EDF1tV6BVoNnudcRaPlEPq24exWVsFK9X7/8ntD+j339uinu0MKUAqfj5c9c+nWcOrZc+M/0MGeAugdFHFNF17/4Yv+O1mwh7UF0QXPCxbboYsItPKdrEjnHZTAlgI5fzbcsimDAPq2gj4fRSByuHaJMHMaV5GvT9vOqyUC0ZHnyBLeR42RyDXYds74PIEkUMtcVg0CBAgQIECAAAECBAgQIECAAAECBAgQIECAAAECBAgQIECgXQEB9HZr113LH+x9v9+nv/7bn9b27Zlf/vP+Pun3tGJqy1uLQZdSQeTWgvg5HVrqe85+p7mbwuf3r11seRov1vZIq6Gne8S3b19ZzNqJ5xEQQM/jvGQQfRU6Tz1J/20j0IqAVUlbqZR21ixQS8AlcsDTKpc1z5D62hY52LlUAL3FvwOsZeQucX2LPEdquadHrkEtc0872hao6SVRbUtqPQECBAgQIECAAAECBAgQIECAAAECBAgQIECAAAECBAgQiCsggB639ov2PAUJH/75P/Z/pW0VPt+0USmE3loovcUVv3MHj4+rdws226563nLfV23PYfBw9+b+yue2zQWihNAF0DcfIy19UgA9b7VW19d0rS29We28tLDjlxYQbhmG9F3/tVfOl6bu9vhf3dkb0kulIm+1hNUE0COPQn2fIhD53rdUAN0Lb6aM0Mf7LlWvyHPEPX2zsVriU2n82zYXSP/OEH1b4gUe0c31nwABAgQIECBAgAABAgQIECBAgAABAgQIECBAgAABAgQI9CQggN5TNSvvSwoPptXNtw2bj+3m2d//Zki/attSKCGteNTSNlfw/EmT1QNi6YHPWrY5LFpaDT3V5fPPPtkPLE3dhM+nih2/f4QQugB6vvFS85EE0MtWZxVIf/TT3eHRj3c3PtlqZfNTz54b/unZX1rpfGNJH6xJIHJgdVUHwYTtRqRQ4cFLDNLPBktvkeezebz06Gvr/JHDtUsFmtMIiXyN2nSGLBWGjjxHljI/PEYi+68clrxWbTpfa/tc+ncYL4n6X8OrXjRW29DUHgIECBAgQIAAAQIECBAgQIAAAQIECBAgQIAAAQIECBAg0IyAAHozpWq3oXMHz5+UWoXQlw6jtxYqTo5zhK3HjOxkl1YUXCqIvpRDK2Nmk6CJ8PmYkT9tn95D6ALo08ZDq3sLoM9buRRC/8+f/nziSVNYfRU0TzuuwufzttTZCJQVEG4ZBuGWPGNMqDC9nGr5gEvkOgig55nLUY4S+f635H1PGHL6DFvq2hZ5jtRwP4/sv5olS4396bO03k94SVQ9L4mqd5RoGQECBAgQIECAAAECBAgQIECAAAECBAgQIECAAAECBAgQIHCSgAC68VFEYOnQ+XGdWmJV9FZCxE+aXbm8sx9EqW1Lq6Lf/nqv+MolS4XOj/JOfV4qfD+m/lNXQBc+H6O62T49h9AF0DcbE619SgC9tYppL4E+BIRb6ggN9zCahArrCLgIoPcwm/RhDoHI978lA+jCkNNG95K1ijxHagigR76fp1myyQs/p82uGHu75h7UuYY5HWPE6SUBAgQIECBAgAABAgQIECBAgAABAgQIECBAgAABAgQIEOhPQAC9v5ou3qNv374ypKBgzdscQXTB8/IjYLUyeo5AenqoL22vvnx+eO2V8/sP+dW21RhEFz6vbZQMQ68hdAH0+sZaiRYJoJdQdUwCBNYJRA+3JB+rK64bJeP+XMCljrBU5DltLo+bq/Y6EIgcrl0y1JzsvbBk/CxcMjQZeY4s6R79+rSaHUtfp8bP0vr3dM0VQK9/lGohAQIECBAgQIAAAQIECBAgQIAAAQIECBAgQIAAAQIECBCoV0AAvd7aNNey1sKBp8+/MPzid78e0u85t1aD5z2sqrIKpB9XzxRUX23vX35v/z9rDJqfNB5rGl9Tx4yVz3NeaU4+Vo8h9NbuMfNVu68zCaD3VU+9IdCCQORg0T++F//rznDl8k4L5WqijZHDz6sCLR1ai1wDAfQmLhPVNDLyPXDpYKcw5PhpsOR1LfIcWfpebo54QdT4q8T6Pb0kqo6XRK2vlD0IECBAgAABAgQIECBAgAABAgQIECBAgAABAgQIECBAgACBGgUE0GusSoNtuvfRp0P61eKWczX0GleoXleTFCJOYezWgtjr+tX7n9cQRJ/yELDw+fwj8sylW8OpZ4Ocym0AACAASURBVM/Nf+JCZxRALwRb2WEF0CsriOYQCCAQOVi0Ku/SAaPehpnA1PIBFwH03maV/pQSiHwPXDqALgw5blQvXafIc2Tp74eR7+Vpdkx96ee4GRV3L9fcg9ovPa/jjkA9J0CAAAECBAgQIECAAAECBAgQIECAAAECBAgQIECAAAECbQsIoLddv8VbnwKBf/23Pw3p95a3bVdDFzxvufptt32psff5Z59MemnBvUsvtg3daOt7CqELoDc6CCc0O92LX/r4gwmfsCsBAgS2F4gebkmCU14qtL14/0cQcDmo8ZLjKvK8XtK9/9ndXw8jh2uXDjan0eSFJevn1NLXtMhzZMmgamT31ayo4Rq1foa2tYdrrhcbtDVitZYAAQIECBAgQIAAAQIECBAgQIAAAQIECBAgQIAAAQIECNQjIIBeTy2aa0nLq54fh73paugtPcBkxfPmptraBs+9GvqVyztDehBy7Hb/+sXh0Y93x+5uv4wCp547N5zZuZXxiMse6svn31i2Ac5eVEAAvSivgxMgcISAcMuw/50ufbez5RWIHIBeSS4ZXIvsv3RYM+9McrTSApHvgzXc/1r6u8TSY/Go49ewAnTkOeI+vsSof3xO9/P8/l4SJYCef1Q5IgECBAgQIECAAAECBAgQIECAAAECBAgQIECAAAECBAgQiCEggB6jztl7+e3bV5pf9fw4lE1C6CkAnB4crXkTPK+5OnnaNkcQfeoDwA93bw4Pdm/k6aCjbCTQUwhdAH2jIdDMhwTQmymVhhLoRkDwSwC91GA2tpYNuAiglxrZjtubQORwbQ0BdGHIk2dUDTWKPEeWCqBHNl/NiKl/99rbvalUf1xzD2SXmtul6uq4BAgQIECAAAECBAgQIECAAAECBAgQIECAAAECBAgQIECAQHkBAfTyxt2doefw+apYvYXQp65Y3d2gDdahki9E+PyzT4b0IOSYTfh8jNI8+5y+8O7wzIV35jnZBmdJY3bMuIpw/9mAr5uPCKB3U0odIdCEgADCQZmsrlhmuBpfB65LBVwE0MuMa0ftTyBy0LOGcHMaUV5Ycvy8quE7SuQ5stQ9PLL5ajbUcn3q767nmptq6gUHPY5sfSJAgAABAgQIECBAgAABAgQIECBAgAABAgQIECBAgAABAmUFBNDL+nZ39Ejhv01C6Fc/vD6kB+Vq2QTPa6nEMu3IPR6nPqB279KLy3TcWY8UOHPp1nDq2XNV6KSxmbbbX+8NKXw+9loV6R5URaFmbsQm992Zm+h0BAh0JCDcYvXz0sM5cgh6ZbtUeC2yfQ2BzdJzy/HzCUS+F9YS8BRAP3o8T/37p3yz4udHijxH3MNLjar1x3UvX2+06R5eEnUgZ4xtOoJ8jgABAgQIECBAgAABAgQIECBAgAABAgQIECBAgAABAgQIxBQQQI9Z9416HTH4t0kYroaHR2t5UHOjgeZDWQVSuPfqH/64H/LddrP6+baCy37+1HPnhjM7txZpRBp/X93Z+0fg/MlGjL1m3fvo0yH9svUp8NLHHwxpFXQbAQIE5hCIHFBd+dYSvpuj3kuco4afC5fo9+Fzjv2Ol7udkee3QFHu0dT38SKHa2u5BwpDHj3HaqlP5DmyRAA9svdqJiz13anvu93j3rnmHlgsMb+jjDH9JECAAAECBAgQIECAAAECBAgQIECAAAECBAgQIECAAAECPQoIoPdY1QJ9ihg+XzFODaGnoGUKGyyxpYfU3r/83pB+txE4LLBtEH3KA5APd28OD3ZvKECFAqcvvDs8c+GdWVq2WuU8PUA8ZhsTlhFAHyPZ7j4C6O3WTssJtCYg3HJQsTH33tZqW1N7BVwOqrFEwEUAvaaZoC01C0S+H9YScE7jwwtLnp4ltXxHiTxHlrh/R/ZezYKark0137+2aZtr7rD/b0fpRbM2AgQIECBAgAABAgQIECBAgAABAgQIECBAgAABAgQIECBAgMAYAQH0MUrB94kcPl+VfmoIfe4HmQTPg0/SCd1PoeCxgeDDh52y+vm9Sy9OaJFd5xY4e+27IqecGjh/shFjxtiDve+HdE+y9Snw+g9f9NkxvSJAoDoB4ZZhEG6ZZ1hGDkKvhJcIuER2ryW0Oc8Mc5ZtBSLfD2u6D3phyc9H8hL3jePmUuQ5skQAPfL9ezUG3ce3vbOt/7xr7oHREnN8fXXsQYAAAQIECBAgQIAAAQIECBAgQIAAAQIECBAgQIAAAQIECNQoIIBeY1UqapPVZh8XY+rKrHM8NCd4XtFkaawpU16SMOXhX6uf1z8QTj13bjizc2vrht6+883w1Z294fbXe0P67223K5d39sNw67Yvn39j3S7+vEGB0+dfGNJ91kaAAIE5BOb4nj5HP7Y5R03Bu236Uftnp3znrr0vm7Zvys8Sm57jyc9FnuOCa7lGUYzjRA7X1nQfFIb8+XyrqTaR58jc4dTI1qsZsMR3phh3u5/30jX3wGPuOR5xrOkzAQIECBAgQIAAAQIECBAgQIAAAQIECBAgQIAAAQIECBDoRUAAvZdKFuiH8PnTqFNWZ910pekxpRQ8H6Nkn3UCKTR89Q9/XBseHrMy9epcVj9fp17Hn5+5dGs49ey5SY1ZBc7Th9KDwbm3sQH0tAJ6Wgnd1peAAHpf9dQbAjULCLccVEdIdZ5RKuBy4Dx3wEUAfZ7x7SztC0S+J9YUck4jyQtLHs+nmr6jRJ4jc9+7zYFh/6WM6e/GbOUFjLdh8MKD8uPMGQgQIECAAAECBAgQIECAAAECBAgQIECAAAECBAgQIECAQC8CAui9VLJAP6wy+zTq1IBciYeZxoY0CwwJh+xU4KQg+pSH0ax+3s4AmbIKehof6VpWehs71rwcpXQlljl+Wv083WNtBAgQKC0QOUi0shVuKT3Kfn78yGHolcTY73m5KhPZvKbgZq56Ok45gcj3xNruhV5YcjDOa6tL5DkyZwDd+D8Y/3Oal7uztHHkEv9m00bPf95KY67FqmkzAQIECBAgQIAAAQIECBAgQIAAAQIECBAgQIAAAQIECBCYX0AAfX7zJs4o4Hd8maaE5HIGNwXPm5g6TTfy6ofXn1rZ2urnTZf0xMaPXQX9qHFRSmVMYMb9qZT+ssd9/Ycvlm2AsxMgEEYgcjB1VeTawl29Dz4Bl4MKj/mel2ssRJ7nczrnqpfjLCcQOVxb271QAPdgHtRWl8hzZM5gamTnw3cA9/D57oeuuQfWc78kar4KOxMBAgQIECBAgAABAgQIECBAgAABAgQIECBAgAABAgQIECCQU0AAPadmJ8d6sPf98O3bVzrpTZluTAnKbfvwuweBytTQUY8WOLwa+pSxZ/Xz9kbUlFXQt72OjdUZ+7Dtl8+/MfaQ9mtAIK18nl7uYiNAgEBpAeGWA+Gx99vS9YhyfAGXg0rPGWSb67trjWPY/K6xKvW2KfJ9sbagcxolXlhS33eUyHPEfXvea3eN16R5BeY/m2uuAPr8o84ZCRAgQIAAAQIECBAgQIAAAQIECBAgQIAAAQIECBAgQIBAmwIC6G3WrWirU/g8hdBtxwtMCcttunpwCv++f/m9/ZUobATmFkhB9LSNHX/3Lr04dxOdL4NAbaugf/7ZJ6PGnFXQMxS/okOc/f1vhvTLRoAAgdICkUOpK1vhltKj7OjjG3vzBlwiewugLzPHWz1r5HBtjffD6C8sqbEmkefIXAH0yMaH7x1zebd6vyrRbgH0A1Vjr8TockwCBAgQIECAAAECBAgQIECAAAECBAgQIECAAAECBAgQINCXgAB6X/XcujdCfeMJ02qtKYg+ZpvyALzg+RhR+9QkYPXzmqoxrS1jV0FPLyRID2aW3q5c3hnSQ+frNveqdUJt/fmU+2lbPdNaAgRqEoge6lrVosZwV03jpFRbBFwOZOcKR0/5+btUzZc67lzGS/XPefMKRA5+1ng/jP5dpcaaRJ4jc4VSIxsfvqK7f+e9v405WvRr7soo/VtUeiGojQABAgQIECBAgAABAgQIECBAgAABAgQIECBAgAABAgQIECBwnIAAurHxM4Evn3+DyEiBKaugjwkcCJ6PhLdbdQJWP6+uJJMadPbad6P2nyvIM/ahW/erUWWrfqcp99LqO6OBBAhULSDcclCesffZqovZYOMEXA6KNleYba7vrTUORXO8xqrU26bI98Yaw85ppIz5+8N6R9R2Lavx+hV5jrhnbzeep3y61uvRlD60um/ka+7hmtV4/W11TGk3AQIECBAgQIAAAQIECBAgQIAAAQIECBAgQIAAAQIECBDoUUAAvceqbtgnK8pOhxu7autJqwcLnk9394l6BKx+Xk8tNm3J6QvvDs9ceGftx69+eH1ID1+X3tKqO+m6uG779u0rw4O979ft5s8rFxBAr7xAmkegI4HIgdRVGYVblhvQAugH9nOtsBh5vgsQLTfPWzxz5HBtrffEqPeLWusReY7MEUCP7Hv4njGHdYv3qDnaLIB+oGwMzjHanIMAAQIECBAgQIAAAQIECBAgQIAAAQIECBAgQIAAAQIECLQrIIDebu2yt1yYbzrplODcUQ80Xbm8M6SHLG0EWhW4f/3i8OjHu602X7uHYTj13LnhzM6tURZzhHnGXhe9NGVUyarfaeyLXKrviAYSIFC1gHDLQXlqDXdVPXgyNk7A5QBzjoDLHN9ZMw6NrIcSQM/K2f3BIt8fa74nRryG1VqPyHNkjvt1ZN/DNxj37uVut1Ff+vGk+FwviVqu0s5MgAABAgQIECBAgAABAgQIECBAgAABAgQIECBAgAABAgQIbCMggL6NXkefTavIpgC6bbrA6z98MepDhwMHYwOWow5sJwILCty79OKCZ3fqXAJnLt0aTj17bu3h5gpOjX349svn31jbZjvUKzDlJS719kLLCBBoQUC45aBKY++vLdS0xTYKuBxUbY6AS8Tw5mpOmOctXh2Wa3Pk+2Otgec0Gub6uXu5kff0mWu9dkWeI3ME0CPfr1ezoOZrUU3XiJJtiXjNPcpzjjlfso6OTYAAAQIECBAgQIAAAQIECBAgQIAAAQIECBAgQIAAAQIECJQTEEAvZ9vUka0ku3m5xq7eevvON8PVP/xxeP/ye/sP3dsItC7wcPfm8GD3Ruvd0P4Jq6Bf/fD6kB7ALr2NfUmHe1fpSpQ9/tj7Z9lWODoBAhEEhFusfl7DOBdAP6iCAHrZ0VhriLNsrx19U4HI4dqaQ5/R7hc11yLyHCkdRo1se/iaXdp50/tDpM8JoB9U21iMNOr1lQABAgQIECBAgAABAgQIECBAgAABAgQIECBAgAABAgQITBMQQJ/m1e3eVpHdvLRWcN3czifbFrh//eLw6Me7bXdC6/cFTj13bjizc2uUxhwhvrEB9NRg969RZatyp9d/+KLKdmkUAQJ9CQi3HNSz5nBXXyPu5N4IuBz4lA64zPF9tdZxK4Bea2XqbFfke2Tt98VI17GaaxF5jpS+V/tOdHBfcN9e/v4Y7aUfx4nP8ZKo5autBQQIECBAgAABAgQIECBAgAABAgQIECBAgAABAgQIECBAgMAmAgLom6h19hkryG5fUKu4bm/oCO0J3Lv0YnuN1uJjBc5cujWcevbcWqG5HoQf+xCue9jaklW5w9nf/2ZIv2wECBAoLRA5OHTYdux9tXQ9oh9fwOVgBJQOuMz1fbXG8Wyu11iVetsU+R5Zc+g5jZhI4dyar1uR50jJALrvQwf3hdqvQ/XevfK3LNI19yS9kvM+f9UckQABAgQIECBAgAABAgQIECBAgAABAgQIECBAgAABAgQIEJhLQAB9LumKz/Pt21eGB3vfV9zC+ptmFfT6a6SFeQUe7t4cHuzeyHtQR1tU4PSFd4dnLryztg1zPZQ5dhV0AfS1JatyB6ufV1kWjSLQpUDkIOqqoMIt9QxtgavHtSgZOIw870u61jOTtCSXQORwbe33xij3i9rrEHmOlAyiRnY9fP0uaZzrPhHlOHP9XWftnqVfElV7/7WPAAECBAgQIECAAAECBAgQIECAAAECBAgQIECAAAECBAgQOFpAAN3IGL58/g0KWwoIoG8J6OPNCQigN1eytQ0+9dy54czOrbX7Xf3w+pAeFi69jQ2gp3YIoZeuRt7jW/08r6ejESBwvIBwy4FN7eGuaGNYwOWg4iVDVwLo0WaV/m4qEPk+2cK9McK1rPY6RJ4j7tObXlnHf85LY8Zbld4zyks/1jkKoK8T8ucECBAgQIAAAQIECBAgQIAAAQIECBAgQIAAAQIECBAgQCCmgAB6zLr/o9dp5fO0ArptewGruW5v6AjtCNy79GI7jdXS0QJnr323dl8B9LVEdlgj4H5piBAgMJdAhODWGEvhljFK8+0j4HJgXTLgEnnum+/zzeUezhQ5XFt78DmNrwgvLKn9mhV5jpQKoEc2PXzfaOEa1MN9bkofIlxzx3iUmvtjzm0fAgQIECBAgAABAgQIECBAgAABAgQIECBAgAABAgQIECBAoE4BAfQ66zJbq6wam4/6pY8/GNJK6DYCvQs8+unucP/axd67GbJ/Zy7dGk49e25t30uEelII6dWXzw+vvXJ+P5A0dXM/myq2zP5WP1/G3VkJRBQQ8j2ounBLfaPf2Hxck1LBwxLfVesbSUe3qJRpK/3XzmkCkYOgLdwfe79ftFCDyHOkVAg1sunhK3Qp32l3AXsfFhBAP9Ao+ZIoI44AAQIECBAgQIAAAQIECBAgQIAAAQIECBAgQIAAAQIECBBoU0AAvc26ZWu1wF42ykGoLp+lI9Ut8HD35vBg90bdjdS6jQTmDKBvGzg/qoNfPv/GRv32oXkE0kta0stabAQIEJhDQLjlQLmFcNcc46G2cwi4HFSkVPhKAL22Ea89tQpEvle2cn/s+XrWQg0izxH36LJXbi+MKeu7ydF7f+nHFBPjc4qWfQkQIECAAAECBAgQIECAAAECBAgQIECAAAECBAgQIECAQP8CAuj91/jEHn779pXhwd73wRXydF+wLo+jo9QvIIBef402beGp584NZ3Zurf34pqGpK5d39o+dHjQvsXmpSgnVfMdM4fN0r7QRIEBgDoGeA1tT/IQHpmjNt6+Ay4F1qRUWI89/c36+edzDmSKHa1sIP6cxtunP3i2MzxauV5HnSIkAemTPw3OyletPC9eR3G3s+Zo7xarE/J9yfvsSIECAAAECBAgQIECAAAECBAgQIECAAAECBAgQIECAAAECdQkIoNdVj9lbY7XYfOQC6PksHalugfvXLw6PfrxbdyO1biOBsQH0qx9eH9KDw+u20oHzo87vvrauKsv8uXvkMu7OSiCqgHDLQeWFW+qdAQLoj2tTIuAigF7v2NeyugQi3y9buUf2er9oxT/yHClxf47sefjqX8K2rrtLu60RQD+oXamXRLU7MrScAAECBAgQIECAAAECBAgQIECAAAECBAgQIECAAAECBAjEFhBAD1z//3vv/wz//ub/DCyQv+uv//BF/oM6IoHKBO5derGyFmlOToGz175be7jjAujpAcVXXz4/vPbK+f2HFZfYrIK+hPr6c7o/rjeyBwEC+QSEWw4sWwl35at8W0cScDmoV4mAiwB6W3NBa5cTiHy/bOke2eM1rZUAbuQ5UqJGPY7lTa7gf//bXzb5mM/MINDrSz82oStxDdikHT5DgAABAgQIECBAgAABAgQIECBAgAABAgQIECBAgAABAgQILC8ggL58DRZrwf/35b8P37/3/y52/h5P/NLHHwxplVcbgZ4FBNB7ru4wnLl0azj17LkTO3n7zjdDCk2lbYlVztdVQAh9ndC8f+7eOK+3sxEgMAwpLGR7fI9mUadACrjc/vqbOhs3Y6tefflXw6uvnM96xsjXgNV386ygDtatQOTrUIlrT6mB0uM1rZVrVeQ5krtGkS0PXxtauvaUuqbVftwer7mbmOe+BmzSBp8hQIAAAQIECBAgQIAAAQIECBAgQIAAAQIECBAgQIAAAQIE6hAQQK+jDou0QgA9P7uQXX5TR6xL4NFPd4f71y7W1SitySowJoCe9YSFDvbt21eGB3vfFzq6w44VSC9lSfdGGwECBAgQIECAAAECBAgQIECAAAECBAgQIECAAAECBAgQIECAAAECBAgQIECAAAECBAgQIECAAAEC7QgIoLdTq+wtFUDPTrofsrMCen5XR6xHQAC9nlqUakkvAfQUPk8hdNtyAsLny9k7MwECBAgQIECAAAECBAgQIECAAAECBAgQIECAAAECBAgQIECAAAECBAgQIECAAAECBAgQIECAAIFtBATQt9Fr/LMC6PkLKICe39QR6xJ4uHtzeLB7o65GaU1WgdMX3h2eufBO1mMudbB7H306pF+2ZQTcE5dxd1YCBAgQIECAAAECBAgQIECAAAECBAgQIECAAAECBAgQIECAAAECBAgQIECAAAECBAgQIECAAAEC2woIoG8r2PDnBdDzF0/YLr+pI9YlIIBeVz1KtKanAHryEUIvMUrWH9P9cL2RPQgQIECAAAECBAgQIECAAAECBAgQIECAAAECBAgQIECAAAECBAgQIECAAAECBAgQIECAAAECBAjUKiCAXmtlZmiXAHp+ZIG7/KaOWJeAAHpd9SjRmlPPnRvO7NwqcejFjimEPi/92d//Zki/bAQIECBAgAABAgQIECBAgAABAgQIECBAgAABAgQIECBAgAABAgQIECBAgAABAgQIECBAgAABAgQItCkggN5m3bK0WgA9C+PPDiKAnt/UEesSuH/94vDox7t1NUprsgr0GEBPQN++fWV4sPd9VisHe1pA+NyoIECAAAECBAgQIECAAAECBAgQIECAAAECBAgQIECAAAECBAgQIECAAAECBAgQIECAAAECBAgQINC+gAB6+zXcuAcC6BvTHftBAfT8po5Yl4AAel31KNGaXgPoyUoIvcSIeXxM4fOyvo5OgAABAgQIECBAgAABAgQIECBAgAABAgQIECBAgAABAgQIECBAgAABAgQIECBAgAABAgQIECBAYC4BAfS5pCs8jwB6/qIIoOc3dcS6BATQ66pHidb0HEBPXkLoJUbNMAifl3F1VAIECBAgQIAAAQIECBAgQIAAAQIECBAgQIAAAQIECBAgQIAAAQIECBAgQIAAAQIECBAgQIAAAQJLCAigL6FeyTn/773/M/z7m/+zktb00YzXf/iij47oBYFjBATQ+x8avQfQUwWF0POO49PnXxjSC1hsBAgQIECAAAECBAgQIECAAAECBAgQIECAAAECBAgQIECAAAECBAgQIECAAAECBAgQIECAAAECBAj0ISCA3kcdN+7Fl8+/sfFnffBpAQF0o6J3AQH03is8DBEC6KmKQuh5xrKVz/M4OgoBAgQIECBAgAABAgQIECBAgAABAgQIECBAgAABAgQIECBAgAABAgQIECBAgAABAgQIECBAgACBmgQE0GuqxgJtEcDLh24F2HyWjlSvwMPdm8OD3Rv1NlDLthY4feHd4ZkL72x9nBYO4B64XZWEz7fz82kCBAgQIECAAAECBAgQIECAAAECBAgQIECAAAECBAgQIECAAAECBAgQIECAAAECBAgQIECAAAECtQoIoNdamZnaJXyXD1oQL5+lI9UrIIBeb21ytSxSAD2Z3fvo0/1ftmkC7nnTvOxNgAABAgQIECBAgAABAgQIECBAgAABAgQIECBAgAABAgQIECBAgAABAgQIECBAgAABAgQIECBAoCUBAfSWqlWgrYJ3+VCF8fJZOlK9AgLo9dYmV8uiBdCTm3vhtNHjfjfNy94ECBAgQIAAAQIECBAgQIAAAQIECBAgQIAAAQIECBAgQIAAAQIECBAgQIAAAQIECBAgQIAAAQIEWhMQQG+tYpnb+2Dv+yGtgm7bXuD1H77Y/iCOQKBygUc/3R3uX7tYeSs1bxuBiAH05JXuh3/9tz/t/247WuD0+ReGX/zu10P63UaAAAECBAgQIECAAAECBAgQIECAAAECBAgQIECAAAECBAgQIECAAAECBAgQIECAAAECBAgQIECAQL8CAuj91nZ0z758/o3R+9rxeAEBdKMjgoAAev9VPnPp1nDq2XP9d/SYHqaXsgihP41j1fOwU0LHCRAgQIAAAQIECBAgQIAAAQIECBAgQIAAAQIECBAgQIAAAQIECBAgQIAAAQIECBAgQIAAAQIEAgoIoAcs+pNdFrbbfhCk1WBf+viD7Q/kCAQqFxBAr7xAGZoXPYCeCFMAPd0bbQcCwudGAgECBAgQIECAAAECBAgQIECAAAECBAgQIECAAAECBAgQIECAAAECBAgQIECAAAECBAgQIECAAIFYAgLosep9ZG8F0LcfBMJ52xs6QjsC9y692E5jtXSywNlr303+TK8fiH5/dG/rdWTrFwECBAgQIECAAAECBAgQIECAAAECBAgQIECAAAECBAgQIECAAAECBAgQIECAAAECBAgQIECAAIGTBQTQjRArvWYYA6//8EWGozgEgTYEBNDbqNOmrRRA/7lcWg39r//2p/17ZZRN8DxKpfWTAAECBAgQIECAAAECBAgQIECAAAECBAgQIECAAAECBAgQIECAAAECBAgQIECAAAECBAgQIECAwNECAuhGxr5A9FVetxkGgnrb6PlsiwL3r18cHv14t8Wma/MagVPPnRvO7NzidIRAlCC6e5rhT4AAAQIECBAgQIAAAQIECBAgQIAAAQIECBAgQIAAAQIECBAgQIAAAQIECBAgQIAAAQIECBAgQICAALoxsC+QgnUphG6bLvDSxx8Mp8+/MP2DPkGgUYGHuzeHB7s3Gm29Zp8kcPrCu8MzF96BdIJAr0F0wXPDngABAgQIECBAgAABAgQIECBAgAABAgQIECBAgAABAgQIECBAgAABAgQIECBAgAABAgQIECBAgACBlYAAurHwDwGroE8fDAJ70818on2BRz/dHe5fu9h+R/Tg0Rsu3QAAIABJREFUKQEB9PGDoocgerqHpW31+/je25MAAQIECBAgQIAAAQIECBAgQIAAAQIECBAgQIAAAQIECBAgQIAAAQIECBAgQIAAAQIECBAgQIAAgZ4FBNB7ru7Evt376NMh/bKNFxBAH29lz74E7l16sa8O6c2+wNlr35GYKNBiEN29a2KR7U6AAAECBAgQIECAAAECBAgQIECAAAECBAgQIECAAAECBAgQIECAAAECBAgQIECAAAECBAgQIEAgmIAAerCCr+vul8+/sW4Xf35I4PUfvuBBIKTA/esXh0c/3g3Z9547LYC+XXVrDqNb7Xy72vo0AQIECBAgQIAAAQIECBAgQIAAAQIECBAgQIAAAQIECBAgQIAAAQIECBAgQIAAAQIECBAgQIAAgUgCAuiRqj2ir9++fWVIATrbegEryK43ske/AgLo/dX29IV3h2cuvNNfxxbq0SqMnk6/1H1V6Hyh4jstAQIECBAgQIAAAQIECBAgQIAAAQIECBAgQIAAAQIECBAgQIAAAQIECBAgQIAAAQIECBAgQIAAgcYFBNAbL2Du5qeQXAqh29YLWP18vZE9+hV49NPd4f61i/12MGDPBNDLFX0VQP/rv/1p/yQlAumnz78wPPPLf94//ip4Xq5HjkyAAAECBAgQIECAAAECBAgQIECAAAECBAgQIECAAAECBAgQIECAAAECBAgQIECAAAECBAgQIECAQM8CAug9V3fDvt376NMh/bIdL2D1c6ODwDDcu/Qiho4Ezl77rqPe1N+VwyH0h3/+j/0Gr34/rvWrgHn689V/p+C5jQABAgQIECBAgAABAgQIECBAgAABAgQIECBAgAABAgQIECBAgAABAgQIECBAgAABAgQIECBAgAABAjkFBNBzanZ0rLQKeokVWnsgEj7voYr6kEPg/vWLw6Mf7+Y4lGMsLGD184UL4PQECBAgQIAAAQIECBAgQIAAAQIECBAgQIAAAQIECBAgQIAAAQIECBAgQIAAAQIECBAgQIAAAQIECBCoSEAAvaJi1NaUL59/o7YmVdGe13/4oop2aASBpQUe/XR3uH/t4tLNcP4MAgLoGRAdggABAgQIECBAgAABAgQIECBAgAABAgQIECBAgAABAgQIECBAgAABAgQIECBAgAABAgQIECBAgAABAp0ICKB3UsgS3UgroKeV0G2PBax+bjQQ+LnAvUsvIulA4Oy17zrohS4QIECAAAECBAgQIECAAAECBAgQIECAAAECBAgQIECAAAECBAgQIECAAAECBAgQIECAAAECBAgQIECAQA4BAfQcih0fIwXQUxDdNgzC50YBgacF7l+/ODz68S6ahgWsft5w8TI2/fadb4av7uwN7//rTsajOhQBAgQIECBAgAABAgQIECBAgAABAgQIECBAgAABAgQIECBAgAABAgQIECBAgAABAgQIECBAgAABAi0KCKC3WLWZ2/zl82/MfMb6Tnf6/AvDSx9/UF/DtIjAwgKPfro73L92ceFWOP02AgLo2+i1/dkUOk/b1T/8cVj999//9pe2O6X1BAgQIECAAAECBAgQIECAAAECBAgQIECAAAECBAgQIECAAAECBAgQIECAAAECBAgQIECAAAECBAhsLSCAvjVh/wdIK6CnldCjbsLnUSuv32MFrII+VqrO/c5e+67OhmlVMYEUNj8cOj98os8/+2R49ZVfFTu3AxMgQIAAAQIECBAgQIAAAQIECBAgQIAAAQIECBAgQIAAAQIECBAgQIAAAQIECBAgQIAAAQIECBAgUL+AAHr9NaqihVFD6MLnVQw/jahcwCrolRfohOZZ/bzd2k1t+Umh88PHunJ5Z3j/X3emHt7+BAgQIECAAAECBAgQIECAAAECBAgQIECAAAECBAgQIECAAAECBAgQIECAAAECBAgQIECAAAECBAh0JCCA3lExS3clWghd+Lz0iHL8ngTuXXqxp+6E6YvVz/ssdQqbpy2tcp621f8e09u0+nlaBd1GgAABAgQIECBAgAABAgQIECBAgAABAgQIECBAgAABAgQIECBAgAABAgQIECBAgAABAgQIECBAgEBcAQH0uLXfqOdRQujC5xsNDx8KLPBw9+bwYPdGYIH2um718/Zq9mSLV8Hyr+7sDbe/3tv/4ylh8+ME/v63v7SPowcECBAgQIAAAQIECBAgQIAAAQIECBAgQIAAAQIECBAgQIAAAQIECBAgQIAAAQIECBAgQIAAAQIECGwsIIC+MV3cD/YeQhc+jzu29Xw7Aaugb+c396etfj63eP7z/bf//j/yH3QY9ldATyuh2wgQIECAAAECBAgQIECAAAECBAgQIECAAAECBAgQIECAAAECBAgQIECAAAECBAgQIECAAAECBAgQiCkggB6z7lv3utcQuvD51kPDAQILPPrp7nD/2sXAAu103ern7dTqpJa++da/ZFnx/MlzpPB5CqHbCBAgQIAAAQIECBAgQIAAAQIECBAgQIAAAQIECBAgQIAAAQIECBAgQIAAAQIECBAgQIAAAQIECBCIKSCAHrPu2Xp976NPh/Srh+3s738zpF82AgQ2F7h//eLw6Me7mx/AJ2cRsPr5LMzFTyKAXpzYCQgQIECAAAECBAgQIECAAAECBAgQIECAAAECBAgQIECAAAECBAgQIECAAAECBAgQIECAAAECBAiEFBBAD1n2vJ1uPYSeVj3/xe9+PaTfbQQIbCdgFfTt/Ob4tNXP51Ce5xy373wzpBB6ie3vf/tLicM6JgECBAgQIECAAAECBAgQIECAAAECBAgQIECAAAECBAgQIECAAAECBAgQIECAAAECBAgQIECAAAECDQgIoDdQpFaa2GIQ3arnrYwu7WxJwCro9VZL+Lze2mzasv/23//Hph898XOff/bJ8OorvypybAclQIAAAQIECBAgQIAAAQIECBAgQIAAAQIECBAgQIAAAQIECBAgQIAAAQIECBAgQIAAAQIECBAgQKBuAQH0uuvTXOtSCP3hn/9jeLD3fdVtt+p51eXRuMYFrIJebwHPXvuu3sZp2UYCaQX0tBJ67i2Fz1MI3UaAAAECBAgQIECAAAECBAgQIECAAAECBAgQIECAAAECBAgQIECAAAECBAgQIECAAAECBAgQIECAQDwBAfR4NZ+lx7Wuhi54Pkv5nYTA8HD35vBg9waJigSsfl5RMTI25eqH14cP/nA94xEPDiWAnp3UAQkQIECAwP/P3vuE3pZdd363IR3Ug6SqAzVwRmqwi9BECQ0uiVZJk84kjiYaZKQgCHiQWPEzGLqKKkNDSAYlXDOVIvfEJCBakBCCaFA0CQnBVQ76A0lbEEjZ0CIQHChoq0YtMmiH/V4fv/Puu/ee/Wet715rn88FU7Z/++yz92d915+zz13vQgACEIAABCAAAQhAAAIQgAAEIAABCEAAAhCAAAQgAAEIQAACEIAABCAAAQhAAAIQgAAEIAABCEAAAhCAQBoCNKCnMVXOhZZG9PLZ/jtrFzSezyLPfc9M4M8/+M3LL//0p2dGEGbvNJ+HMYX5Qsqvn5dfQff4lF9AL43ofCAAAQhAAAIQgAAEIAABCEAAAhCAAAQgAAEIQAACEIAABCAAAQhAAAIQgAAEIAABCEAAAhCAAAQgAAEIQAACEIAABCAAgXMRoAH9XPaeulv1r6LTdD7V3NwcAk8J/NPf+XchEYDA3/rWPwmwCpbgReCV1153mZoGdBesTAoBCEAAAhCAAAQgAAEIQAACEIAABCAAAQhAAAIQgAAEIAABCEAAAhCAAAQgAAEIQAACEIAABCAAAQhAAAIQgAAEIACB8ARoQA9vovUWuP0a+i9+8rPLX/z4T0w3WJrOX33jc0//p/zvfCAAgbkEfvlnP738+bd+c+4iTn53fv18fQGUX0Avv4Ru/Sm/fl6a0PlAAAIQgAAEIAABCEAAAhCAAAQgAAEIQAACEIAABCAAAQhAAAIQgAAEIAABCEAAAhCAAAQgAAEIQAACEIAABCAAAQhAAALnIkAD+rnsHXa3rU3pW3P51mxeNkbDeVjzsrCTE/jFD//h5S9++AcnpzBn+zSfz+GuvmtpPi9N6B6fTz/52GNa5oQABCAAAQhAAAIQgAAEIAABCEAAAhCAAAQgAAEIQAACEIAABCAAAQhAAAIQgAAEIAABCEAAAhCAAAQgAAEIQAACEIAABAIToAE9sHFYGgQgAIFVCNCErrckzed65rPu6NmAXn4BvfwSOh8IQAACEIAABCAAAQhAAAIQgAAEIAABCEAAAhCAAAQgAAEIQAACEIAABCAAAQhAAAIQgAAEIAABCEAAAhCAAAQgAAEIQOA8BGhAP4+t2SkEIACBqQT+/IPfvPzyT386dQ1nuflnfu3XL7/y5A/Psl32ebk8/QX00ohu/XnnrSeXd99+Yj0t80EAAhCAAAQgAAEIQAACEIAABCAAAQhAAAIQgAAEIAABCEAAAhCAAAQgAAEIQAACEIAABCAAAQhAAAIQgAAEIAABCEAAAoEJ0IAe2DgsDQIQgMBqBGhC97cozef+jCPewasBvfz6efkVdD4QgAAEIAABCEAAAhCAAAQgAAEIQAACEIAABCAAAQhAAAIQgAAEIAABCEAAAhCAAAQgAAEIQAACEIAABCAAAQhAAAIQgMB5CNCAfh5bs1MIQAAC0wn88s9+evnzb/3m9HWsugCaz1e17PG+yq+flyZ0j8+nn3zsMS1zQgACEIAABCAAAQhAAAIQgAAEIAABCEAAAhCAAAQgAAEIQAACEIAABCAAAQhAAAIQgAAEIAABCEAAAhCAAAQgAAEIQAACQQnQgB7UMCwLAhCAwMoE+CV0H+v+rW/9E5+JmTUFgVdee91lneUX0MsvofOBAAQgAAEIQAACEIAABCAAAQhAAAIQgAAEIAABCEAAAhCAAAQgAAEIQAACEIAABCAAAQhAAAIQgAAEIAABCEAAAhCAAATOQYAG9HPYmV1CAAIQCEeAJnRbk/zK7/zh5TO/+uu2kzJbKgLlF9DLL6Fbf0rzeWlC5wMBCEAAAhCAAAQgAAEIQAACEIAABCAAAQhAAAIQgAAEIAABCEAAAhCAAAQgAAEIQAACEIAABCAAAQhAAAIQgAAEIAABCJyDAA3o57Azu4QABCAQkgBN6ONm+cyv/frlb/7Gb9F8Po4y/Qw0oKc3IRuAAAQgAAEIQAACEIAABCAAAQhAAAIQgAAEIAABCEAAAhCAAAQgAAEIQAACEIAABCAAAQhAAAIQgAAEIAABCEAAAhCAQAgCNKCHMAOLgAAEIHBeAr/44T+8/MUP/+C8AAZ2XprPf+XJHw7MwKUrESi/fl6a0D0+5RfQyy+h84EABCAAAQhAAAIQgAAEIAABCEAAAhCAAAQgAAEIQAACEIAABCAAAQhAAAIQgAAEIAABCEAAAhCAAAQgAAEIQAACEIAABNYnQAP6+jZmhxCAAATCE6AJvd1E5VfPX/2N/7T9Qq5YmsArr73usj8a0F2wMikEIAABCEAAAhCAAAQgAAEIQAACEIAABCAAAQhAAAIQgAAEIAABCEAAAhCAAAQgAAEIQAACEIAABCAAAQhAAAIQgAAEQhKgAT2kWVgUBCAAgfMRoAm93uY0n9ezOtvI8gvo5ZfQrT/l189LEzofCEAAAhCAAAQgAAEIQAACEIAABCAAAQhAAAIQgAAEIAABCEAAAhCAAAQgAAEIQAACEIAABCAAAQhAAAIQgAAEIAABCEBgfQI0oK9vY3YIAQhAIA2BX/7ZTy9//q3fTLNe9UI/82u/finN55/51V9X35r7JSFQms9LE7r1hwZ0a6LMBwEIQAACEIAABCAAAQhAAAIQgAAEIAABCEAAAhCAAAQgAAEIQAACEIAABCAAAQhAAAIQgAAEIAABCEAAAhCAAAQgAIG4BGhAj2sbVgYBCEDgtAT4NfSXTc+vnp/WHZo27tWAXhZRfgG9NKLzgQAEIAABCEAAAhCAAAQgAAEIQAACEIAABCAAAQhAAAIQgAAEIAABCEAAAhCAAAQgAAEIQAACEIAABCAAAQhAAAIQgAAE1iZAA/ra9mV3EIAABNISoAn9men41fO0Ep628Fdee93l3jSgu2BlUghAAAIQgAAEIAABCEAAAhCAAAQgAAEIQAACEIAABCAAAQhAAAIQgAAEIAABCEAAAhCAAAQgAAEIQAACEIAABCAAAQiEI0ADejiTsCAIQAACENgTOHMjemk+/5Unf4ggINBE4Ctf/fql/BK69af8+nlpQucDAQhAAAIQgAAEIAABCEAAAhCAAAQgAAEIQAACEIAABCAAAQhAAAIQgAAEIAABCEAAAhCAAAQgAAEIQAACEIAABCAAAQisTYAG9LXty+4gAAEILEHgl3/208sv//Snl7/44R8ssZ+jTfCr50eE+PsjAqX5vDShe3w+/eRjj2mZEwIQgAAEIAABCEAAAhCAAAQgAAEIQAACEIAABCAAAQhAAAIQgAAEIAABCEAAAhCAAAQgAAEIQAACEIAABCAAAQhAAAIQCESABvRAxmApEIAABCDwmED5NfTyWbURncZzPMCCgGcDevkF9PJL6HwgAAEIQAACEIAABCAAAQhAAAIQgAAEIAABCEAAAhCAAAQgAAEIQAACEIAABCAAAQhAAAIQgAAEIAABCEAAAhCAAAQgAIF1CdCAvq5t2RkEIACBZQms1ohO4/myUp22sfIL6KUR3frzzltPLu++/cR6WuaDAAQgAAEIQAACEIAABCAAAQhAAAIQgAAEIAABCEAAAhCAAAQgAAEIQAACEIAABCAAAQhAAAIQgAAEIAABCEAAAhCAAAQCEaABPZAxWAoEIACB1Qm89/sfXL75/gcXqybWX/7ZTy+//NOfpv1FdBrPV1f8vP15NaCXXz8vv4LOBwIQgAAEIAABCEAAAhCAAAQgAAEIQAACEIAABCAAAQhAAAIQgAAEIAABCEAAAhCAAAQgAAEIQAACEIAABCAAAQhAAAIQWJcADejr2padQQACEAhFYGs+3xZl1YS+zVd+Ff2f/9lPnjakR/7QdB7ZOuusrfz6eWlC9/h8+snHHtMyJwQgAAEIQAACEIAABCAAAQhAAAIQgAAEIAABCEAAAhCAAAQgAAEIQAACEIAABCAAAQhAAAIQgAAEIAABCEAAAhCAAAQgEIQADehBDMEyIAABCKxO4N4vMls3om+/ih6pGX1rOi82/syv/vrqpmZ/QQi88trrLispv4BefgmdDwQgAAEIQAACEIAABCAAAQhAAAIQgAAEIAABCEAAAhCAAAQgAAEIQAACEIAABCAAAQhAAAIQgAAEIAABCEAAAhCAAAQgsCYBGtDXtCu7ggAEIBCKwPWvn18vzroJfT9/+WX08vmLH/6BjElpOC+fv/kbv/X0vzSdy9Bzox2Be//owyik0nxemtD5QAACEIAABCAAAQhAAAIQgAAEIAABCEAAAhCAAAQgAAEIQAACEIAABCAAAQhAAAIQgAAEIAABCEAAAhCAAAQgAAEIQAACaxKgAX1Nu7IrCEAAAqEI1P4Ss2cj+gZk+4X08n+P/kr61mhe5vobv/rGpfzfNJuHkt6pF3P0Dz/0wqEBvZcc10EAAhCAAAQgAAEIQAACEIAABCAAAQhAAAIQgAAEIAABCEAAAhCAAAQgAAEIQAACEIAABCAAAQhAAAIQgAAEIAABCEAgBwEa0HPYiVVCAAIQSEugtQlW0YR+D2ZpTt8+v/zTnz5tKL/1ock8rRxPtfAPP/rRpfwKusen/AJ6aUTnAwEIQAACEIAABCAAAQhAAAIQgAAEIAABCEAAAhCAAAQgAAEIQAACEIAABCAAAQhAAAIQgAAEIAABCEAAAhCAAAQgAAEIrEeABvT1bMqOIAABCIQiUPvr59eLntmIHgogi4HAAIFe/zu6JQ3oR4T4OwQgAAEIQAACEIAABCAAAQhAAAIQgAAEIAABCEAAAhCAAAQgAAEIQAACEIAABCAAAQhAAAIQgAAEIAABCEAAAhCAAATyEqABPa/tWDkEIACB8ARaf/381oZoRA9vZhYYmED5BfTyS+jWn/Lr56UJnQ8EIAABCEAAAhCAAAQgAAEIQAACEIAABCAAAQhAAAIQgAAEIAABCEAAAhCAAAQgAAEIQAACEIAABCAAAQhAAAIQgAAEILAeARrQ17MpO4IABCAQgoBF8/l+I6UR/ctvfv5SGl/5QAACdQRK83lpQvf4fPrJxx7TMicEIAABCEAAAhCAAAQgAAEIQAACEIAABCAAAQhAAAIQgAAEIAABCEAAAhCAAAQgAAEIQAACEIAABCAAAQhAAAIQgAAEIDCZAA3okw3A7SEAAQisSuCV11532VppRC+fd99+9l8+EIDAfQKWDejbP/7wpS9+Hh9EdBCAAAQgAAEIQAACUwn8xY//5KX7/+InP7u5plff+NwL//+/+fl/Z+rauTkEIACBsxHYx+x7sbowIV6fTRnsFwIQgAAEIAABCEAAAhCAAAQgAAEPApyfe1BlTghAAAIQgAAEIAABCEAAAhCAAAQgcF4CNKCf1/bsHAIQgIAbAetfP7+10B98/7v8GrqbBZl4JQKt/xjE1mj+7lu//RTD9n+vxIS9QAACEIAABCAAAQjkILB9Ua40LG5Ni7e+PNe6m9KEvjU6lv/SlN5KkPEQgAAEXiZQ4vMWq8t/LeJ1ucsWs7e4TcxGfRBITOAvL5fLX9Ot///75J9d/tXX/g3dDbkTBCAAAQhAAAIQgAAEIAABMYHt/OXn3/ne0ztbn8eUOTlDFxuV20EAAhCAAAQgAAEIQAACEIAABCAAgWAEaEAPZhCWAwEIQGAFAq0Nrz17/vSTj3su4xoInI7AV7769Uv5JfRHn9JkXhrOaTY/nTzYMAQgMIFA+eLH//4fvzPhzs9u+bf+s//o6f+s9Pmf//Z/INtOZH5qbf2d/+abzU27RftWX36SGT3JjSJrswXh/styM7SyxcfV4mSLDZRjlfHbcl+3ml/3/6BBuVfGBtms9thse818/2vafEnW0gOez/VP/6t/9PT/2P7rc5fbs272/uw3vpbS3653VRjO4Ki02ax79dZI1K0vW6yn/r+e5S//xV9e/te/89XLX/vr/4q7JP7yX/yLy+u/959c/s3/8N83u5daF3/v//wfzdaumkgdzzIyOrKF+tn+1nos/P1onxH/rtavN3vlfkptVnQT9aOM3z0sIvh9VNuNrqvHHqP3tLp+ti4ys1PGPyt7Z5mn9/nqZ0/+y8s/+9/+D8k2//qr//rli//Tfy2516yblPhg3Wxeu5f9P+y68hm6OgZnrb+V58lZGdX61sxxylr51j57c8tMZkf3VjLNWrOp67UVz4+UMfiW5ldjSu5/0cpqHvu7Z4prMznV5s/ZseIoZ0b+ey3joz0o64KjtUT5u1Vtn13ffL8liiJZRwsBGtBbaDEWAhCAAAQOCSh+/fydt55c3n37yeFaGAABCFyeNp+XJvTrD03nqAMCEIDAHAIRDhZXexmkPFC0OmD2UJ/65UbPgXAE/XuwjzBnZG0e8Zn5hblHa9u+TLfyF+mObOP9d2X89t7LrfmzfSFzdXtsNtr/mnbGfyhghpb395zZdH5v7ys0o6u/cDdbR8r799ZI1K0vW6mn/r+epTSg/y//9ldkEvi3/ovfSd2AnunLdptR1fFstfONwlH9bH+vjo3cTOwVRNT6vbUPi1g7wx+jxytlXu9hEcHvvfxq9rw99pi95u3+St3e23PWPBshnkfRkfU6ep+v/q///IPL//Pf/dB6OTfn+9f+9q9e3vjvvyW5l/Im2xn6jH+09dE+V/0HXWfk5owxV3mebFknK303w72UdrzFoze3RGarruMyMlTXaxlj7CONz8hT1+vJqLtITDPkNXUs29snA5+yXnUs2zOqjWuz83zkfH20Nqs4N9OXjvY46+9WPn4WffP9lllK5b63CNCAji4gAAEIQMCMAM3nZiiZCAJmBK4b0Gk8N0PLRBCAAASaCUR4EVQWbXVI2gzA6QLlgWJkdmp99RwIc7Du5AQJ/Tpq0/k9C9GM7qNdZfz22UHbrNEb0s9mj816q35Rtk2dj0dHbDp/tOLia9l+GX3ml1QstRJxrt76nbr1ZWv21P/Xs9CA3u4lFtzb79p/hTqe1X7Rrn9H+ivVz/b3dphNexaWilAPW3JX+mP0Jl9lXu9hEcXvLfwo2hw99oiyhwgxqbeWns1QGf9m71V9/15N0IDeZ6moTef3drPSGduM3JwxZylzlWWd3OeRa141Q+u3SK72bK98/th4ZvMRdb2GxuxjWG9daL8SmxnV8TCDz6qZ7C2ZpS5S1kJ7Pi3+N2uNNp45d5YWzo9WOqMumEvu+O5WMfCs+l7p2ftYLYyIRoAG9GgWYT0QgAAEEhOgAT2x8Vj60gSKb375zc9fSvM5HwhAAAIQmEcgyqGi1SHpPJIv3ll5oBiZnfoFUM+BcBQfiKJdy3VE1uZ+n9m+NHfLRllYW+rLay5l/Pbaw8i80bR0dnsUW/Ky7kVFq78ENuJPt67N1IienbW17Szn64211K0vW6Gn/r+ehQb0dnVn+bLdtjN1PFvtC8SFo/rZ/p4qe+Nnu8pjXKHW7r1dW8TaGf4YPVYp83oPiyh+H8MbbVfRYw/bFfTNFkkTGXNtlJjeZ/3YV/XWBzSgt9k1+xn6Cudrs+KwZS3Yprq+0crz5Gxs+ojqr1LWyY9215tf9MTq7jiDa7a6V12vZaxp76ltVo66tR641sWEW6Oy5LUZ8WzjFZ2ROo7tddTie8p6rd8jYl5pVZ/M9KOYZC8XK/9G33y/JarGV14XDegrW5e9QQACEBASoPlcCJtbQQACEIAABCCQkkCkQ8WWA+nosJUHilYHzB5M1S8bew6EI/mAhw1mzhlZm4VL9i/N3bJtdOYz9Vh7b2X8rl3TjHFRtIQ9XrTVkmY5AAAgAElEQVR+FLvM0OTML0147DdDI/pqzD3s2Dtnry9Tt75MvKf+v56FBvQ+JffquO9uY1ep49lKZxsbefWz/SOLr8j33n6j1MIWsXbbo9Ifozc7KPN6D4tIfj+WBeJd3WOPCLtQavZov5nqkBnx74jfan/v1QMN6HVKUObuuhWNj+rVzPidx2aYmZsz1eDKGtqyTh5TxzpXz9T5NcWsNds9Ncyq5TLFXHXOyxRbj6LMLH3dWlcmzR1xVcfELHlNzWVvp+i5QVkH7bm0+t2sdR75XIa/t7KOVhdEZmwVA9H3cyuXmPnqG5/7qx9ciGx/1pabAA3oue3H6iEAAQiEIfDKa6+7r+XTTz52vwc3gAAEIAABCEAAAh4EZh7Mr/4ySHmgaHXAvILGeg6EI70Q9bDBzDmjanPFxvNrO0dlP1OPtfdWxu/aNc0cN1tL2OO29WfbRalJ9Ze+lHsr94rciL46e7Wt9/fr9WHq1pet1lP/X89CA3q/N1jw7797/ZXqeLbSF4g3ypHOj7Lorl6ht0eqdftovZbMlfuK/qVgZV7vYRHJ70f9Kdr1PfaIsIdIz+e99fRMjsr4N3OfM+7dqwca0B9b6wya7dXODJ2Xe87MzZlylzJfWdbJs3QV7b7RYs9Kz/fK549rXWXxFbX+0JdPBMqUs44IqHN/Fl8t3IhpL6tHHcP2K2iNZ8p67cjPsv3d6hlmpg9FZW4VA9H3bQtbaTeqfljXXAI0oM/lz90hAAEILEGAXz9fwoxsAgIQgAAEIAABRwLRDhRXehmkPFCMfEiX4aVYND9wdHn51BG1eTZ7R7SBXIiNN1TG78alTR0+S0vY477Zi03Kvxhd6qcVPzO/KDGDZ8RG9LPZQGn33ph6tjqmxiYWXwihAb2G9O0xWZ7h1fGs9Qt3/RbQXal+tn+0syy6G7WOWreP1msRa7f5lfuKrhVlXu9hEcnvR/0p2vU99pi9h4h6yJZvlfFvtl7U9+99vqIB/balIvq7p6Yinsfc2+9s21jWhJ42VZ4nZ2Hiydt6bmWNXLP23hxTM7d6zEy2Wepfdb2WrZ6Nmp9urQu2fREmU16bWRdFjWnKGmivsJ5cOWutfZ4R66oe3rd2MLMuiEX0+WqsYiD6vm9hK/1G1RDrmkeABvR57LkzBCAAgWUI8Ovny5iSjUAAAhCAAAQg4EQg4qHXKi+DlGwjH9CpX/z0HAhzsO4UYC6XSyRtqrXoR7Vv5ki26NuB7ipl/NbtyuZOM16oY49j263o3+oveh1T1o2IZM8z28Hb4r12pm592TI99f/1LDSgjym+V89jd227Wh3PVjnX2FOO9jxl4fttKtKPjlQHW/JW+uOM55cWpSjzeg+LaH7fwjb62B57zN6TUq+1e81Qg+z3oox/tQxXGderBRrQX1RAifs//873nv7K9hk/vTpSspqdm7PkL2UdbVknK7UU9V6zNX6PyyrP+LPruQxxVl2voS2/aJRBbzW7V8fFbHltZlyL5r/q+LXXbw8LZb1W42uZxljFt5n+E5W3VQxE38cWttLx8Z0YcRYCNKCfxdLsEwIQgIATAX793Aks00IgEIEPP/rR5Y8++vHTFX34xz++lP/71udLb37hpf/3u2/99tP/362/BdoiS4EABCDgSkD9sqJ2M6scMikPFCMzU+us50CYg/Va72wfF0GbZ//i3N5qEezRriL9Fcr4rd+dzR2VWsIedTZT2qRuRX2jZn5Bom/FPldF+fUt7OFj3zJrr89St75sk576/3oWGtDHtW5hh/FV3J9BHc96vnTnuX+LudXP9kdrztL8crSPe39Xa/ZonZY+rtxbdJ0o83oPi2h+f6TTTH/vscfM/UXVQm9NPYulMv7N2uOs+/ZqgQb05xZDn89Z9OpJof8I8Tgyn80GyvNkyzpZoaHo91DWxy0sMui+Zj8R+Eb3GXU+XOX8SBl3a7S+jVmBrzr3R/fRa/ur+ezvHy03zPLDXg6z1tsSQ6KO7WV+vZ8IdUE0xlYxEH3XWdZKy3V3Y9TqBGhAX93C7A8CEICAIwGazx3hMjUEJhIovv2o0bxnaVsDOg3pPfS4BgIQyE4g8mHiCi+DlAeKkQ/l1C99eg6EI/tC9jgzW5vqLwpksddsu0TnpIzf0Vk8Wp9KR9ijTSU9ebDtDj6j+cdCbnNV+dk9q5JHffReZu21LXXryzaxiHs0oI9rPXojnTqerXCmca0K9bN9jSpX5LztO1oNbBFrt70p/TF6bFLm9R4WEf2+JjZkGNNjj5n7Uvpt6z4z5YLIHFu5Rxvf+3xFA/rl6a+dn/lXz+9puVdT3r4RJTdb1oYezJS1dHQWHnw951TarmUfUWNCyx7KWOXzx721Ra+D1fVaplr2nk2j5KZb61vBd9V8M+a1mbEtig+rY9fe33oZRM35rbl1xnir2DbTd2Zwq7mnVQxE3zW0n42J8o/y16+YkVEJ0IAe1TKsCwIQgEACAq+89rr7Kj/95GP3e3ADCEDgcilN5+Xzzfef/VfxeeetJ5d3336iuBX3gAAEIDCVQOQDL6tDvZmAlXytDpg9eGV4KcbBuofln805U5szX7T5EbWbeaZt7HbhM5MyfvvsQDerQkfYo92e2eoo4vVjG8/8Uh62afe/2it64yd168uELWIeDei1yn08rlfXNnd/PIs6nvV+8U7Bovce6mf7mnVa+H/NfdRj1Hqt2Z8la+X+ZtZRNVyVeb2HRUS/r+GaYUyPPWbuS6nV1n1Grj+u96KMf60cs4/v1cHZG9CJ83HPY+6tLIrNoucx5XmyZZ2cPRaPrj+Kvu/tY4Xn/Cg1XW/eHtVYzfXqeg1d1Vilf0xkrdXuSh0bM+Y1NaO97aLwUseujcGIjynrtVp/yzJuhPt+j1HqgkjcrXwafbdb1Yp9+525YhUCNKCvYkn2AQEIQEBMgF8/FwPndhBwIqDw5aOll19HL7+Mvv1K+tF4/g4BCEAgE4GZh/A1nKwOTGvu5TVGeaAYmZdaaz2Hkhyse3nBvAZ0bFpn08ixo24HPqOU8dtnB9pZvXWEPfrs2ZMP++40dtWsL0WMrXrO1TNsin38bN0bO6lxXraJhW/QgG6ndQt72K3m+UzqeLbCF4iv7aB+tq/RQfTGl5o93Bqj1mvNOi19W7m/6BpR5vUeFhH9vkavGcb02GPWvqLrIBNLZfybpZdZ9+19vjpzAzp6rFerZR1Uf9fbIyPF5F6/G2VQc73yPDmSPmrYRB6jrI17OETWfO1+IjGO6jvq/LjC+ZEy5tZqfT8uO2N17o/qm0e2nxXfIjyPquOWlX9Fjx1Hmpv5d6uaZJbfzGR3dG+rGIi+j0jf/rsV/767c1V2AjSgZ7cg64cABCAwiQC/fj4JPLeFgAGBGb92XrNsGtFrKDEGAhDIRiDDQWL2l0HKA0WrA2YPHWd4KZbBHzxso5hTrc2it59/53uX8l8+dQTUNqpb1dxRyvg9d6d2d/fUEfbot1P0l3QzvxTRT3XulWqbYiM/e/fGTerWl21i4Rc0oNtpPcKX7m7tRh3Psp9n3GKofravVaVFDKi9l2pcxPrXkrPSH6PGpE1LyrzewyKq36t80fM+PfbwXM+juZU67d1jlryrjH+9LLNe1/t8ddYGdLTYrvRejbXf6fEV0XKzZY1oyUpZT0dlYMlTNZfSbj17ihIHetY+4/njaJ1R62F1jsxSx96zZ7S8dGud2X1XzThrXlNz2mttNjN13Nr2Pupb0fP+UR6b+fdR9hHrgpk8PfwZffdbdHZM7V85V84mQAP6bAtwfwhAAAIJCSh+Mfmdt55c3n37SUI6LBkCsQko/HeUAI3oowS5HgIQiEJg5uF7CwOrQ9OWe1qOVR4oRmal1lvPYWSGL1JaalM5l1Kbaq0pOXrfK+oXPbz3fW9+ZfyetUeP+3r5O/YYs1ZPXhy7Y93Vs74QUbe62KO8fO3WrrGTnxZ67Ujd+rJNLOIcDei2Wu/Vt+0qXpxNHc+yf4H4li2iPm+t9iyj1mqt31nE2u1eyj1G14cyr/ewiOr3tbqNPK7HHrP2k+GZPGLtwfOVVrG9GjhjA7oy92hV4H+3Xp1Zrixabo6az5S5y7JOttRKtrmiafsev+zP+tFyQIS4em1r5fNquTea8o9WEXXWsmt1fMyc19T+u9lxdj2krHv22h2NX7PW3eJ/UcdaxbVodUEE3lYxEH2PWdPKDmOr4OpsBGhAz2Yx1gsBCEBgMoEPP/rR5Stf/brrKkrz6Q++/13XezA5BM5GIEPj+bVNiAVnUyn7hcB6BLIcIlodms6yoPJAMTKrDC/FsvjELC2P3FelzVkvFEfYRLyWg/xnVlHG74g6GFmTh4awx4hFLpfZX3y4Xn2pC37+ne9dyn/59BMgv/azi3Jlrw2pW1+2oEXuoQHd3jMs7GK5KvXzwugX8Cz3bjWX+tm+Zd0r8Y5a+1r6tNIfo9XC17pW5vUeFpH9viVGRBzbY48Z+8ikgQy5QBn/Zuhl5j17n6/O1oCuzDsz9eB5716tWa0pYlyezeQWW2VNbVknW+kk4zxZ4lNEvbfYOyLnaD6krtcy1LD3NBYxJ91bK5zrI0U0n6xf+bORyhpgv7ZZ3NQxa9uzRT6cZatWTUUcb8G/7CtiXTCbt5Uvo+8xS2Y5Nx3bJVdbE6AB3Zoo80EAAhBYnICiiZVfP19cRGxPTkDht56bKv8gRWlG5wMBCEAgG4FMh4iZXwYpDxStDpg9tKx++dhzIJzJJzxs5DmnQpuzXqx5cps5d48PzVyvx72V8dtj/TPn9HgZhD3GLaqIxbWrJOfWkjoep7ArOfbYDr0jeu2HD71M3KJ2oQG9V8n3r/OoCUZWqY5nmc8y7nFWP9u32NsiDrTcz2usWqct+7BkrNxntFh0zVyZ13tYRPb7Fv1GHNtjjxn7UGp0dH+WcWp0LfeuV8Y/rz1Enbf3+epMDeiZ/DmqzrZ19erNYl9Rc3O0GKw8T462dwudqeeIqutbHLLUcPdsGDEXRGOqrtcynx+pWY3Eppm5e2Td5Vp1jMye12bpclYsU9Y81rXwjLWP+mOU661iWsS6YDZjqxiIvsctaaXz8ZUwQxYCNKBnsRTrhAAEIBCAgKKJlebzAIZmCcsQUPisChaxQUWa+0AAAlYE1C8oRted+UBJeaAYmZNacz0Hwhysj3rq/eu9tanWlx+pODPPekEah8C8fx09EoORtVj7vTKfjuw7+rU9+dF6T+Rba6KXi7W/Xa9w1pd17EnFm7HXdvjRy7a0iG80oPv4SK/OPVajjmeZv0B8j3/kZ69VnmHUOm3xNYtYu91Puc/o2lDm9R4Wkf2+Rb8Rx/bYY8Y+Mj2PR6o77tlKGf9m6GXmPXvtf5YGdLRnr85ezY2uJGpujpbXlPnLsk4e1UfW66Pq+h7PzM/7yuePFj3Oiqm31qjOmeipRSn9Y6PlqZadqGPkCnlNWQfsbalmp45X216tYvYsO7X4X9SxVjaIWhfM5G7lx+jbxopW9rBZDbNEJ0ADenQLsT4IQAACgQi88trr7qv59JOP3e/BDSBwBgIrNZ9v9iq/gv7uW7/Nr6GfQcDsEQILEMh2gGh1cDrDdMoDxcicMrwUy+YXM/Tce09Pbaq11csg43WZX8Rb8FbGb4v1RpzD8mUQ9rCx8Gy/nvVFCBt6sWfxzLXYzc/2vXajbn3ZJhY5hwZ0P61b2Mdidep4lvkLxPd4R3/+iqK1Eb1Grnst+Sr9cXYNfKQHZV7vYRHd74/4Rv57jz3U+8lo/+j5Vxn/1HqZfb/e56szNKCjOz919upuZEWRY/MMHvdYKutqyzp5RBuZr1XWxBacImm9dT+RWUfxJXXejF6/Zj0jurVuWNdFjCi+WLfa26PUfrytQv2cr6x3tj1a5sAZ6x/RVaRrrewQuS6YxdsqBqJvGwuq46rNqpllFgEa0GeR574QgAAEkhFQNLPyC8fJRMFywxJQ+OvMzRMrZtLn3hCAQC2BjIdcWV8GKVlbHTDX6qhlnPoLMT0Hwhyst1i0baynNpU+1rbrNUaf+TAfbY1r2FI/2GPcHtsMPTnS4u6zvuxhsfYsc3jZFtv5KaC3RqJufdkmFvqnAd1P65Y1wcgq1fEs6znGI8bqZ/tWe0fRWuu6t/Fqjbau0yLWzthrdF0o83oPi+h+36rjSON77KFev1KfVnvrrbGt7n80T/RYf7T+yH/vtf3qDehozl+1ljVSzWqj52Y1j3vMlOfJUfZco5+IY6Jr+h6zrM/8keu7KPWxOneiJV1k6q0XdSu8fSd1nFwlrylrgb3lVPzUsWrbo6UfzbLRbJ+2uL+VHSLXBRaceuaw8mH03UP/9jVWNrFbETNFJUADelTLsC4IQAACwQjw6+fBDMJyIHCHwOrN59u2aULHBSAAgcgE1C8nrFhYHZ5arad2HuWBYmRGat31HD5ysF6r6vZxXtrEZu226LnCy349a1Feo4zfyn2p79UTj2+tEXvYWW7Gl7hmfQnCjlqemTy+rIb9/Ozfm2OpgV62iUW+oQHdT+tl5l69W65KHc88YrIlj5651M/2PWvMzD16zWsRazebKv1xRv3bol1lXu9hkcHvW3hHGttjD+X6s9o+Qs3xyE7K+KfUS4R79dp+5QZ09KZTpmWddLTq6PE5Sn5T1tZK+x/pI+PflfWwJZ+sdo/OuzefW9pWnT+znmMo46ylfTPyVuf+rPHtWidqX97ur6qFZvigdYyesQfLeDJzLitbRK8LZjC2ioHo2856qrhqt2JmmkWABvRZ5LkvBCAAgUQEFA2tNJMmEgRLDUvgK1/9+uXDj34Udn3WC/vB9797+dKbX7CelvkgAAEIDBPIfHiY8WWQ8kDR6oB5WGQ3JsjwUiyzb3jYzHJOD23OemFoySXTXB42jL5/ZfyOzmJkfVYvg7DHiBVevtbqxWnNqtQ1QM2aVh5j5XN7RuRcP8X05lfqVp+4RgO6n9a3mZX559Zu1PEs4xnGkQoy5PXZOjtieO/van32rNOSrXK/HvVRD7971yjzeg+LDH5vaQ/lXD32UK5P6afW+4qcgzNztbaT9Xy9z1erNqCjNWuFPZ5PGdMz5OZef7S0mvI82bJOtmSQZS6lrSyZRNB5z36Uzx896yvXzPYpdQ6NXLves2GGXHRv7bP11eMXat4ZGUU4c9mvwduv1XFq25t17staA/T4sfU1VrbIUBdYszuazyoGou8j0m1/t7JL210ZnY0ADejZLMZ6IQABCIgJ0HwuBs7tINBJ4GzN5xsmmtA7BcNlEICAK4HMB1wZD5OUvK0OmD0EmOGlGAfrHpZ/Nqe1Nme9UPMjlGPmjDF4hKwyfo+sM8O1FtrBHraWVn4pFtvZ2q5mNvJuDaUYY3ptRd36sv0scg0N6P5+ocw/t3ajfo7w/qKhv8VevoP62b5nj7N11rPmco1anz3rtIi1232V+42uCWVe72GRwe979Bzhmh57KNet1Kb1vnrrbOt1RKhHFHuKco9eu6/agM55jF6ZvRpsXWmW3GxZO7YyKuOVPjB7rz18olyTRc/3eGV87s9Q482uk5XPq0Vb6EgbkVT52nJX6li5Ul5Ts9vs7q0zZZ3juacZ+7D0zZlzWeWODHWBmrNVDETftpabXR/a7obZvAjQgO5FlnkhAAEILEJA0dRKA+kiYmEb0wgo/HTa5ipuTAypgMQQCEBARmDW4brVBr0P6a3WuZ9HeaAYmY9ae1YHwh6auJ5TeaAfWSMtrJV+1bKu1cee7UBfqbPim6++8blhCf3iJz/7qznKF2SifCxistIeResWn5L7In8s7HK0P2WOO1rL2f6usK83U6V+suU42PiojwZ0H67Xs858JuELxOM2Vj/b9644Yx5U1rsRuCr9MXqeJ6/fVqRSI2UFVl/c7fWvaNdliff3uEX3+xn2VvpUNv4rNqAr7T1Dz5HvqahDs8To2bFAWV8r7B5Z9yNrU9bCI+u8d+3MM47e/WRhPpOtOo9mfBZRxtherT+6Lhtzde5fLa/NinteOlPHqM2XPPYT6fsMPbFm1votc6TSP2Y/H/TYeOQaZa7k+y0jluLalQjQgL6SNdkLBCAAAWMC/Pq5MVCmg4ADgbM3n29IP/3kYwe6TAkBCECgnYDy4LB9dXVXeBxq1925b5TyQNHykLlvt/ev4qXYfTZKv4yskVrNzXqhVru+bdz+gH9rLN7+u28SLuO3/zt6s2pZ6woaqrXlKvE7gs9YvExcwR7bS+hZL6Ovte/9BRJ17q/17etxW7y+/kcgrmP2PnZniNcWftfL1Oo6ZY2UjRdsrFT24jw0oPtwvTWrdw66txN1XZTt/KJGAZnye9FZlo9am71cLH1XuefoeZ68fluRSo2UFawYs3t9vVyn1OXIOh9di01fpKP0qehx91o3qzWgK2094r+Pzs/3Z+bZzs8V+s9Sk89+n6A8T7ask0f8KuO1Sjt58Mn4zixTnTfLt9S5NFvdmikP3fP7bL6rZj7L9zzidJlTzW/bhxdHdYyaXdN56WJ03hl28LCFsi5QPCuN2tXyemWd65XXzvb9Fkv7M9ccAjSgz+HOXSEAAQikIPDKa6+7r5OmUXfE3GBhAop/JCILvi+9+YVL+SV0PhCAAARmEph1qG69Z69DM+t1bvOtcKBowUatP6+XORYsrudQHuhn859rVrNe4tTYffvC3Ge/8bXLyL8uG+0A/9beM/lXje3ujVktfs/2n1HdrGiPor2ZzejeL3mVNmv19ZIPy2f7b+v1ZXypbUpTevmfqA3p2fO+skby9ocejT26BjbWRJ/NRwO6D9dbs87yOXU9lO0LxDUKUD/b16zp3phM/CPXTXu+ozX9fi6lP86KObX6Ja/fJqXUSFlBpphRq62RcVni0qM9Zn8eGrHfrWuVPhU97l7zWa0BPbL/Fm2U8/Py6T1D5zxmXhNVb1yyrCFb1qD0hVl7bOERcWym58tH/LLVkcrnj1HdzaoplHVTxmeRTBq6p8FszwrqeLliXpuhW48Ypo5Pmw9ly3Wj+efo+ll28NCU0jc81n9kq5l/Vz6PKPJa0f3s70WcTUMz9Zv13jSgZ7Uc64YABCDgTEDR2PrOW08u7779xHknTA+BNQl8+NGPLuXXz/k8J0BMQQ0QgMBsArMOQK33rTg0s1zzageKvWx4KXafnPJAP5v/7KmpNVSjdYsvzD26z/ZlupkNqrfWd5ZD/RXj98xaYPTLCivao/jXTJuU+4/a5V4MU+a2mnhdxpQcWH7VvPcLzkfxuvz959/5XrhmdC8b13IfGafUUbbcBpsRZd2/lgZ0H673Zp3xbKLOuyt+MS/ic9k9jWXJgWpdjni6JVPlvqPnefL6bVUqNVJWsGLM7vX3TLH+aI/Y9TkhpU9Fj7vXulmpAV1p5yP/2/6+naF7nMdsZ2v7/9auy3ucZd10vdZscXpWTFCeJ3va21urM+dX1sGe+5xxvjGyn2zcZ/BV59NMNWu2HPTIV+B+n86KeW2Wdq1ZquPT9n515B/0HslZUa9V1pl7BtZ6KnMr64JZzwWzdKTUibJemhGHvP1glka4rz0BGtDtmTIjBCAAgSUI8OvnS5iRTSxMoDSflyZ05af8yviXvvj5p7f88pvP/nv9+aOPfvz0//XhH/9Yvr5yX5rQlYrgXhCAwDUB5aGhN/1ML4NWPVBstbH6hY7HwXvrnmvHK31Teehcu//acbMPsffr9P7S3C0mkfZf1pfJx2o1dj1u1fg9S0ujLxRXtUfR3SybePmyOucf+bg695X9R2pEH/W9I76ef1fWSNk4wcZHeTSg+3B9NKu6plTn3ExnF7XWj5bnH607S2xX67LW1rfGWfqsct/RtUBev61KpUbKClaM2b3+rtRk7xprr7OMW7X3jDpO6VPR4+61jVZpQFfauEbn6jP0iPsvMcjjk6km3/avPp8r91WeJ5Nv2pWeUcf3dpkt72Ws9dS1ujqnqPfX7rHPr1jJd2fkpl72au6r5rUZ8c86Ryjrm02vmWJUr4+1XKfOEd71tNIvrP2hxW4zxir9VZ3TZvlBseOqOWqGRle8Jw3oK1qVPUEAAhAwIFAaW0sj6Tff/8BgtpenoEnUBSuTnoTAe7//gZtvXiMsvlo+77797L+tnxJL3nv/27Jm9NIk/4Pvf7d1mYyHAAQgMExA/UJieMEHE6gPzkb2s/KBYgsXtQYzHTgqD/Qz+c5eXzMPr691PpthFBZneDm0cvyepaORF9Qr26PEmVk28fBlZV57VIsQr5/Tmc2ipWbcj1VqycMXevddcx1saii1j6EBvZ3Z6BVq31Pn25HaZ5St1/XqZ/vRfWQ4G1DWuZF4Kv1RHWtaOZPXbxNTaqSsYMWY3arFbXymuHS0x6zPQkf76vm70qeix91rfjSg9yjq/jXqxvPrlSi1fkTOqxbNVpNvnLx43LODMp+p93akvQx/z6rje2wz1ZLK5w8rLaprC3UuQT9WSmmbJ9OzgjpmrprX1BytayB1bCrrz+QnbRGgb/QMG3jbQVkXqPN5n5XtrlI+j8zw1RX9wc76zDSLAA3os8hzXwhAAAKJCJRm1/Kxakan+TyR8VlqOAKlobv8+rn3x8NPVY3zHmv35s38EIBAfgLKA0MFrRkHZ737Wv1AsZaL+mVOppdiSv/M5Dt7bc06uN6vIdLLkAg8CptMflYbq/bjVo/fytizcR35Es3q9iiMZvi2dWxT5/t7vh0p383wtWsukXi0xGMlO2tfaNlnz1jY9FA7voYG9GNGHiOUNaU6147UPh6sLeaMkutr9xI9vqs1Wcvt3jhLf1XuPboOyOu3FafUSFnBijG7x+ezxfmaPWLbZ5SUPhU97l7rZoUGdKV9H/mdZa1Q49+PxkRg4uULWWO1F497OlCeJ0fS/qjvqK5X1sCKPWU6f83KXuln6hySpV7Nmn8exQDY36aj9DdFjN7fY0YMtKqBlLXNxiyLj3eAanEAACAASURBVCh0NDMGetpB6RNWvqCwt8U9lD47qxZV6mezydl0ZKHFM81BA/qZrM1eIQABCAwSsGpE//STjwdXwuUQOC+B0nxemtC9PormbUUjOnHGSyHMCwEIRHjJrrKC5wGr5R7OcKBYw0t9GJ/ppZjyQHbWoXONRu6NUb/kv7WOiNzUPnWLy+oH+6vH7xkaGonNq9tj8zHlPj2+PKDMaffyxojORvLVo2vJZX1klXrKltNg06epo6toQD8i5Pd31fO9Oh6r9uVnmZdnnlFDju4vsh1m1H4jPC3rLKU/Rs/z5PXbqlRqpKwgcqwY8dvWa5V6bF1b7/iI53q9exm5TulT0ePuNUca0EeU9fxayzrBZkXaf3hBeU6VsSbf+ChjsrLWjqh/Kz/ymCezhh/xyFJPZq73VIyVdVOmZ5HM2rnnu8q8NBJP1XFz5bymZrnZfZSpOi6VdWfxjxHfarl2Vgz0toNyX9nOClr0cWus8nnEWyf3WMyKqaqacFQDXK8nQAO6njl3hAAEIJCewEgjuqK5NT1gNgCBOwS8f/38B9//7uVLb35Bwr/s5b33v+3WTE+skZiRm0AAAv+SgPKwpxwWlvspPrMOz1r3doYDxRomSh2W9Yy+wKnZk9UY5YF+Fr/Zs53xMm1//+jMlPq5pflMvtbqs2eI38o9Fv4j/qRc68g6W3V2PX5GzLPyY3Wuv2YX/aX1DNtmyme3fEeZ46Lr55oPbEaj7e3raUD34Vozq8oH1bF4xS/BzM73NXq6HmNV6/Tc+9E1aj1arN+SpXL/qhjTy5i8fpucUiNlBSvG7FZNZozxNXuc+Yxfsz7VGKVPRY+718yzN6ArbXtLr8Xen/3G1y7lvxE/EfiUGsrykz1eW9aUj7gqz5NVe7LU0cy5lPWvcp9ZdJCZv6rGUOeOLM8iqriq/M5RlmdBde7PEs96Y/yMODgav1T+t2eaJTb16qDlOnVe2NamOM9Q+sOoH7TYLMJYpd8qtHKPqVJD2xqITxEUHnMNNKDHtAurggAEIJCCQM+vGPOrxClMyyKDEvD69fPSdF6az2d8euJI7TppQq8lxTgIQGCUgPKgp7yIKPdTfLIcTJ7lQPHI5rwUu09I6aMzD52PNHLr77Ne5Chf6PRwub5GqaHre2eJxT2czxC/1doZiUFnsEfRqTpflntafZFErae9X49oqyc+9F5DXmsjp9RUtnwGmzYt1Y6mAb2WlM84q3z0aHXqOLzil2Bm1Cqjiosa49V6HOVoWTeWuZT7j6qBzSbk9dvqVGqkrGDFmN3q98oYr3yPgH2fKUHpU9Hj7rVv0IDeGi2ej89ia6X+b9G0ftZRxut+ddy/UqUb5XmytY09uEeaU1X/Fq29+sbnnuZAxSfLGbWKvxdzhb+p80aGZxFl7ik2/vl3vif74QuFpkb9Qcnf+vxndO8e16t5bnvo1Zo6JpX1ZslpHvq4nnMG/20NivygrAtUzwEKXdTcQ/k8MtNnZ8TU3nhaYzfG5CZAA3pu+7F6CEAAAiEI1DaQ0gwawlwsIikBr18/j+CXtTGk1XQR9ta6ZsZDAAI5CagOtLaDQtX9srz4UPKYeaB45B3qA8dMh43KA/3IGrmloZkvc7KxUuro2laZ/O0oVu3/fob4rY7NIy8Vz2CPTX/KvVrVU2ot7X11RFctMcFqLLmtnqQyt2XTEWzqddQykgb0Flo+Y72/UKWOwd778bHC41ln5vyR/UZ8ZlHXfCP8tmstOSr9MXqeJ6/fVqdSI2UFK8bsVr9XaXHzSaWNs53ztdquZrySd/S4e80rcwO60q7X3LLZeWYda81q5l5q4k3NGEVcVtbblnVyDb/MY5T63eyi1EKGmlJV83nq1JuzOr9678fCFkrdFB5KGyhy0qgNlLHT6r3h6J69r1dqettLb02ozGPbWjPEJW+NbPPP4F/urYpNSl/o9QGVra3vo9SOSi/3GCn3epY8Za3Hs8xHA/pZLM0+IQABCDgTKM2x773/7Uv5763PzF9Ydt4600NAQsDj188jNWh7NaF/+snHEvtwEwhA4LwElC8itpe4vAx6UW/KQ7bZB4qPPE2pxWyHjcoD/cgaudaPWjP7+2fitK17Jq9VXxSdIX6rdTOilTPYY/NnZV6wypnqNe9jdsYveCrr5ev8momXUlcj8WnG0yZsfKjTgO7DtWVWb19Ux98Vv6inrh9b9PNorLe2Wtep1mLr+u6Nt6wjlAyi2f+aL3n9tuKUGikrWDFmt/i+Mr7TgN5iGbuxSp+KHnevqdKA3qczy7qgbwXtVyn9wPM8Rhmz2ynXX+Gde5XnyRn9od5StiOVte9mF+U9M7xfVPKwVc/z2bxrDXW+8I6HFnZQxdS9bVX3zPA8qM79Z8hraqabH7b6uzoelXVmyGUWca1mjhn81TZQ1gXe+bvGpsoxyjw222+VOio2PEOeUmp1pXvRgL6SNdkLBCBwOgLlIa18fvGTnz39n/3n1Tc+d5NHKYI8P/eaSCM1unrun7kh4EHA49fPI/6jEB5N6MQeD0UyJwQgsCegPODZDsrVB/WtB/RqhZzpQPERW7UuMh02Kv109qFzi//NepmT+aXHLGarHvCfIX6rY/OIf53BHluMVPvyaG5Q62ifSzLl++scqNT0/t6j9m7J5aNjlTXSSHwa3WfP9bDpoXZ8DQ3ox4wUIzxjuzrHRj+v6LHnzLzfs96odcOsOiASQ6U/Rs/z5PXbylRqpKxgxZjd4vNKHe5zvTIent3GSp+KHnevfSNzA7rSh7KeLVzbWxnv9ve29IvMNbkXk1s5T+kfns+xLfk8w1iVXfY+p8yBGc5eZ8VBa316+p1SMxmeRZR5Z29XpVaj+67SBqu+978Vg5Qa2+7fqrUZazz7s/Os9/V7jSptoNSY5TORdV3hMZ+q7i1rb40t1vtV6uhMecraTmeYjwb0M1iZPUIAAksQKA+5+0bzrfm8d3NbI3ppVC9Fp+XnuomUBlBLusx1RgLWv34esfl8s6t1E3rkvZ5Ry+wZAqsRUL6EuD4kPNMh2pFuYPGMkFKP2Q4blQexsw+dj/xl/3el7+zv6/mFhZb9945VfyliW2d2brd4KzU40zeV+xx5qahc50x7FC2q/Xh0v+ocv/nr6Lp746zVdbO4lfUrv7gwwktZI43Ep5E99l4Lm15yj6+jAd2Ha8+sXnFKnWO99tHD1OqamflrdA9Rage1Dke5eT0vKzlEz/Pk9dsqVWokU41s6dP7uVQ6vPZHpZ2j5AEvGx7Nq2QdPe5es8ragK606Z5Zdl+aWc9aPR/M3MNRrGn9u+d7BeV5suc+WplGHq/U7rVNlHqw8nUvW6rqPq/1b/N61hvqHItmnqtlz0Jph+j1jTJ+FmucJa+puW5Kr/V5pQ9sa4vuC965ZT+/snbwOn+t4aWsCzxzd81e1WOUGprtu+p4NXu/ai1xv3oCNKDXs2IkBCAAATmB8gD28+9872kzifdna0i3+oX0/S82f/rJx97LZ34ILE3glddeN93fD77/3UtpzI76sW64j77fqHZgXRCAwDEB5WH59QsI5cFS9EOlMx0oPlKlUo9lHZleiikP9KP7y6YhtV62+2bhc5QBlJra1rLiy6KzxG/lPkd0olzn7FigrKOKD4/ul5hzFJXv/11t620lWeokpbZG4lO/AvqvhE0/u0dX0oDuw7VnVi+fVMfd2i8T9jCadc2sZzWL/XrpqnVtah22ru/ReMsaQskhiu3vsSWv3yaj1EhZwYoxu9b/lbF9ZgP62e2s9KnocffaN2hAr40Wz8atEC+V/rCna1VLKeN2mzr6RntpSnmebGXbPoJ5rlLWvXx34b4ulHbwVufou41761PnCa84aMFfmXNu1ZDKWI4dnivmTHltRkys5auORavU+haxbwb7sm6vvPaIidIHsp0VjGpJmcNmaGfPR+0ztXF01IZcn48ADej5bMaKIQCBxQlsTedlm4rG81s4LQul0ogeudF1cTmxvQUI7P8xB4vtZGjGtv4V9HfeenJ59+0nFviYIxCB4hvb548++vFf/e9ffvPzT/93ck8gYy28FOUh4a2XMcqDtMgvg5QcLOtka9dQvpwsa8902Kj01cgamXk4vd07cixp8Um1v21ry+R3NTzPEr+V+xx5qahc5+xYmekFHfGmJpo8HqPU9raS2RqvpaaskUbiU+1+LMfBxpLm87loQPfh2jurR22pzrGrPF/sbTgr9/fq6Po6D121rm1G7m9d473xlvyU/hg9z5PXbytOqZGyghVjdq3vKzV4K44o46JlHKvlG2Wc0qeix91rm2RtQFf6TrbzhBq/U8a+bT1WvpG9Jr+2jxWX63mVPnLm/FLjb2WMUre3NKXMg9HPXmfEv1qd9Izz8D+lXqI/iyh995YtlXqN7LtKOxRNevhVj38rrlGzLXuqrX2UtUxZV2QfUGhhu4c6B1g/K7SyUsbZWu237iHqeKUPz/Zftd+cKU9F1XfUddGAHtUyrAsCEDgdAeWvndfCnV0w1a6TcRBYmYDlr4GXhtzSgJ7hY92E/uknH2fYNmu8QaA0mr/3/rf/6i/7xvNaYEX7X/ris8Z0/jGCWmqMOyKgPCS/d0CoPKSMXBee6UDxkS6VmizryHTYiK+8rByl32x3jxxHjmL+rb8rdbXdP5Pf1TBV6nCW/tSxeeSl4hnsseky0ws6tYYKoxEd1fi+eoza3tv+MjTYKHNZNl3BxsdTaUD34do7q4dfqmNuhljbap8Zub91jY/Ge+iqZX1qDbasrWas5TOfksVsux+xJa/fJqTUSFnBijH7SHvb31XP2/d8UWnrWecvtbbwHKfkHD3uXnPO2ICutOee10qxckZda+UbM9buGZ+83ump8pvX+r2Zq+dX6vbec4tSE5HjpfL5Q6Ezq9i6X6s6z6KXZ/RvcVDaIvKzgjKGnjGvzYiLR2dsSu1nem/onVfUvhbhWUupf4+c7a2JkfmVtefsHKaOWUcxdMRuXJubAA3oue3H6iEAgQUIRGw8v8ZaCqfy2f67AHa2AIE0BCwb0DP8+vneMK+89rqZnbLt3WzjSSfams57ms1rtrw1pJdfS+eX0muIMeYWAeUB4b1DHeXh0uyDtEcqPNOB4iMO6oP6TIeNSn+N7CubfpSxI8ILHa8spva5so/VXhidIX6r/W1EI2ewx6w4OJIzlTls4zOyXq+YOzqvUt+ZOCr1NRKfRu3fcz1seqgdX0MD+jEj9Qjr5xd17RP5C8S9tpzxnNG71nvXzawlZuR8S36W7JT+GD3Pk9dvq1SpkbKCFWN2jf8r43qEBvQz21rpU9Hj7rVvZGxAV+aOjZd1bV4To7zHzOBoUU8pY7e3DTzf0Shrbwu7KlnPuJfS3/juwmMLK22h0pp1jlLWTZHrU2W+eVQ/KuN51OdCpS2KJs+W19R8a75XodR9WY91HFXFf+v7zMqRM/kr95ztrGBUX0o/nqmhwkmpo8i106hmuH6cAA3o4wyZAQIQgEA3AfVhSvdC/+WFswuo0fVzPQQyErBqws706+ebnSx/Bf2dt57wy9fBHcC76fzR9os+yodfRw8ukmDLUx5iPXoJE2UdM82jZBC5Hla/tMn0Ukx5EBtZI5ufzngOzcClJ44ptbWtL+qL+R5+Z4jfan8b8bUz2GPTqdp3e/1WndsLn1VfTKt9sbAc8ceemNpzjdIXsmkLNj2KOr6GBvRjRjNGWD7bqeNtb46dwbn2njPyf+3aasfNyoFq/dXyaBmX1R+j53ny+m0Vqn1mxZhd499K/T2KIWd65q+xi8cYpU9Fj7vXfDM2oCt9ZsVz321PM2pbi1p0xro94tL1nNaxQ+knlnWygrX6HkrNPtKRMhcWxlHrS2X9p9SapR+ilWeWU2rlkf2U67DI0x66V8bRsn5Lf/Lg4TGnUmfb+iP8gykr1/qtOlHH/m19s+OOUvvW9X6rjdXjlc8js3Wk3GvkOlutMe73MgEa0FEFBCAAgQkEMvzq+T0spUD97De+9vQLqXwgAAFfAqUht/wCusUn4y+AW+6fBnQLFfnMYfkPDYyukEb0UYLnuV758uHocFB5UDn7MO2ewpSHbFEZFDZKXZb7ZXophp+86D1KHqu/UJvxkiyT7x1VBmeI32p/G8lTZ7DHpknlXkde0Klze1nriIaOfH7239V2z8BSGaOOnmtm6+P6/rDxsQgN6D5cR2e19E91fRz1y+YjNpmR/0fWe+/aGbZR68+Dm+XznpKHZRzx4Epev01VqZGR5yIPTajmVMb0Iz9U2jvDs5CHBpSMj+ztsb+RObM1oCt9d+O6st+oz2Ms/GOGBkZ8rOVay3pTaVvLdbfwyjJWWe8e2QJdaJuKlRq1iK/bepV1U+RnEaXvPjqnUdrDUkeW+lfn/qNYarm3KHOpGZd939ObMlet/u61Vl8z7L+tbcY59Z6LMtZHjbG1Omkdp/Tl2c/syr1Grp1aNcJ4ewI0oNszZUYIQAACDwkoi0lPU8wupjz3xtwQiELAsjH3008+jrKtpnWc+Rfgm0AlHDzzF8+PcNGIfkSIvyvruaMXD7wMulyUh2yRa2D1gf2RNiNFCqXPRtbIZhOlz5zhhZqaZybfO4oDSnazfFO5x1F/U651lj0KI2XtNGoT9VpXf5kIz5ejsrJGyvalB9gcZfG+v9OA3sdNcZVVblbH2tlfHvOwjfrZ3mMPZc4Zzy3KejYDN6U/Rs/z5PXbilVqZPVnjXsxQRnTj/wQe3tF7ufzKhkf2dt/t213yNaArrTlRnLFunbbmzIPW/FUxu82b7IZbaU3Zf094/nChrZmFqWfHdlCGUOtzjKsraS0h/Xaj+azYq7USdRnEWWuqakdzx7TlfaYdW525N+Kv6t9/xbrGWuwqr0UNvK6hzLG7PdglbdGuCjrgpp4P7KXaNcqdTVTS+q4NXOv0TTGel4mQAM6qoAABCAgIqB+SFVsiyJDQZl7nJlA+fXz0qQ7+vnSm1+4lF9Az/ihCT+j1R6vOXLj+fXKaURfT39WO1IeYNUcREdbjxXn2nmU+49c/6qfN46+YFBrP8U45YF+ZI1srJU+U+6ZgcmIDpX6Kutc6aWRUoszdKh+EVT0UVM33NP76vbIGAOJLyPR+eVrs/mk7e5vz6bUWLb8BRsfBdKA7sPValaLZzx1rB2pfay4Wc+jfra3Xv82nzruq7Xnxc3CD7e1KZmo7d3Kn7x+m5hSI6PPq602jzJeqb2a+HGW5/5Z9lf6VPS4e20DGtCPVbliXbvtekZ9WxMTH1lFvebi0+Weqo/VWbkyr4zaVMV2xn2Ueq3JP8p8GLXGVNaAMzRn4Y/o5HJR6qTGZkqbWOUhS/0rY2lZd41NLPcXaS5l/VD2fZ271PePqHe1HpTxZb+3KOyV8b6mVlPb3/N+Sn+eqSflPou9Zu7VUy/MbUOABnQbjswCAQhA4CEB9QOq2hwUG2ri3O8sBKx+/bs0n5cm9IwfGtAzWu32mjM1nl/voDSiv/v2k3WMwU6GCCjrutqDQeVhZcS6T3nQFnH/m6CV2sz2UuzsPrIPejNe7qz85bnCVs20NjcMJTvRxSvHb3VM3kw24m8r22Pjo/bX0XypzF9lrSvFl3thTKnzUfsrQrFSY9n0pWbz2W98TWHy6nsUe3l8aECvp1ps8Oobn3taa6o+Fn6qzrUjtY+Ka+t9ZtWRreusGa/8Mq06x9fsv2eMJTOlP1rEjx5etdeo83qxY4aPUiOFx4ox+5GdlfG81geVNo98ju7ln0q+tTb32mvrvNka0JV5o7A8g7+oa7XRmkoZw7fzo6I75WeUUVmr0q4W61XyVd5LGbNq7aDURsQYqrQJ50d13hbxWUTpJzX7V9ayEZ8PZ+R+rzP4Oq+YN0qtta3WKrzV946Yo9SWVzPf768m9il4qOuCs7xvVD+PzPLnGT5UW/Mr/Id7xCNAA3o8m7AiCEBgMQLqh9NZ+Cg4ZpHnvisToAH9mXXhkF/llv+QwCwa5R9xePet3077jznM4rbifZUHg7X1lfqwKcoh7aYv5cu5WQeKNb6kfu6o1WfN2r3HKP02skYKZ3W8iPgC2Vpvat9bienK8VsZdzZNj375eGV7zKgZtnuO1E1Km5T1ZsrtvbFczTR6XaCMVaMxqtfmvdcp2fSu0fM6L+3SgF5vtc1n1Foctb36eWMkz9ZbQztyxvOF1w5Vsd9Td+pfo7Ssxzy5XGtGZeterSpjaXQWe4ZKjax0llGrw4i6w+a11usbp+SbKdYUmtka0Dk76POBR1cpY2JZx+hzjbomL881yhhSGFnEEaWvWNbJ9gqfO2NEOyj1POrvHtZTxjzOj+osGO38SJlnWuK9Mp5E812lTc7yPu6Rdyq1tq971PeNpvO6iGk7Ss18W32k2lFZF9haz2Y2Tz9Q6stzH5Hi5RnPcG2Ufp5ZaEA/j63ZKQQgMIGA+sF0whZfuGWkon02C+4PAQsCVo3Xn37yscVyps3xla9+/VJ+PXv0w69YjxLsu36F5vP9ztFRnw5WuUpd27W8CDvDodo9HZ1573sman1mqv2VB/qzDp1r46ySRVlTdB613I7GKeNQWUsm/4vyskSpReWXq/Z8R/eo1PHoWo988tbf1fFvNAaq83pZb0vt2WODCNeo/XOG1ls4K/2i5YtuLXvwGqtk47WHkXm9tEsDer1VNp+ZkQ9Gak11nF0xd6ltXvy92M3ro7CRp+68+VxzH/G/67k8uVzfK3qeV+b16Cz2tlNq5CzPG3u+St21xI7Vn/298lnNvEqfyhRrCrtMDejqWuws8VEZEwvTUR9R62CrmdWcRp/9lTmlJdfVxOxVxii12uJXypwYMY4qfZnzozpvVpxN1K3k2SilRlrip9J3R3NQC++ascp4WtbTYpea9Wcbo9Taxkb9j0xG0/gMjcywc9lnNPbKmD/Dzkf39LSH8nnEcx/3GM7Qzox9HmmIv8ciQAN6LHuwGghAYCECs4rn2QjP/nA8mz/3X4dAabgujdcWHxrQn1GkcdhCTW1zrNZ8vu0eLbXpYKXRypcOLS9xC2PloVO0w6bVDxRrfUipz7KmTHX/mf3jWj9Kf4n4cqfWn1rHKTWWzf8esVTqUZG7Shz++Xe+dyn/nfEZ/QLNavbY20Dto9u9R3SnPldsrT1naNzinnB9kaLSN7JpTMnGQtvWc4zEr0droQG93lJ7n8kUu9RrHa1/6i2iGznj2d6zhlWcHXjWsWX9JSeoPpa8lP4YPc8r83p0FnstKzVS7rtizL4XG5SxvFVzSru3rk0Va73uA9v7ZDM1oCvtuBE7Q3xUxsXCdTT+qNe7aUB939F3DZ51+HVEsayTvfLAjHmVdW6rDZT68DrH6rWp0i6cH9VZKVquVfpHy97VdVDL2uos3T9KnYNbY2r/zuJeqfSDrT5UvsOPlpvUSlDHk21/o88BHpyUdYHH+kfn9PQFZRzx3Mc145nfO1Luc1RbXD+HAA3oc7hzVwhAYHECs4rnKFh5QI5iCdaRmYBVA/qX3vzC5Qff/25mFBerJmaahrUysPrleu2q6++GnupZrTRSeSjYWk+p689IL4NWPVBs9R1eit0npvTd6IexSn8pFmmNZa26jzJeqbGy5+g6q7WLUo+ezEr8/cVPfub6y5FHTC1epq5ijz0rdW68ttNIvaSu7Sw0dKTTKH9Xar3seUQH3syU+SubxpRsvO3cM79X3qQBvd4a1z6j1mSvBtT5K3KMrbf2iyPV9Ut5ZvOsZb3jv6fmih+8+sbnaECvELO3nSuW8HCIMoZGZ7EH5ek/twyyYsy+J7zImpuRZ4pfnOGj9KlMsabYngb0+x7QW3dn9KlM5zHqWLnPkcpYUnQ0Ek+UNj3Lu6ZW345sA6WWo8XSmbWg8t4j7yuV+oh2Rq/MMT0xXhlXIvmu0i5n+g7Fo7ymjgOtOXZkfCRtj+xj5FplLNmvM+LZkzo3j9jN41pPf1DqzHMfe+7qfHRt84g+5KFL5uwnQAN6PzuuhAAEIHCTwOzkH8UsHP5GsQTryEqABvTnllM3oG+/PP+lL37+6SK+/ObnL6WRn08dgaLd997/9qX89wyfTz/5+AzbZI+Xy9NfM1X+4lHPgc6KB2s14jvrvq/ZqDWaqd5XHuirDp1rfOPWGKW/lPv3xLLevc28Tv2CNLrOam2h1KM1s+1fSPf8tchajmWcxf4y22PPKoptRm2izF1WGmrR7MyxSq1Hz4VKnfV82W2mTpRsZu7z3r1HY9i9eWlAr7f2tc+on/fKSnue+dR18YrPG2pbFzuXj+eZV4+War3FM68Xfc2wh1WjptIfo+d5ZV6PzmLvW0qNRK+La2NO7TjP2HS9hp4Yq1yfV11ZawvlOKVPZYo1xQY0oN9X4pl8RBl7RvOOuga8fq5R1i4j54JKm/bkO2UOmHEvpU578o4yL476vLX9lD7M+VGd9SKdHyn10RM7lb4bqQ5SxtTec9c6tecapfQHJZlI2lbue7uXMo7s9xeV+6o6r9WWp12UzyOe+1jl+y21mmBcbgI0oOe2H6uHAAQCEjh7sbg3SaTDm4BSYUkQeEiABvTneGY0oN9qni5N6DSlP3ZcK91mCg9FFz/4/nczLZm1dhJQ1ng9L3HLtpRr9DxYazXRKgeKrfu+Hs9LsfsEz+obszVS7n+WZ0K1/0WKwSOxSxm/yzqtGjm2F0Aje7e+1sLXlPYotvjsN75mgqH8Ymf5bP+NYp9RmyhzV+HX80UkEwNOmESp9ei5UKmz3mecCRJ5ekslm1l7fHRfr1qDBvR6a9/yGfUXt3r8Vr3G0XxbbxHdSPWzxVYDeMa9Hi3VEPfU2xYHZ9mjZv9HYzz5XN/by8ZHe6z9u6e+s7HYr1epkeh1ca2WasYp40av72H7Gku2j1Fy7bV9+65srqAB/T5Hr2cvG8vZzqLMx6N5RxnLb61Vff/es0HlGduZzi5rPU/pU738A29+cAAAIABJREFUlRqJFE+VtuH8qM5jopwfqeN7z76VNe1ovq6zft0otW1642rdbvKMUnNXkImUjxT7vb6HOoZs94/MXVkXzLD50T09baOsNfl+y5Gl+ftZCNCAfhZLs08IQEBCYFbxLNlcx02yvfjq2CKXQMCNgFUj7wrNsVEa0O8Zm8b052Reee11N5+IPPEKfhaZb5S1KQ8Ee182qGvRnhdWHvZUHih6HoyOslG/nOnV6eg+e65X+i8aedFCUeJEj25arlH73yrP2sr43WLPbGOt4g72sLO8hU2UuavsPFNeH7WUmm3kXKhkkS13KdmMatrjeos4dmtdNKDXW+uez6i12aqFs55L1Fv2eKT62WKrAbzv65EPPfVGA/qxVvcjoud5ZeyMzmJvN08fuqUgjzjQplTN6Ax6847516Rb6wmNpezvovSpTLGmkM7UgK704cLmLP5R9qpmO3LWpY6Tt3KkMqYU+/TEFeV58og97SP+/BnVGu3lr9Rxj4a9LKmMd5wf1VkxyrNIBG3UEFPG9yi1UJa4WmO/bGOUfqFg05szFWvzvofaj/b7iRLnbzFeTeOtOvKM88p81brvbOM97ZSNBet9TIAGdBQCAQhAwIiA8tDMaMmSac78QCUBzE2WJWDVgF4AffrJx6k5feWrX7/c+kXy1k2989aTy7tvPzm8zOJ+Z2xKt+B2aJzAA2r1FXgLLO0BAfUh6cjBqPJwLcrh0xn3fEuuap1mqvOVB/pR/CKCRiJ92cM7yan9bxW2yvjtrYGZ84/UDft1Yw87K1rYRJm7ys4z5fVRS8H2OUEli2y5S8lmVNMe13vVtDSg11vrns+o687WHKF+T2aRc+utohmptvG+BvCsBz1qDc/1btqaaY9RxSn9MXqeV+b16Cz2ulJqpNx3xZh9y089Y9P1/UZiq3KdXrXlaJy0vl7pU5liTeFMA/p9tY34sbWGvedT5uPW55jrvatrwHs5Us2sNV4rc8mZfKXGF5XaGMk5ytw46vc13GvHRLCPOo618ldrI8qziFIbI3FTaZ+RGFPrkzXj1D4zYp+a/WQao2bvyaa1lvJcy4y5lTFuv7/o3GdxmaGBW/f0tI/yeSQKT691RKmVvPbHvHYEaEC3Y8lMEIDAyQlQyNwWQJRDgpPLk+0nJEAD+nOjWTU21zYIW93vluxWbUy3+pX6hK76wpJrNZZ9n2dcv/IwcLR2OuPLIGUd7nkwOupb6hczmV6KKX0YjTxX8mg8G/UJ5fVq/1uFrTJ+K/WgvJdlzMEeNpazsonaHpny+qillHVBWWtktkoW2XKXks2opj2ut4pl12ujAb3eWo98RvncX1bc4r/qta34pRj1s8U+T3nGvhYd1XiKp9b2MXCmPWo4PBrjyej6vtb2Hd379fWe2s7GYr9epUbKfVeM2df2V8aMUb/D/taR5nJRMh21v/3uH89IA/p9PpHPDKx1oszHo+cxynj+KEeq19HKTXl+eSZfqfE9pT+NslfqxOs8q8Ym+zFK+3B+VGedCM8i6pg+smdlXRvlWVFtn9HYWqf8PKOUcdOTyojfea5LMbc6bmx7ipL7HzFeRd+9OvK0kbLO7N1/hus8bZRh/6yxjQAN6G28GA0BCEDgJoFZxXMWc1CcZLEU64xG4JXXXjdZEr+A/gzjD77/3UtpAD/6WHE/us/29+xN6TSfv2jpWp3V6oNxMQgoD6xGXzSo69IIB+hK+0Sua3kpdj9eKA/0I2tEHR+yfRFyNOMoY9EqbJXMRu0b9XrLPIw9xq1smQPU9rDU0jhJ3xnU+XC0vvekoayRsuUuJRtPG/fObRnP9mugAb3eIkc+o9ZorSbUMXbF/DXz2d773pY50bNWogG9PlZtI49iVvuMtlcoY2Z0FnuyxGxbnZXZMmnNO+Zf062tJeytoptR6VOZYk2xQKYGdM8a45YaLesjndr77qT0kbLCEbbqGPnouUbNrSW+KP1lxJ59io17VSR91lBSazjCOUGkmlC5lqKH2poPXdR4T/+Yllh+7y7KGF+rm34ix1eqYyt57UWbqPkfK6J9RAQdt6/a5gp1TN+vOkLeP6KozsVH61H/3dM3lLlKzU11P0/7qPbAfbQEaEDX8uZuEIDAggRmFs+ZcPLQnMlarDUKAatG6OwNsWoOVvcb1VGGxvQPP/rRpfxiPJ8XCWT3Oew596Db4nBUecAW4SDqbPu956PqlzKZ6nvlgX4En7inEfWza2QWHrlOGYvK+i3yhQeHljnVzFrWlmGstY9hj3GrW/ql2h6Wax8n6TuDOh9GrpmUNZLFl958lfHi7Eo2yn3V3ss6x2z3pQG91gLHvzqufv4rK6+JZ+oYu2L+Utv22q6e8c8qF3jrbK+r2faojxovj/TmtL+jlW1H9vvoWk9dX983Oov9epUaWeUc45HOMsYL5XOnV33pFTd65lX6VKZYU1jSgH5fUSvWs1HeT9Q8v0R533akA2UtU5jUxmxlHhmxZ09Mj3yNUg8W+UaZH1v062njSDZS16icH91XVraYqfbdo1zo6bNlbrWvkNdetqgydnroabaGPfZUO6cyvu3XlMWPsmu7Vgf3xtU+W/TcZ5b2etYa9Zozx66oNom+LhrQo1uI9UEAAuEJUMDUmcjiULLuToyCwDoESmNvafAd/bzz1pPLu28/GZ1myvWWDc41TcGW9/MAFq0pPUqzvgfrkTmLnYre+KxBQHkQaFUvne1lkLIe9zwYHfUYXordJ6j048gaUccGq5g26huq65WxqOxphRcBamYqLSju4+Ff2GPMctbxX22PFWJKrQXV+TDyFyCUNZJH3Kq1ec84JZue9XlfYx3TtvXSgF5vuRqfUceziGtaMX/Nfrb31pWFzTzXeB3/ZtujPmq8PNKT0/XdauLDyF5Gr1Xm9egs9iyVGlnlHOORFjPqDA2MRpcXr1fyzBRrCiUa0O9rzaI2slWy32xKHym7GHmuVdeARzpQr6fwqznPUp5f1qzHT72xZs7IXbnmEd+3snS0ulAdf2vqFPWajuKsle3vzaOO4xb7Vdtotu+qbURee9lb1Daw9PvZ+rXcS+tc6lixrS8Tc2Vd0Go/xXhPWylrTAUr9T3IRWria9yPBvQ17MguIACBSQRmFc+Ttjt8W4qVYYRMcDIC7/3+B5dvvv/B8K4zN8NaNeEXiJ9+8vEhy+gN6Pc2MKMx3Uqfh0ZJOqDmHzxIurVTLVt9wG1VK6lrVKt194pLeaDoeTDau//tuqx6Hd13zfXKA3008twiNV8wqLFfljHKWLQKWyWzLDqqXadH7sUetfRfHucR+9X2sPhCUj9B7ZXKuqDszMNfrYgpWWTLXUo2Vva0nMcjrpX10YBeb6Van1Fr9Ugb6vOIFfPX7Gd77/tb5EXPOulaU948rqOCBZ9tTqU/1sas+ihoO1IZK6Oz2JNVaqTcd8WYveeZUWfqGHdUR9h6vn42pU9lijXFEpka0JW+HP3MwNqLlD4yylYdH2typJpfTZzxrMs962RrbSvni6jNmv2r9VvjUzXr7h2jzCU1vlr2oVxTud9R3YcmetV1fF2tJo5nulyUcf5IMzXrHRmjjq+W5z8j+452rTpWWe1/dt6x2kfrPOpYvq3PMs617rlnfFZd9+z11jWe8V2Zp6x4RJnH0y5R9sg6fAjQgO7DlVkhAIGTEJhVQGfFm63wz8qZda9DwLLBt6b5OiI5q1/Yrm3Ct2Q+m6d3U7qVbWZz8rp/rea87s+8NgTULxksD6WVh2yzD6XOtNdHylbrNdNLMeWB/mx/iKSRMz3/qf1vFbbK+G1TGcSYxSvOYI8++65ij0x5vc9Sz69S1gXlrpHZKllky11KNqOa9rjeK7bRgF5vrVqfUdehR3FN/c7M8hyl3jq+I9U2vZWnPGNgrbbvUfbU2K3YF8EevYrzZHW9plG79u6x9jpPTWdjsV+vUiPlvivG7I1n5lihPAuIHitqY8qMHJU51pS104B+X12RzwxGfeL6enXeGWGrjuu1OVJZ0xT7HZ0NKHPIiD2ttTxzPqUGLPO22v+PtOttw4h2Usc1zo9eVFnWeKn23dp86OHDah8hr922otoOFlqanXMs9tA7hzK27deYzX+UdUGvLT2v8/SRWRr05KWY29MmivVzj7kEaECfy5+7QwACiQmoH7ATo3ph6dmK/1W4s4+cBCx/jfudt55c3n37SSoQM/a/UgP6PWNbNKafgZOFs2T0O4t9rzSH8hDQ8iVusYG6Vp35Mkh5oBj5EE79MiZTXa/0ZTTyPAtYx7XI+UXtf6uwVcbvyPppWZtnjMEeLZZ4NtbTHsrcVfaSKa+3W+rFK2D7nIeSRbbcpWQzqmmP673iGw3o9dZq8Rn18/+jtanXMvMsot6abSPVzxa3agDvNYzUHZ41Kw3obVrdj26JWf136b9Smdejs9hTJGb3a+r6yswaQwd2OlCyzBRrCmEa0O/rbKQuslOvZiZlrBw96/Kuh6+J1z7XqNd1xNGzNr9mdCZfeeSRmZkr1+51rlUbLZXxrqUmUNYqhRXnR88Uo47dtTmlRs9qzcz0XbWdyGv3FaiMoTV+cDTG0ueO7hXp7+r4sO19Zpzo5Z9N0737vHedp82U9aU1l1nzedpj1p64r5YADeha3twNAhBYiMCsAjo7wpaDr+x7Zf0QsCBg+SvT2X4F/Stf/fqlNKFbfH7w/e9eSuP10cfynkf3ivT31l/rttRlJA4ea8nmdx4Mss6Z/QWDuladeUClPFCcuc8jX8qu2aP9jfxdeaCPRl601FleuKn9b5XnamX8HokhUa71ji/Yo83S3vZQ5q6y8zN92UXNNnIuVLLIlruUbNqij2a0V4yjAb3efq0+o9bsPY2ozyIix9h6a784Uv1sca8G8KwNW/W9EfLW1y09RbFHj568ee3X1GvTnn31XKOMkdFZ7PkpNVLuu2LM3nh6xsxrzVtrTB3nvOrMnthgfY3Sp6x1YM3iej4a0O8T5jzGT30jbNWxsSVHKmNNsc6jeKPMfyP29FOZdubIuqwhodZui1/VrL9lTOTnD+XaCjPOjy4XJXOPGlEZ62c+K6hjLHntflRV26Ilvl+PnanZkXWPXqvO6dt6s/JW5oFR23pc72k3ZY7yYKOe09MW6r1wv3kEaECfx547QwACyQlQuPQbcOYhX/+quRICcwhYNvpm+jVmy18/L5arbQK25D1HMX13bWlA59fP2xhn8ru2na0/Wn0A6FEfKevVmYdUZ9nnkdepX8Rkeimm9OeZvhBNI2U9HrHtaJ8z/q5+yRZZZy38lfG7ZV0Rxypsjj3qLa/IgcrcVXau0Fg9Yd+Raq1HzoVKnXl8+c1TKUo2nvvondsrJtCAXm+RVp9RPw+WndzKh+q6OHKMrbf2iyPVtrxX13jHwR7beerrXtyLYo8ePXnyul5Pa8zq2c/INd563q8tOov9WpUaWfmMKHOc2PTAM9JIhHl+rdKnMsWaQogG9Psa83r2slG17SyZYo06trfWxsra5tG5odKmivNYW8Xbz6a0u0eeUebJ2efdkW2ljm9nPz9S8/aIlWrfbc2JVtF2BVtZsYgwjzKOjux3ll5H1mxxrbIG3K83K+8serbQxq05PJ95Z2nRi5XnvB41gud6mTsuARrQ49qGlUEAAoEJqB+sA6PoWhqFTBc2LjopAetm39pG7Nm4LX+JvLa52rrpfTbDlvvXNklb67FljZnH/uD7370UHfLJRUB5AOjxErfQVtessw57lQeKngejox7CS7H7BJX+HFkjhZDSX8r9ZsWFUX9qvV4db6PrrJafWo+164o2TmVv7HFs+VKzffYbX3v6yz/eH+KKH2G11iPnQmWN5PXM46UUJRuvPYzM65V7aECvt0qPz6hzx601qtcQOcbWW/vFkVGe7b3X0fOe0DOH04Deq9hn1/XErLE7tl2tzOvRWezJEbPbdHRv9Ar6UmuhJwfYWMt3FiXHTLGmUM/UgK60Y2Hj9ezlq/a+2T1ruVsrGnlW8K6Fr9fbulb1+sp6b8VupU1XzR213qS2uRdvpWZm5sro9aE61535/EjNujWf1MQg9R5m1UarxNkam2YYo7ZHD5NZWu1Zq+U16piwrT0zb2VdYGlrq7k8baesLa14qOeZWROr98r9NARoQNdw5i4QgMBiBChaxgxKQTPGj6vPRcC6Kbq20Xgm5Vl7PnNzde0/THBmRiM+UfuPIIzcg2ttCagPs71e4qoPfj0PDR9ZWFmbz9pjjcJX0W3NXlvHKA/0I2ukcFP6S7mfV3xr1YD3+LPEW2uOaj1ar18xn9KHsMdji6rjO3HFx8PU9VLZhceXvqzoKGukbOfBSjZW9rScxyvm0YBeb6Ven1Fr91or6vwVOcbWW/vFkepc9aje9NRTq8a9tXVPS5Hs0aopb2b79bTas3Uvo+M9tXy9tugs9utVaiR6XTyiMeWztKe+lPvwqjVH7GhxrdKnPLVgweJ6DhrQ71PNZssRfSjjzGjeUdeAPc81yphTeN7SqtKmynPyEZ17Xau2d48ma/a+yj6O9prh+UO5xsLr2ofRwpGK2v/uWVMo473nPh5RVef+s+e1GoWr41TNmvZjvHJl6zqU49Wxe9tb9jOE6Fr21pCn/ZT5yZuTx/ye7D3Wy5w5CNCAnsNOrBICEAhEQP2wGWjrpkvhIdoUJ5MtTuCV11433WH0X2O2/PXzAq52v2dtrq79Rwms/2EAU1EHn4wG9OAGurE89eGf58G08rBt1sHVGfZY40Xq55RM9bzSp2f5QY1Gyhgli3K/TDqpZXhrnJprdJ3VslTG79o1RRmn/KXtbc/Y47b1Z33ZZcZLfM+aNIpvqeulWfqp5a3MX9FZXDNTsqm1l3KcV61BA3q9FXt9Rh3nrmt+df5aMXepbfjomc3bni3Pi5616qOYF8ke9RHk2Uhv++3X0xuzWvfUO16Z16Oz2DNUaqTcl5jdq+Dn17XEzda7Kf1kVT0ofSpTrCn2ztSArs79q/rDdQxS+ke596iPqHXQmyPVsfu6bvas0a815JkDW3PmjPFKW4/6zyM+6ljgdb51pIEM9lLHuet8p9ZCb5w9svWjv6sZe8ZJ7DWihNvXetrLfrVzZlT7UMsuZ+WXljVaj51pjxkx3JKfsi6wXLfVXJ7+onweseKhmMeTuWL93CM2ARrQY9uH1UEAAgEJqB+oAyIwWZLngaXJApkEAoEIeDRG1/7itRqDdfN5S+OvdaO/ml3v/Wob0D102LvmjNfV/kMIGfe24pqVB1TeNZG6dp1x8Ku0V+RDOvWBf6aXYsoD/cgaKfFayaLczzvGRclByjhU9pzJ/x7ZSM0til6O1jErjmCPFy0z4x8B2K9AndfLvWfUcUf+YP138uCLRJU8stUESjbWOreYzysX0YBeb50Rn1GfA+zXqr73irlLXQM8erbwXkutzr119UhH3gyuo4Lls543t/3aa21ZHwVtRyrzenQWe7JKjaz6vLGSttR68Ko3baNH22xKhpliTaFIA/pjLVnm/zbV6kYr/aPsajTGqGvA3uca9Tqv300oz5PP4Cf3PFJtZ2/WSt3MqkGz1Ijq2Hy28yOlDry1rtbKaB7vqXBWi7U9DCJeo/ajWga9tVvt/BHHzbLFjHhgzX8WO+t99M7naUN1XdnLQHXd7O+3qPbJfeYSoAF9Ln/uDgEIJCSgfqBOiKhqydleilVtikEQcCRg3Rzd0pjtuK0XpvZocK5t+vW4t4rb6H1q/zEC638cYHTd2a6P6HPZGKrWu9qLBXXt6nlweE8DygPFGfur1f5q2q3dd8045YF+ZI0UVuqYUO65+gs4mNZ44e0xyvjdv0rdlbPPSbDHs38049U3Pvf0f8r/Pvujtkn0HGZhD2VNUNbr/YXNUSZKHrNjXCsr2LQSqxtPA3odpzJq1GeUGt7HO3VtvOKzRrRne28t1djQU1dHvhbNHvVRRPv8f8SxZd0eY711vF9zdBb7tXr61i071vi7h/295lTHB4W2lM+gKz5/Kn1KoQdL38nUgF72rfSFDGcHFlpQ5uKy3tEYo47xIzlSGXuun1WVvhL9jM3CT+7NofafET3WcFBrdjQe1OzpeozSZqM1gXKtZzs/UsbIUR3U6Fy5n7Ie71h0vWd17j9zXqvR2zZGbZeatc3IKzXr8hyjzt3bXlZhrcy1inzgqbXWudW5qXV9ivFb0/n2rKa4J/c4NwEa0M9tf3YPAQh0EKBg6YB245KzFbo21JjlzAQ8GqRrf/lawd1jfy0Nvx73V3CzuEdtA7r1P4JgsfZMc7ToMdO+Vlyr8uCv8FO8OFHXr4o97bWn3F/kA271y5dML8WUfh1ZI8Vv1Dop98yklZ68pn7httKztDJ+99hWdU2Uf4n4zPaIYoNrzaltEj2HjfokOfBlgsoaKVv+gs2ox92+ngb0eq6jPjMj5pWzAHVtrD5/qLdg/0i17Y6e17zXc3T/QtKzJjqqf7z3f62UGh616lL642jMqt1T7zhlXj/SVO8ePK5TakR1Du7B6d6can6W8eHenpS+gibG1Bo97l7vLlsDutoXstmzR72e9dyt9YzGTHUNOPpco9bsVu8o7Tpq0x7dRrlGyVkRj9Q11Iz6XOmTozZTx7utBlTrYDTOtsYDNVdFjFTbTLGnvV1XtFmrbqOOV8bUGgbqeFKzJs8xat/f9jKa3zyZtM6t1PBK3Go4K+vkmvUox0T9fouSAfeaQ4AG9DncuSsEIJCYwJkLFmuzne1hzJof852LgFeDdIQmdK+91f76eVHSWZura+3vZaNzefHl0qLJs7GJtF9lrac6+FMfCKtfBiltNuMlda1/8FLsPinlgX5kjRRCap2Ue6pjQq3PWI1T6qusObrGWrgq43fLulRjo70UOqs9VPVYj67U8SUyix5+19fMyIHRzz6VGsumL9hYeN3Lc9CAXs/VwmfUZwFlza++8bmnTeiqT/Q428NBna9qntc868QjrXvr+EhDEe1Rqytvdvt1HNmxds1e45R5PdMzu1IjxbZH/uZlf695lbpS+ZhaE5n8pUZHSn4qTdTsu2YMDeiPKWWzZ43N92OUvrHddzTnqGvAbOvd3vuUXKj61Dy3qNaivI9aiyrOns+Yt+wz6mOtNs9WJ6rj9BnOj5QaUD1rqXWiflZYNd62xq+I49W2ecRArcsI9lDn7G3PqppEwViZE1Z/try21yx9KnTz6B5ns/Ns3tz/RQI0oKMICEAAAg0E1A/SDUtLOXSlh4SUBmDR6Qh4NUmXX2Z+963fvpT/qj9ejc0tvzbttQY1y5770YDeQ63/GhrQ+9mprlQfXKtqIXUNqz50Vx7WqvfWon21ftUv61tYXI9FIy8SUR/Cr374reYZOQ61+qmaXev6PMZHazrf7/GM9tj2r6rJWjWlruHK+jLl91aeynqgrC1D/lMyycBjrynYtHpY3Xga0Os4WcYQpZa3dZdnU9VnxbylfravqYO8dfRoDZ41as2zVUR71PqXupaM7I+eOrq2R42uam3oPQ6N9BNWxwZlLa30F+W++q1df6XSp7Kxy9aArvbxorKamqxejbFGKn1j2/loXaLWwOh6y77VnEscUj77rewjjzzW+1ns+t4WWqyJQGq9qmt0pd2sagLlms9wfrRqTa3cl/p9lTr3nzWv1eSIW2PUMereOlV5speT9XXqfL2tX523rbldz6fUr1Vd4M3Ean51XrJat8U85BELiszRQ4AG9B5qXAMBCJyWwKyCelXgFECrWpZ9eRHwbpRWNsd++NGPLu+9/+1L+a/Hp3UvhW35fPjHP3Zbk8c+R+es5eT1jx+Mrj/b9S3/MEK2va2yXuWhX2GmPJxWH7op96a0W+TDWvWzitLGozFGqZEML0OUPDbbrfrsp/a7wnMllurcNBpLeq4veaN8PvuNrz1tRo38UdrjUaycEaOi5vcZMSZDHuvxI/WXh8oao+pqz0/pbxl4wKbHu9quoQG9npeVz8yIf/W7HB+Z6bm0drdqm9U8X3iv6Z7evWuhmrrHe+/XuqixR62WvPldryOyP0Z51qm1nWocGuknrayj1WdB6r1Fjh2tClH6lFWt2LrH3vE0oB+Ty2bT4x09H6HMw1bnMeoa0CoWqmN4iw5Gx1rWyaNrUV6v9B9lHFL7WM2zn6Vdlb5oZTe1TSx518xlFWdr7qVmqYyPynq3sFb67sp2q9Ft9DFq+9ziodRjBHuo/X3b84qcM9YFETRYswZlrcz3W2oswpgzEKAB/QxWZo8QgIAZAWUhaLbowBOt+LAQGDdLW4SAdxO64tfQvfdQTP3pJx8PWbw0xv/RRz9+OsfKTek1nAqLr3z160M8ufg5gRrm8JpDYMaBdamFVJ9f/ORn0n+JXlnnKWt0q5e4HnZXvwBQvqgd5aXUiFL7vVyUPLY1RvadXo7lOuULjW2dmXzviO0Mfkdr6v371lz+6hufu5T/KZ/oDefXe1Xa41GsnFGTFRZR47fSLivGmW1PM3Kf8otfvbFLySVbLQCbXlU9vo4G9Hqulj6jflas3+X4yJVq442GuhaqzVfecfHWOry1W6OfqPao8R712mt41qzbY4yypo76XHGLq7ePXd8zskZadafU1Pa82rrG3vErv0foZVJ7ndKnLGvF2v2NjMvWgM6574i1X7xW6RfbnS1ycdY6Sr1uO6Ucz1T73HI8U54RanuW3LK921BQKvFB+VHWot7Pz3tuljWBct1K25d7rWp/nhXslKSOuWfMa6PWmlFX7tesjCOjrCyuV597bGtekbMyv1rWBRY68p5DqVO+3+JtTebPQoAG9CyWYp0QgEAIAspCMMSGnRdxtmLXGSfTn4iA4teoPRrRFY3nRQa1v+rdI5nVGtNrmqFVduuxR8ZrfviP/9Hli3/3jYxLX37N1Hm2Jrb4gkftipS2i1y/ql+4ZDr4V2pEqf1aH7kep36BuurLIrXPFY4Z9NWiS/Vut/tRAAAgAElEQVQLIYsvT2VrKo9sj0f/EM8M/yqsIn7hQ5nDNr2sFmvKvpTxZuMYUU/XMUGpr8h19K1YCZuWDFI/lgb0elbWPqPUdP0ux0dmei6t3a36ea02X3lr6Fb94Zm/a+udqPao0VPmtdfsr3YMHO6TUj93rRKz1Zqq1XrmcatoQ+lT1rWit34yNqB71z63mNfWJ972spzfs567t87a+vbRPtWx3jIOKmORpVaO5rKw69E9ov19RhyKxsByPcoYq7SddU0wI25b2vneXJZxNlL+ULCbfY9VbXfGvGahpVkxSplDLDiNzjGrnlyVc+a6YFRL3tcrY8KRPpV23nNV5UlvWzJ/HgI0oOexFSuFAAQCEJhVIATYussSrA/BXBbJpBAISEDZELw1ohcM5X9v/ZS1ls8333/2X+/PO289ubz79hPv27wwf9am9GLP0qx/9FHq7WgtK/ydBvS4VqTOs7eN6pBLbTvVvlotAof7xJRsjg6dW+3qNV7JZNtDFja1zJUvM2BYa5X741bT3ziRl2dQarrGHsr1bDQinlPNeskftd7p0f4MhhG1dIudsh7IwmTjBJsebzu+hgb0Y0ZeOUndQFG/07GRK+WrjYTaVrVfePVe13We8M7ftdrx3ve1B9Tao8ZzMq+9Zn+1Y7y15GnD2j32jlOzqfW73v2orlPWiao9zb6PZeybuRelT2V7vsrYgK7Oo5t2V4mVZT9Kn9j7vgVDtf0t1rxnsGKuWiVX1OYptQZr15V5nDJ3Kn3Qel+ras86zt7zhVX5zfT9mveJFutT2+5sec3CRrPqS5UGrRiNzjOrhl+Zc+a6YFRP3tcrv09ypFF1HvF6l+htM+bPT4AG9Pw2ZAcQgICQgLIQFG5r6q1UBzxTN8nNIeBA4Ctf/fqlND4rP1sD+pe++PnLl9/8/Eu3/qOPfvxX/78P//jHU9ZX01CtYha9Mb22WZ8GdFvF0IBuy9NqtlmHQFbrjzrP0eGb1brVNXrUl0HKg1Xrl9lWWrg3j1IjKt2PMlMyWfHge9aLt9Wen5VxK4tvjvr2yPXR7DHLzyLmeaVtNg2t5DMz+EXU0a34oKwHqB/vR+hsbEZyDQ3o9fQ8dKH0+fqdjo1crT4uNNRnVC05y1tD+7V45u8W/4psjyPvUa+9hevR2i3/rn6uaPEpy332zKVms0rM9oxPPXZc4ZpVnj+VPhU15t7TY8YG9LKXGf6eKY8cxZ8Z/KziibqOss6R6vUfacHi7yv5Rg2PFW1Ys2/vMda+FuG9tEdN4P3s723nW/OvaPsZHGfc00Pjt/ahjrtny2uW2lHXmFb1pSUDr7nUfrDfhypOe7F7NK8yr6pi5gyOt+6pjAc1sUB5LrTnQU6JoshzrIMG9HPYmV1CAAJGBJSFoNGSw0+z8oNDePgsMDUBmoJfNl9pPu/5lXalECI1pdc2oM/4xw6UNlHf6x/83u9e/v7v/pb6ttzvgAA1no9Eag7fLO6sPsBT7auFjfpFQEQGUQ70s7BRa2azTxY+R/6nfJGxGrs9WyXHVbR3pM2Rv0e0x4waLeKL2RkcipZWOLNT14mbD2Z50avUVkTfilI/ZmMzkmtoQK+n56ULZb6v323/yBVy1fXu1c9qLTnLe22b7r3zd8uzgfeer+3fYo8az1H6vFfcqtnnozFKBtlqaG9fu7bLCjFbHRNG9Z/p+hX0ofSpqDH3nuayNqArn5n37PCH/uhlVUup472HzZUxqd9i9Vda2bb+jnNHzoo/c3ftf/eWZ8GR1Sjt51UTqJ+jRnjXXOsRZ2ef59Tse5UxK9rvbHnNUosrxFhLHpZzKdnu163Kz5asWuZScvWqC1r2qxyrrFdqdapc08b6bHZXaox7vUyABnRUAQEIQKCBgLIQbFhW6qGKA4LUgFg8BB4QoAn9OZzaZuqogprRmF7LjAZ0W9X8e3/vy5f/4b/9Q9tJmW2YwIzDn+FFJ5lAUeupvwgS8eBO/UWS2oPVKDJVPsdlYqPkstdC9heqan/b2GXSVq3vK/PvivxqOdeOi2gPdY6P6m/EnVoVvzhuln4i1or3CCprgUxcCi/Y9Pnd0VU0oB8Rev53L5+ZFRvrd942UnHm0Lai8dFqG7U+n3nXjGU9v/jJzy6l/vH6tOgmuj2OGCnzWVlLq56O1m/xd2/NXq+xRV8W+xuZQ/2ckYlNhPp5xLYZr13h3EbpU161opd2sjagq+uAjX82+17rRukLXnlYbXuvHKmuBb1iSNQ602u/av157SPqvF7+tt+v0ve8csZqOlzN7lH9y2tdimcFteYjnp942c96XmWt6RVjrZlYzKfkul+vwr8t+IzMsUJdMLJ/z2uV5761Wp3lS+QVT6Ux954ADejoAQIQgEADAWWx0rCstEPP9ICW1kgsPDwBmtAvT3/1vPz6+Wof76b02gb0V157fTW0U/dDA/pU/Ddvrn6REI+A74pqD+BGV6Gu06Md3J19/0f6UR7oqzR/tOeavyu5XK9H8aK/hkHrmFkvC8o6szJ7xFgZuzL5ZqsurcZHtcesWBXN55T22Wsqs+/MYhatTnwUI5T+le0cGDZW2eXFeWhAr+fq6TNKfdfvuG9ktHzdt4sXr1KfU7XmLW/9lNrDs/m8tbaJbo8jzXnb6/r+nrHraK+3/q5+hm/VV8+eLK9R88kes9XxwNLWGebK5j+zY060eHuksawN6GVfs84WMvvECszUMd8rR6r3cRQLRv7e+twycq/Z16pr+Nn7Vd9foSWlDT1rAuU+vHXgFWf3656V/7zZRZnf24bqnKmIRVFsZ70O5VmGZ4y15jIyn1r/21rPwleZT8/CdNOQMve2PKMrbb73fe9cORJnuHYdAjSgr2NLdgIBCAgIKIsVwXam3+Jsxe504CxgWQJnb0IvzeelCf0sH6vG9FpuNKDbKosGdFueFrPNOvSxWHuGOVT1nrpOV+2rxsbKFyzberIdWir9vOXQuca+nmNmvUgqe4rkQ7WMZ/LKpKtanmWcMnavyrCF99HYqPaY5XvRNKPMZddayfhFGHgdefyzvys5Zcv9sKnTUOsoGtDriXn7jDLv1++6fWS2Z9OaHaprn9Y8r15fDbOWMa01nnq/rfY42vvZz4zUsa5VX0f28/67Wh/ZY7Y6HnjbP+L82TWi9CnvWtFaH5kb0JXPhiucxyj9wJOXOuZ7xr+ZNrGMJdZ1suXarOdS17DW648+n6JmV+YO75pgFT16xtmieXXeiO5nHuvzzgNqG3rvx8MGUeZU1jbeMTYK01mx/ix+sFJdEEWz2zqU2m2pIdU5ZePRssZotmQ9eQjQgJ7HVqwUAhAIQEBZrATYrvsSzvKA5g6SG0Dgcrl85atfv5TG5DN9Vv3l8x4b9jSl04DeQ3r8mr/xNz5z+X//7z8Zn4gZzAhQ35mhvDuR4tBYeWC7bdT7RWWtZWZoOMreaxkp9ZHtQFfJ5tpe2VjN8LXVXxQomWbTW218sxwX2R6zYpWihqm1ofILFddrynZ+B6taVdGA/oiUMu5k87F6hb08kgb0enreupj1BZh6AnUjsz2b1uxKbZueekcZI2uYtYxp1UwGezzav3r9ZS09mmqxYe3YGTVhtudONaNW/6u1tWpc5tinYjR6n2w+dL1fpU9514qjtry+PnMD+oxcuueXKXYqfcD7XYPa7t52XiGHRakxrePj9Xxq7XnvJ+r8K/mcd02wiiZXsnlUv/Jel/ezglrrZ8lrHrpQ1pzeMdaDT+ucSp77tXn7dCsHz/HKWvwMmt3biu+3vKxc8ounNzN3IUADOjqAAAQg0EBAWQg2LCvt0LMVu2kNxcLTEDhTEzrN53WyfNSYTgN6HUPrUfwCujXRsfnULxHGVpv3asXB8Yw6XbGvI6vPeBmQsYZX6iOCLo50s//77DiYgVdh9PPvfO/pv14/45OBUS+XyC+EeveU+brI9pgVq6LlPKWNrrUcjcU9X5tRG+3Xku2lrrJGyqKhzZ6w8cloNKDXc1X4jFLn9TtvG+n9BeK21diMVtc9Pbkrq3Z6nq0y2OOR8tTr39bSoysbD3o2y6x9Z4tJ6to5G59I52eW/hF5rp44HWk/Sp9S1IqWbDM3oBcOM2ufYuvPfuNrl/LfyB+l/m9xsI4f6lrCO0eq9+Oh1dn1pceebs05M96o9hjhPtYx43pPSjsqagLlfrz04R1nZ7678WIWcV5PO6pz5VnymoeOlHWnIsZ6MKqdU8lyvybvPFy7f9U4ZR5dXbPXNlPm31bdqvPKxuZsGlD5Mfd5ToAGdNQAAQhAoIGAshBsWFbaoRQ6aU3HwgMTOEMTOs3nYwLcmtLffftJ1USvvPZ61TgG1RGgAb2Ok2oUtZ2K9OXi+TKo7GLWwV3rAaMlcV4G1NNU+vpMTdQTeXGkks+tNUZmNiu2nOUFXOQXQr3+lPm66PaYFasifQlkVu7fv7CM/KXnCHyKXjJ9lH6V7RwYNj5KpgG9nqvKZ5T5v3739SO9zxrqV2I3Uv0M0lPrqNdoRTfDXnvWeMRnhp+rYti9vSvz+H4N2WKSun7Oxmdv21maOvLvFf+eWSdKn5odZ1u1l70BPULt41EjtNrx3nil9lXvF9Q2V8S+7Lkssg9Y+VKZZ0btbrn+LHN5v5dU+puqJsiuTc84q84ZWfzMY52evqu241nymocOlLWnKsZ6cKqZc1Zs94zJNftWj1mxLlAzvHc/pYZ7cpDS9ntG5JgoCl1zHTSgr2lXdgUBCDgRUD68OG0h1LQ9BVmoDbAYCAQlsHITOs3netHRgG7LnAZ0W54js6lfIIysdYVrFXWf8mAxwsHd2fY74gfKQ12F1kdY3Lo2QjyMyA0u1kp7eT5lHIuoMX/CbXeIbo9ZPhntywVKO91TUMSXlhHObCNyOYoCyhopmi/B5oiAz99pQK/nqvKZWfm1nsTjkSt+WU1tk978pcwhFnrp9aks9njEaJatZj2DzaoLZ+13xD/UrDLH7AjPYSO2znRtRl/a+Cp9qjevzdJC9gb0wm1WPt3bLKJ/KHV/T78eXNQ1oCpHZs5nvc8ts+Jez33VuutZ40rXePqdMmeoaoLs+lzF3iv5YM9ePHL+tg61xs+Q13psXHONsv5UxdiafVuPUXKM/kxjzfZ6vhXrAm9mtfMrn296cpA6t2zcVo5dtdpgnB8BGtD92DIzBCCwIIFZxcCCKJ9uqacgW5UF+4KANYH3fv+Dyzff/8B62qnzvfPWk0vtr3ZPXehiN1/5HzSYYap/8Hu/e/n7v/tbM27NPa8IzDpMPashFHWf8tD22o7KF0TlmeTn3/ne0199n/HxfEHrtR+lNhRa9+CkZHRv/ZEOwaPkiKx6qtVo9BdCtftYZVwGe8zyzUi+OIvBtc4jMSGH9UchJbtIeb6GGGxqKLWPoQG9npnSZ5R6rydQNzLj8+nRztTvIXvPM9TrPOJ29Pfe2kW9z157PNq/eg/7tfRyP7Lnvb/PrJU9bNfLofY6Na+sMXumD9XacrVxWbWi9CllrWihrxUa0KPEAnVuvWf/2e+ptnV5+YLa3qq4p96XRfzY5shYa7XuP/OzeeteI4z3jKdKW3rFwVs2Uu7LWiNecTZzXLVmrJpvFVueIa95aYLnrnGySoYzzwnHSdnMoMyfyrrAhs7YLHy/5T4/z1p3zGpcnZ0ADejZLcj6IQABKQEODWxx8yBty5PZIHBN4MOPfnR57/1vX8p/s39oPp9nQRrQbdnTgG7Lc2Q25QHfyDpXutbrZdDGaHatrji8O8MePTSv9HeFDjwYzdZWlBdPUb44t/HwjpseWmqZM8MLoZb9ZB+bxR7Kde5tGukMaxaDa42Xl9if/cbXLuW/Mz6zviBxa6+R9NFiC2WNlO1LD7BpUVL9WBrQ61mpfSZKbqkn9GzkivWy+tlsJIdl0k2vVjLZ45H/zLSV6pxEmbtvse7VWGvcsxyvrqczMiq8Z2vL0uZZ5hrJTTP3qPQpda04ynWFBvRI8aDY/9U3Pvf0Bz9mfJRaP9qfV52hrgGVOTJrXsuaG440vP1drbnada08zit+qPOFsibIrFOvOJuZSVb/9vJdtS1Xz2ue+lLWosoY68nseu5Z54ResVjJrudeyvp7Vc3e467U8kj+Ua5zz+qsPtfjp1xTT4AG9HpWjIQABCDwlMCsQmBF/BQ3K1qVPUUkkLmBmMbz+YrKrJ/59F5eAQ3oMayifnkQY9fzVzFyGFez+gh29dyj8kXKPd5ZX4QpD/Q9NVDjByNjlJxq1qlkGa3xvPBR7r/GHh5jlOcrZ+A5aqMs9piV7yO9sI1QE+z1pm5Ej7j/UiNl/ChzfyQfqrEVbGootY+hAb2emdpnZuXXeiK3R674jklti5HnfGWsHNHKyLNAJns8YjTbVluDnEejXITn+RGNjWh79Fp1XZ01ZiuflUdtusr1+NSxJdW14vGKHo9YpQFdXRcccS++UhrRVf8wYLT9e/qBeq/qHJkxt408txz5UoS/qzUXYc8R1uDle8rnL89YeMtG6mcIK52sYGsrFtnn8XpWUMfh1fOap86UcUgdYz25bXMr+e334+W7Cmaj91i5LhhlM3q98rlmRMOz/G7FGDaqGa4fJ0AD+jhDZoAABE5GQFkMrox2pBhbmQt7g4AXgfd+/4PLN9//wGt6l3lpPnfB2jxpRu00b1J4AQ3oQtgPbkU9N8cOivovim0t9zrrIPKWSrxeznorUqkLS9t7c7meX/1itXZ/nl+ki/BF9VscMuuo1q5lXJYXQi17yjw2kz2UcX1v00hfCIlUH2yMvBvRI+657D2SLlpjkNKXsr3khk2rmurG04Bex6mMmuEzSt3Xk3g8Musz6qNdqZ/LRvKYeq29uhl5vlLvccQekXR1by2WjeiRnue97Nar+drr1PV1xpitjgG1tjvDuIx6UfrUjFpxRHerNKAXBhFrZsv8euudQfn//fw737uUmBjp45l/1fFfHfPU+7PQjae9LdY3OkfE2DK6pwzXjzwrPtqf0p4zagLl/qx05BFnM8ZSK56z51nBnqvnNU+N8NzVT1fJbr9Kr3zbT0J7pTJvzqgLtDRfvBvfbzmmT745ZsSINgI0oLfxYjQEIACBkC8UMprl7A8VGW3GmvMT+PCjH13ee//bl/LfyB8az2NZp+il/Ao6HxsCP/zH/+jyxb/7hs1kzNJNQHkA1b3IRS/0eBm0RxXtRV853C2/QNHyKxRlD7/4yc+e/k+kL/Rkrt+VB/qZORVfmvXSqTbkjX6ZbvOpiF+Y2zPwjpW1vL3HKfNxdt/0tkWZP5M9ZuX7aC9tlTZr1eDWjF6u6/0lrpKTttzUen/V+OyxRVkjRfOfI43A5ohQ399pQK/nNstnIueWW/RWrJvVdc7oF5CU8bLeg14cOaKTbPZ4xCiaf7c+30d+nh/RWK+uLa5TnwFl5JQhxlloIeIcGZ+1lD41q1bs1cpKDejqM7RW5q359db82z/yUv4W6R3Vfq3eMUJdA87Ikdly3OhzS6svKcer9abcW4Z7efif0r9m1AQZNZvdzhl8SblGjzpAreuV85q3Fnju6iOs1vi2yhl5qo+Q31Wr1wV+5I5nVp53j+YefPDYnozIQYAG9Bx2YpUQgEAgArOKgEAITJbCQ7QJRiaBQBeBqI3opfG8fN59+9l/+cQgQAO6rR0+/eRj2wmZrZkAtVwzMtMLRg/kahajPGCsWc/1mHtNWFG/yLOt3+PFbA+/nmuUB/oKjfcwaLlGyatlXY98qfwjD9un/O/lH3Aon+2/29+i+1lZ5woaqrWrMl6fiWst/+tx2ewxK1ZF0pLySxa9uirXXdc+W8zex+tt/i1uZ4jXK3xpQulH2XjBZsTr719LA3o911k+kyW3rPCcek8N6nOr0Xd1ynhZ70HPR47Wbtns8YhRdFvdqhvL/y96XTiqsR5dW12jjvnZzhbV/m9l11XmyehbSp+aVSv26mu1BvRM8WE7k9mfnxc73jtDj553t3qh1LCeH7WNZ+VI5XnwqL1Gn1tG7+95fYY63XP/s+f20JbSprNqAmXdY6ERjzirtLMFg9XmsLapOvd7xJ7VbHxvP8r4MyvGethyVsxC6xfpj16upNkaP1A+z1icU+GHNVZlTHQCNKBHtxDrgwAEQhKYVQSEhNG5KOtDgM5lcBkETk8gQjM6v3geX4avvPZ6/EUmWOGX3vzC5Qff/26Cla69ROq4ufZVHHYqXzjMpam7u8VBqm61L99J6ffZWRV66hesM7UR7d4r6KeFabYXQi17yzg2mz1mxqpIZ1rUPfO8bYUvTShrJMVzgKUaYGNJ8/lcNKDXc53pM0r91xO5PTJSTh7dy3a9usYZzWfq9bZyzra/0fU+4hPdVq22jTI+cxxSP0tkY4XPzPeybJpR+tTMWrFHGas1oBcGmWrmHptFvsazXppVk8+Kd5lyncLus3RPPJlF/tl9Pd7LKW06syZQ7nNUJdZxNlP8HGUX9XrrvKC2qfX6o9rJY108d7VTVTLbr84jx7bvfv4Vynw5sy6YQZrvt9RRP5su6qgwqpcADei95LgOAhA4NQFlQbgiaB4sVrQqe8pOQN2Izq+d51LMV7769UvRCJ8xAvxjC2P8rK5WHj5ZrXm1eaxf8N3ig51tVaOw2f/f3v27yrJdiQE+Bg/O7DHY4MzCZoSTCWcElvwXKFHkQEaZI6GLo/fQiw2WPAplBueCiZXoL7BkkJSNwIGEzeQTWGNw5sDs+2jdvn3P6d5VtWrtvXZ/B8Tl6VTv3vWttX9UVa/TsT3+uLXM67dVrnVGPYQ6Mw8qtF19rG01zpyrVxmbW423HF8xHpnz+7XlbPmUGbstObXysbPlwF7rzDFU7eF2ts3tt9HtjemZr2t9vHx73t73UYDeLzdyzGR/4LJf5dMjV9w/Z/tHfOA1c87cki8R46hiPO4ZzRqrLXGd6djqe8Lsez/V5mzjZfxoqzbGMsdUxBqXGeEVC9Cbn3kiM4u+fK+seSF7DzhyjaySxxHXLfkZ+/gds3PtcY+e84joMZg5rkbuCSrlb+UYP+eofHzW0XuC7HxedV17HLnjR7ju2maY6bWtZ/MfHTXPZO8LnuV5Y8ugzM9IVMyH61EW1f/5R64eni2gAP1sYe0TILCkQPYF52qINjKrRdT5rCbQCo3/2y9+9fLz//6rsKLj9s3P3/jXf/6e6ovP361Gtvz5tJxoReh+jgm0bz9vY8HPOAF7uHH22Te13ESPi/UKe/fMG/oreF2yJ9MtLmPrtrRS7vRGoeIDod5zq3hcxXiM3NvN9OEQ+57cETfyQ33RZ5q51ldzy7SJjutZ7UXMewrQ+6MzesxUWVuiP0DcH6Hzjsze30SM7ew+9+pHXGNln1tEPO75ZJ9Pb6yqHld9Dsqe6yt5GStzjMqIeTzzTDLH1Oi94lbXVQvQzRVbM+HY8Zl5nx3b0Wtk5n3hvVlw9j55b7+Ovs79p6OCMa+P3nNkxjVzbnxNO3P/cyTa0fNshXnziFeV10bGNXvtb/POTD8Rf3w263wy553Rc2yEqflqv2LU/iBzX7D/bHNfGbW3z8zvqHzIXm+uIxvlnpst3m02AQXos0VEfwgQKCNgU7g/VJEX//t74ZUECPQKXL75+gc/+i9vvuRyzHWheTv433z9zxXc9kJPfJwC9Jjg/N3f/jamIa3sFsjevx39drjdJ7rjhe0GV+ZPxn4w80Zjpl32e2XE6uxzyhz7UTedzzbpbT/TrrdPKx63Wt70xihznn5W495YtOOqxiPzgwbXnrN96GCUw5YcW+HY2eJ+1DRzna9ml2lzNI5Zr4/4YIIC9P5ozTBmKoyDFa5Xb7Mi+wNIEWM7ey/ZO5Ii8qNqPO4ZVRjbvTEeedwK15jZ1xARYzIr5iPGSZVnCSs+R4jKq8wxNcNecYvbqgXozSAz7lvMVzw2at/aY5O9Bxy9Rmafb08Mbo/JjP+e/u19TeY9+dZH+43XIxW9t8/cS86wJ8g8371jLXKeHTFnGrvnj90Rcd2bz2e8rtI6m7n/nmGOPRrv7L3G0f7O9Pqo/UGFdTLbPWrOyczvqHxo1qNyYoU5LTtXvd+nAgrQZQUBAgR2Cjz7RedOtpfITdjePngdAQIECGwXaN+AfvlDA9tf7RXf/+zdyxefvwMxUGDE3i3qhtnZbJk36C/nkrEnHHFeZ8cqu/2MOGWcU+bN21XMLnEZMXdm5MRM77FazmyxrfpAaMs5Vjq2cjwy+34d09n2evY+54+42WJ+9Iwz90jVHmpn2hyNY9brI/JfAXp/tGYYMxWuBSI/QNwfnXOPzHaPGNtNZLZ5M+o6q2o8HmXpqP3zo35V+X1Ufo0+3+zrh0pzdvacFjUXZ+RU9vxRabxljqkZ9opb8m3lAvTmkBn7Le4rHZs9T2bvAWdYI7PXvq35mZ0DW/u35/jsPKu0doyYVyPHYeZ4miGu2bm8Z7xVjW871xli3Gte+VqhQh73xmHPcZXW2cw1otL4eyvu2eNyT/7N+pqo+xGZ+4JZLW/7FTXnZOZ3VD5cLDL7PvPnW6rkrH5+EFCALhsIECBwQGDUBuBAl4e/NPKGzvCT0QECBAg8kYBvQT8WbAXox/wiXp39wKDajejsfW30jbm3csSN3P2jJytG+3vY/8rMPFjJ7SKcPX/2R7b+kdXWimjxzLVnxbEpHh8EMj9scO0+4xjOXPOic3D29qIehs90npn5MuN4uReLTJuZcuJeXyLGgAL0/mjPMmZGrbG9Uis+b8q+/ooY2y1e2f1+lCNR+//s84qKxyOf7PN61J9qv19l7sme46u4jRgfVWzaWM3eJ8+yJ+qZpzLHVCWXZrd6AXo7x8z49+TjSsdE7eu2mGSvBbOsA5n367fEox2btU/e2q8jx1tT39bLHoOtJ5FzTWZsZ9kTzL4ORs2zI3Kz0vw3Ig8qx/bIGhL9Wnn2uugsc+yReM+8vztyXhmvjdobZNH0j6IAACAASURBVO4LMlwi3iNqzsnM76h8uPiNWDPbe68wr0XkoDb2CyhA32/nlQQIEEh/wFadPHoDVt1D/wkQIFBJQAH6sWj93d/+9lgDXn1YIPuGXtTNssMn3tnAiBtbUQ+D7p3iiIeAneRTH7baDcfM8b/qNc+IOWLqQRLQudXG2R6Syg+E9pzv7K+pHo/Muf46ljPO+6MsZs/xI/2bMc5Hzufy2sxcqbbuZdpExDKjjYhrXAXo/ZGaaczMPB4y7iv0Ry3myOz7GBFje8S68kg7Kjcqx+OR0cxj+1HfR/4+csyMPI/23tn3eqLG5dlu2WNjpjW/xzY7b1qfqoy7TJtqefMMBegtV7Pnj54xW/2YUfdjsveAs6yRmfPY1tysshZsOa/M+/GV1tOLYbZP5HyTuR7MtCfIPO8tY60dGzXPZq8PM8W3x3zEOhI1drNj2+OZeUyldTYzz6qNwddyJns9zczbs98ran6ZeX082/Ct9qPmnMz8jsqHa5PM/l+/7xnnMiqXvG++gAL0fHPvSIDAQgLPfuG5NZRRN3O2vq/jCRAgQCBG4Jvf+s5LK0T3s03At59v8zrj6BF7tqibZWd4vNZm5k36y/tn3dAacW5ZcTvrfVbbt2fe0M/K67Nif69dYylWfbVxtkcn84HKymNzj/1rr6kejxH7vYvjjPu+zHhG5eCs7aw8f2Tukap9UCfTZtbcv+1XxFynAL0/2jONmZFr7COxFffU2d4RY/sSp1nmzsi1u3I8Ho2f9nt7xh6lD8dE5ta2dz7n6Oz7PFXm7OxxETkPn5Mpn7aabVRl7GWOqZn2ij159ywF6M1ilv1QT1xmP2bk2M/eA860Rs6awxXXy3tjLDvHqq0bzS5zXb3EKmosZo6jmWKbnddb1rGKsW3nN1N8e72rXivMnL+99keOq7TOZq4PFcfgbR5kj8kjeTjba6OuRzL3BbMZvtWfqDknM7+j8uHaZOTaE7U3qpJz+hknoAA9zlJLBAg8qUDmBU1l4jM2X5U99J0AAQIVBXwL+r6o+fbzfW6Rr8q+mVf1JnTmjbkW38z9YXYOROZvdluZcck6t8z4r+h3HSfXvzFZG/VAJaY341rJXHdWH5sRUVwhHpnz/bX5jHu/kQ8sI/JxljZWnzsyx8yM4+RenmXazJLvj/oRsX9RgP5I+cPvZxszs14HrPghmew1PGJsXzI3u+9vjajK5xTZ954ZZ5aY9fR19DEr7guz5/YKc/aIMVHB5Xb8jdgrV3DKHFOz7RUfzdHPVIA+Yh555F/x96PX3ew4zjTHZZ97b35m75N7+7X3uOy1tNq60VxH5GLU3JMZ39lim7kf2jL+IubZETlZce4bkQNV47slh88+tlKuZebYbHPsnjzIfP6/p38zv6bivmBmz+u+Rc05mfkdlQ8z3GNrfVhhfquS76v1UwH6ahF1PgQIDBHIvHE05AQD3jTiQj+gG5ogQIAAgYMCvgV9G6BvP9/mddbRmTec2jlE3Sg7y+OtdjNv1F/6kLlHtGd/nFFn3TB9/M7nHpEZ+1UNryM0Yq44N0PyWm838b/y3W+/v5nvJ/fb9p5hbB7Nqcz90lnxGPEBoIv7rPu/zDXwaA7O9vqz8nSm88zMj2oPsjNtZsqJe32JmOcUoPdHe8YxM+O4yLyn0B+9Y0dm72cixvb1Gc+QJ5F5UT0ePdnoGv+x0oxz8uNePz4iO/aRY/Px2e07InsOq5pb2bnTolnh+izTpVruPFMB+mX2yZ5P9s16c75qhvGevQecbY3MnM96szD6uqX3fc84Lju/2jlU9ct8ZtGcotbXzDUgqs+RuZ55/r39jphns89rxtj2eI+Y4yL2DiP63eOZdUyldSJzn1J1HF7nTfZampWzGe8TMbe0fmavHxk2R98jas7JzO+ofLi1G7n+RMXhaD54fS0BBei14qW3BAhMKjByAzApyUfdOmvjVeHc9ZEAAQKrCfgW9G0R9e3n27zOOHrEPq3qDZrMG/WXWGfvE93YfXuUZcfijPH+VpuZcV/Z8dp3xNyamTNnvNcKDyijXVZ4IBRtMrK9VeKROedfx2vmMT7KZGQ+H33vZ1nPM3Nj5jHyWr5k2hzN16zXR1znKkDvj9aMY2bGa4CIDxD3RyXnyGzniLE907Vi9BpePR69WTvinmBv30YfN+N8HGWSHfcKc3bmdXGLY/QcHJUbPe1kW0XP7z3nuPWYzDFVbW56xgL0lj+ZObE1X2c9fpaxnr0HnHGNnO2+SOU183a8ZdtWWzOuvUbMoxG5lhnjGeObPYf2rGkR82xmXF0r9ET1wzER42DGvN2mcOzoiLnvWA/6X525NkTkVv+ZnXNk9rX7OWcxptWoa5Ps9WOM1rZ3jZpzMvM7Kh9ekxqVIyvMcdsyz9ERAgrQIxS1QYAAAQ8P3syBMzddEo8AAQIExgj4FvQ+d99+3ud09lHZN2mq35zJvDnXYp/t9ewPjt4ab6vv2TPngdUtr3Oojae/+cu/emn/+rkv8Ex5sSUXMtccMXgcmVXiMXKtj3pY+jha24/I/EDG9t7N9YqZ4xgtlblHyt73H7XKtDna16zXR4wNBej90Zp1zMy2nkR8gLg/KjlHZu9lIsb2rUzmvvL2vaNzYoV49GbubOO7t99nHjfrXBx1ztkxjx6fUQ6XdrLHe3vf2U3uGWfnTwWvTJNq89OzFqC3vM3Mi+h5Mbu9M/ale88he02YcT3INngUq5ny41FfH/0++55TtTXj2m9EHkY8S8qM8azxnW39OzrPjsjFyvPeiPgf9RoR40frRebvj/pl9jUzv2adY7d4j7xPu6WfMx4bsSdo55W5L5jR8bU+Rc05mfkdlQ+veYxcg6JiUSX39PO4gAL044ZaIECAwB8EbBQ/ToYVLsCkNwECBAh8KuBb0Puywref9zmdfVTmzaZ2LtVvzGTerL/E/ugDv605NPLG3da+Zhx/5k3SjP73vEfmddozeN6aZ/r2xHu2Y54xJ3pjkLlGi8PjqKwUj5HzUva+5nFkPxwxYp+3pX+jj33G+5iZY6Wab6bN6Nzvff+Ia10F6L3a+X+srb9nc31gauZ1d4vp9bHZ9ywixvYs14hn7PlXiMeWXLRf/FhrxTnm+gyz4z27Z/b+r9r++HYuyc6f9v5nzPNb5shHx2aaVMufZy5Ab3mTmRuP8nTG37d8/sp3v/3+D1bP8pO9B5x1jZwpd8+4bhmRb9m51c6xul3mc4tLThwdk5n7ypn3BJkOj8ZzpZi2c5k5ro+s2+9HzHVHrxVG9LnHMuuYSmtF5v6k+lhs+TNiHc3K27Pf5+i8cunfTOvh2Wa97UfNOZn5HZUPbxmNypMV5rnevHNcjIAC9BhHrRAgQOC9wLNfiN6mwdGbN9KKAAECBOYV8C3o92Pj28/nyN0Re7Oom2SjBDNv1l/O8eybdK9Z+ubmL1VG2I/I7cwbtc9iehvHEXPHiFza+p7V14St57v1+JUeCG099xmPXy0emedzHc/Z1wF7oNdH3+xxO2vOyNwjVXuAnWlzVnyj243Y1yhA74/KzGNmxL2Wt+RWfAaV7Rsxtm/jk30OZ95fyj6XM+LRP/N8eaTr+/of9u+NeXasZ56zs8d6i9EM4703V946Lvu6e/brtswxNfNe8bV8efYC9GYyYp45OsYzXj9rLmfHa+Y1cpb7Iyusm21MZXvOOsa2zC+Z62vUtWVmnGeOcfZcei+vjs6z2fveFea8bLMW/yNxnilft8yRUcdWyrnMdWHmObY39iPGYm/fZj8u6h5E5r5gdtNL/6LmnMz8jsqHt2I0ch06+9yq5KV+9gkoQO9zchQBAgS6BTIvcLo7NeBAG5IB6N6SAAECyQL/6J9+Nfkda7zdN77+tZef/fQnNTq7eC+zb+KtcPO5pUTmDbpLCh55GHQkjZ957x51Q/eIf9ZrM+eCZ74OUtT4IaNXWQ/OHqOZ680zj83eOK4Wj5FrfIU1dqRPb05mHffM80PmHqna2phpk5XrR98nYm5TgN4fhdnHzCzryKh7Cf2R3H5k9geNIsb2a2c5Yh49Ix9WicfWTJxljG/td8Txz7Q3zI7zGWM0IuatjVXmrCiP3nayc6j1a+Y8yvSYfa94m0MK0D+IZOZJ71gecdyM33p+7ZC9B5x5bsu2eCsfz7puyc7/zHvw7dyqrRevxWNEDh69JsjcW84e41nWvSPz7IgcXGHOGxH7I2N3RJyz16B771cp5zJza/Y5tieHsvcePX2qcsyROeX6HDP3BVVso+aczPyOyod7Mcqc3277ERWTKjmon/sFFKDvt/NKAgQIvCkwchMwQ1gyNloznKc+ECBA4NkFfvAXP3754Y9+/OwMn5x/Kz5vReh+xgqMeECwys2YEXvZkXYjznfk6FjhIclWv8wb+q6Fnvvb0mb/4NzWsXP28as9EDrb6+z2V4xH5vx/HZ8qa+2z/+EQa3ZuoU2VcXEZy6Pmj7Pn+iPtR1yzKUDvj0CFMTPDODnyAeL+aOQemX0/K2JsvyaUnR9nreurxGNPFmef+54+Rr/mrDyK7mdUe9n3RGees7PnrArrfE+eZedQ69PM4zTTo1oOKUD/eES5H/Pv3o/lmX+y90Ezr5EtTpnz21t5cdZ1S2YeZudVO7cV3Np5ZO/V2nseGZeZ/a2wJ8j0eGtMV4ln63+FmPbMnSPmvCPXCiP62+OYdUyl9SJzX7LCeMx8/p+Vr1nvc2ROue7jDOtgllnv+0TNOZn5HZUPj4wyz+m6LyvMd49s/T5GQAF6jKNWCBAg8IlA5oXOTPxZm6yZzllfCBAg8MwCitA/jv73P3v38sXn7545JaY59xEPCI48uJoGbtAHCUbvIZ9l7z7aeVSeZ97Qf1bj29i2Ofj3v/7N+w8mPcuP2G+PdObDE/F5HJ8V4zFiP3iRjnpw+jhyx494ln3QRcofC/mQM5l7pGoPrjNtjo/inBYi5jUF6P2xqjBmRq6zF8lV7sNcZ0a2a8TYfi2znUf/eL8+8qx47OvNl696hr3is+4Ps2M765ydPV+1cTXjWN87T2TeS2h9nHmPlDmmZnZ4LZcUoL8+wjJzZu8Yj3xdpfU2e22YdY28jv/o+yQrrJ3ZhtXWinvzzYj58sgzpcxYV4hz9pz6Wi4dmWez97srzHeXGGTbtffdG+sZ8jRy37W1rUp5l7kmVJhjH8V6xDh81Kcqvz+yF5hpHz2jd9Sck5nfUfnwKB6Zc9xtX6Li8ugc/b62gAL02vHTewIEJhcYuREYQZO1wRpxbt6TAAECBN4W+Oa3vvPy81/88umJFJ/PlQKZD/bama9w4/k6gpk36S7vu/dhUGTmrbp/r/TBnsh4XtrKnA9cE30cwVXH1PVZPvv4OjJmM9caY/NxpFaNR+YacDs3tId0VX6e5du3zAUfZ2Tm+Kh2vZRpU2WeiPjggQL0/mhXGTOj9/sz3Efoj2rfkdkfeI0Y22+dWeZcelYurBSPvgx8/ajRY/1I3++99tmv57PjetY4PZofmXPVTPfBj7pdXp+dR+19Z82lTIsqe8VLnihAvz/iMnMnauxvbafa/ZjsPeCs89p1nLNNbnPszOuWrfm89/jM+++tjyuYXVtn+x2ZtzL3l1X2BKPXur3z7Ii5b6WxOyLue8fuiFjvXU/OeF2lvMvMqypz7L2cyF4/z8jPUW3unU9u+5u5LxhltfV9o+aczPyOyoceq1E5s8Kc1+PrmGMCCtCP+Xk1AQIEHgpkXvA87MyJB2Rurk48DU0TIECAwE6BZy9CV3y+M3FOetmIhwNRN8dOItnc7Ig97Cz7yZW+ufnZP0h7SfzMm7Oz5PHmQX/yC0bMKSef0vs/PPKV7377/b9+9gms+kBon8b4V60ajxH7wks0K64JqxaiV4xFxqyQuUeq9tA60yYj1hHvEXHNqwC9PxKVxszI8bL3A8T9kcg/MnvvEjG231LKOpcz1/msc7gYnhmPiGxe6dr+zLyJsM5oIzues87ZmdfCLa6V1viePMzOo9anWcdvpkW1PFKA3jOaXl4yc6ivR8eOqnz/PHsPOOsaeZsBI3N09n3yo9GSnVOtP9XNbk1H3HvYOzYz+1ppT5Dpcps/FWK54rXCiLlv77XCiL4+Wjsyf19pzcjcj1SaY9/Kl+x7Hpl5e/Z77Z1PZtjDnG1ztP2oOSczv6Pyocdu5JqUeZ49Fo6ZT0AB+nwx0SMCBBYUyLzoGcFnwzFC3XsSIEBgLoH2DeitCP0Zf77x9a+9/OynP3nGU5/2nEc8vNr70GpWxBE3s2bbU7Y9/O9//ZuXZlHtp/IHe86wzpwTZsvjMzyPtNnGVfu5/HukrVGvNb7i5Fd9IBQnlNvSyvHIXAduoxb1ADU3G17e73/+5i//quQ+6NrKunw/czLHRrUP6mTaZI/vve8XMZ8pQO/XrzRmRtw/uEiudi+mnVe2Z8TYvpfZGXvMM/NgtXj0z0L3j6z83Ns1/YfYZsfxzLG6N7ezx3jr59nz7l6LI6/LmOtv+zdjPmWOqUp7xRY7BejbRlhmLm3rWd/RK6y12evDjHPaW9Eedb+k+vqZ7VZtneiZXUbMjXvvLWfGu1Kss+fW67zaM8+O6G/1ue61sVzlWmFEvHvmvqxjKuVe5npQaY59K1dGjMGsvD37ffbuA277lbkvONskqv2oOSczv6PyoddwZN7s2Tf1npfj6gsoQK8fQ2dAgEARgcwLn0yS7E1V5rl5LwIECBDYJvCsReit+LwVofuZRyD7JswKN50rPww6O/MqFcyu8MGeM+KZOSe4PuqLYKVx1c7o8i3nvvG8L769R638QKjXYKbjVo7HyA+OrLBPrPZHedpa3H4u/840zmbrS+YeqdpYyLSZLS/e6k/EB0IUoPdHu9qYGfX8a8UPwmTvWyLG9r3MPns+PfsafLV49M9CfUeOGvt9vftwlPtlr4tlx2/GOfvsOeo1+Rkdto6p2+Ozc+lyvTfbNV+mQ7W9ogL0faOs2v2Yldbb7D1gpbUh2+Yyes6+btk3SvteNcKsstc91cxnGJdng81y60/mHrPaniBzv3Qdtz3zbGYcV5jr3honI2K+517RiLl669xy5vGV1o3MnKo2x76WI9lr55l5mt32nrnktT6OWE+yrba+X9Sck5nfUfnQazVyXVph7ut1dtx2AQXo2828ggABArsFVvn2oJVveuwOrhcSIECAwHuBH/zFj19++KMfP4VGKzr/4rPvKT6fLNojbsBE3RibjPL9NxRnf0tx9g27reYjTB71sd34++M/+9P3/7sUyT56zbP9PvOG/uw5PGPsZy1GV3R+fras/EDofL34d1g9HplrwW10Vtkrtn12+5nxm9EVne+bEzLHRbWH1Zk2+6KX/6qIuUwBen/cqo2ZdmYjxs2eDxD3R2HMkdn3tSLG9j2ps8/n7Gvws/u/yr5x5ut6f0ju7RGafZ9zxjk78zq4RaLi+t6zGmbnUuvT2fN/z3nfHpPpUC2XFKDvyaiPXzNrMfpKRefX4tl7wBnXyHtZmznfXfpx9nXL8VE6z56r9aSy171YVLnvkNnPanuCSvePMuO48rVC9pq613JEP89ce7a2XWndyNyHVJxjb2Offd9ja+7NfHzUfYfs9WRm0+i9fWZ+R+XDlviMzJ1K68IWU8ceF1CAftxQCwQIENgskHkRtLlzHS9Y4cKq4zQdQoAAAQI7BZ6hCL0Vn7dvPvczn8CImy/VPhjQG7URD1kq7TNHfrj28qGeywO03pg+63GZ88KIm84rxXXkuLoeTz6gnpNVqz8QylGMe5fV4zFiX3OJTqX9TW9GzVCMrui8N1pvH5e5R6o2DjJtjkcyp4WIDxsoQO+PVbUx085sxFq74v2YbMeIsf0os8+cU8/OgRXj8SheR38/8rreH2ncFr3szyucPV63nf2YdStjzt3qEHV85j2FS59ny6nMMVVtr6gAPWqkfdnO6GL0VYvOr6OUvQecbT7rydgz9/ivvX/lNTTbqtoa0ZNvl2My19rLe+557psZ84rxzp5jWyy3zrMj+lh5nns0jjPHxN5rhRExf+SW+ftK+Ze5FlScY2/zZsS1embunvlee/YAr/VnxBx4pktE21FzTmZ+R+XDFr+Ra9MK898Wa8f2CyhA77dyJAECBEIFMi+Eojr+DA8Soqy0Q4AAAQIvL9/81ndefv6LXy5H8f3P3r188fm75c5rlRPK/sbu5nYpflnF8Po8ePZFtd30+/2vf/P+4PbvpSir79X3j7p8C7NvOd+vmZnHvol+f5xee2XG2GrF5u3nMtZiz0Br9wSMzbny4xnikXmOt9Fdeb/YzvWy92n7oOi90PV+2zobO29kjolqscu0iY3qea1FzGOtAP1/fPafX/7BP/sn53X0quU/+sf/8OWf//t/G/ZemXlRbcxckDONVr0fc30NFJa8dxqKGNuP+nlWXmSMkxXj8She0b+/xD96j+h+2fFIPXt+Z5//quvWJRNHeGasA1tGWqbBbOf+yOl3/+m/vvy9P/r7jw4L+f3/+z//9+Vf/cf/ENJWhUYy7p9fnk090z30zPFcdX1g1D9DnHU99FYPqq0R/ZJfHpntuWeMZvaxarwzjfbEMHuOa32sGsueMVzBc0Qfe+yyjsm4Pxh1LpmxWmFcZs+3UXGeoZ2o+IvBp9GMmnMybaPyYWtuZ57jbd+i4rT1nB0/t4AC9Lnjo3cECDyBQJVC9BF/vecJwu8UCRAgsLzAat+Grvh8+ZR1ggRCBe49/LgUrLeblNc/l/9WDBsaCo0tJHD9Bx4u4+j69F4bW7fjzPhaKCGcCgEC0wrc/kGe2zm7/fft/NxO5vr/M19PG14dI0CAAAECBAjsFrj+40W3jTy6X9aOt0fcTe+FBAgQIPAkAvfuoVtrnyQJnCYBAgQIECBAgAABAgQIECBAIFBAAXogpqYIECBwRGDWQnTfen4kql5LgAABAk1glSL0n/30Jy/f+PrXBJUAAQIECBAgQIAAAQIECBAgQIAAAQIECBAgQIAAAQIECBAgQIAAAQIECBAgQIAAAQIECBAgsLSAAvSlw+vkCBCoKDBDIfrlL8d/5bvf9lfkKyaRPhMgQGBCgZ//4pcv3/zWdybs2eMutaLzLz77nuLzx1SOIECAAAECBAgQIECAAAECBAgQIECAAAECBAgQIECAAAECBAgQIECAAAECBAgQIECAAAECBBYQUIC+QBCdAgECawqMKET3bedr5pKzIkCAwEwClb4NXeH5TJmjLwQIECBAgAABAgQIECBAgAABAgQIECBAgAABAgQIECBAgAABAgQIECBAgAABAgQIECBAgECWgAL0LGnvQ4AAgQMCrRi9/fz+1795+d+/+usDLX36UkXnoZwaI0CAAIFOgZkL0RWedwbRYQQIECBAgAABAgQIECBAgAABAgQIECBAgAABAgQIECBAgAABAgQIECBAgAABAgQIECBAgMCSAgrQlwyrkyJAYHWBPQXprdC8/fzxn/3p+/+1n8v/t7qX8yNAgACBeQVmK0T//mfvXr74/N28YHpGgAABAgQIECBAgAABAgQIECBAgAABAgQIECBAgAABAgQIECBAgAABAgQIECBAgAABAgQIEDhZQAH6ycCaJ0CAwEiB9m3pisxHRsB7EyBAgECvwMhCdN943hslxxEgQIAAAQIECBAgQIAAAQIECBAgQIAAAQIECBAgQIAAAQIECBAgQIAAAQIECBAgQIAAAQLPIKAA/Rmi7BwJECBAgAABAgQIFBJoxejt54c/+vLfM34UnZ+hqk0CBAgQIECAAAECBAgQIECAAAECBAgQIECAAAECBAgQIECAAAECBAgQIECAAAECBAgQIEBgBQEF6CtE0TkQIECAAAECBAgQWFQgohi9FZtffr747Hsv1/+9KJvTIkCAAAECBAgQIECAAAECBAgQIECAAAECBAgQIECAAAECBAgQIECAAAECBAgQIECAAAECBAjsFlCAvpvOCwkQIECAAAECBAgQGCHw29/9rz+87W9/9z8/6cJX/+Rf/uH/++qf/IsRXfSeBAgQIECAAAECBAgQIECAAAECBAgQIECAAAECBAgQIECAAAECBAgQIECAAAECBAgQIECAAIGyAgrQy4ZOxwkQIECAAAECBAgQIECAAAECBAgQIECAAAECBAgQIECAAAECBAgQIECAAAECBAgQIECAAAECBAgQIECAAAECBAgQIBAroAA91lNrBAgQIECAAAECBAgQIECAAAECBAgQIECAAAECBAgQIECAAAECBAgQIECAAAECBAgQIECAAAECBAgQIECAAAECBAgQKCugAL1s6HScAAECBAgQIECAAAECBAgQIECAAAECBAgQIECAAAECBAgQIECAAAECBAgQIECAAAECBAgQIECAAAECBAgQIECAAAECsQIK0GM9tUaAAAECBAgQIECAAAECBAgQIECAAAECBAgQIECAAAECBAgQIECAAAECBAgQIECAAAECBAgQIECAAAECBAgQIECAAIGyAgrQy4ZOxwkQIECAAAECBAgQIECAAAECBAgQIECAAAECBAgQIECAAAECBAgQIECAAAECBAgQIECAAAECBAgQIECAAAECBAgQIBAroAA91lNrBAgQIECAAAECBAgQIECAAAECBAgQIECAAAECBAgQIECAAAECBAgQIECAAAECBAgQIECAAAECBAgQIECAAAECBAgQKCugAL1s6HScAAECBAgQIECAAAECBAgQIECAAAECBAgQIECAAAECBAgQIECAAAECBAgQIECAAAECBAgQIECAAAECBAgQIECAAAECsQIK0GM9tUaAAAECBAgQIECAAAECBAgQIECAAAECBAgQIECAAAECBAgQIECAAAECBAgQIECAAAECBAgQIECAAAECBAgQIECAAIGyAgrQy4ZOxwkQIECAAAECBAgQIECAAAECBAgQIECAAAECBAgQIECAAAECFeQPawAAIABJREFUBAgQIECAAAECBAgQIECAAAECBAgQIECAAAECBAgQIBAroAA91lNrBAgQIECAAAECBAgQIECAAAECBAgQIECAAAECBAgQIECAAAECBAgQIECAAAECBAgQIECAAAECBAgQIECAAAECBAgQKCugAL1s6HScAAECBAgQIECAAAECBAgQIECAAAECBAgQIECAAAECBAgQIECAAAECBAgQIECAAAECBAgQIECAAAECBAgQIECAAAECsQIK0GM9tUaAAAECBAgQIECAAAECBAgQIECAAAECBAgQIECAAAECBAgQIECAAAECBAgQIECAAAECBAgQIECAAAECBAgQIECAAIGyAgrQy4ZOxwkQIECAAAECBAgQIECAAAECBAgQIECAAAECBAgQIECAAAECBAgQIECAAAECBAgQIECAAAECBAgQIECAAAECBAgQIBAroAA91lNrBAgQIECAAAECBAgQIECAAAECBAgQIECAAAECBAgQIECAAAECBAgQIECAAAECBAgQIECAAAECBAgQIECAAAECBAgQKCugAL1s6HScAAECBAgQIECAAAECBAgQIECAAAECBAgQIECAAAECBAgQIECAAAECBAgQIECAAAECBAgQIECAAAECBAgQIECAAAECsQIK0GM9tUaAAAECBAgQIECAAAECBAgQIECAAAECBAgQIECAAAECBAgQIECAAAECBAgQIECAAAECBAgQIECAAAECBAgQIECAAIGyAgrQy4ZOxwkQIECAAAECBAgQIECAAAECBAgQIECAAAECBAgQIECAAAECBAgQIECAAAECBAgQIECAAAECBAgQIECAAAECBAgQIBAroAA91lNrBAgQIECAAAECBAgQIECAAAECBAgQIECAAAECBAgQIECAAAECBAgQIECAAAECBAgQIECAAAECBAgQIECAAAECBAgQKCugAL1s6HScAAECBAgQIECAAAECBAgQIECAAAECBAgQIECAAAECBAgQIECAAAECBAgQIECAAAECBAgQIECAAAECBAgQIECAAAECsQIK0GM9tUaAAAECBAgQIECAAAECBAgQIECAAAECBAgQIECAAAECBAgQIECAAAECBAgQIECAAAECBAgQIECAAAECBAgQIECAAIGyAgrQy4ZOxwkQIECAAAECBAgQIECAAAECBAgQIECAAAECBAgQIECAAAECBAgQIECAAAECBAgQIECAAAECBAgQIECAAAECBAgQIBAroAA91lNrBAgQIECAAAECBAgQIECAAAECBAgQIECAAAECBAgQIECAAAECBAgQIECAAAECBAgQIECAAAECBAgQIECAAAECBAgQKCugAL1s6HScAAECBAgQIECAAAECBAgQIECAAAECBAgQIECAAAECBAgQIECAAAECBAgQIECAAAECBAgQIECAAAECBAgQIECAAAECsQIK0GM9tUaAAAECBAgQIECAAAECBAgQIECAAAECBAgQIECAAAECBAgQIECAAAECBAgQIECAAAECBAgQIECAAAECBAgQIECAAIGyAgrQy4ZOxwkQIECAAAECBAgQIECAAAECBAgQIECAAAECBAgQIECAAAECBAgQIECAAAECBAgQIECAAAECBAgQIECAAAECBAgQIBAroAA91lNrBAgQIECAAAECBAgQIECAAAECBAgQIECAAAECBAgQIECAAAECBAgQIECAAAECBAgQIECAAAECBAgQIECAAAECBAgQKCugAL1s6HScAAECBAgQIECAAAECBAgQIECAAAECBAgQIECAAAECBAgQIECAAAECBAgQIECAAAECBAgQIECAAAECBAgQIECAAAECsQIK0GM9tUaAAAECBAgQIECAAAECBAgQIECAAAECBAgQIECAAAECBAgQIECAAAECBAgQIECAAAECBAgQIECAAAECBAgQIECAAIGyAgrQy4ZOxwkQIECAAAECBAgQIECAAAECBAgQIECAAAECBAgQIECAAAECBAgQIECAAAECBAgQIECAAAECBAgQIECAAAECBAgQIBAroAA91lNrBAgQIECAAAECBAgQIECAAAECBAgQIECAAAECBAgQIECAAAECBAgQIECAAAECBAgQIECAAAECBAgQIECAAAECBAgQKCugAL1s6HScAAECBAgQIECAAAECBAgQIECAAAECBAgQIECAAAECBAgQIECAAAECBAgQIECAAAECBAgQIECAAAECBAgQIECAAAECsQIK0GM9tUaAAAECBAgQIECAAAECBAgQIECAAAECBAgQIECAAAECBAgQIECAAAECBAgQIECAAAECBAgQIECAAAECBAgQIECAAIGyAgrQy4ZOxwkQIECAAAECBAgQIECAAAECBAgQIECAAAECBAgQIECAAAECBAgQIECAAAECBAgQIECAAAECBAgQIECAAAECBAgQIBAroAA91lNrBAgQIECAAAECBAgQIECAAAECBAgQIECAAAECBAgQIECAAAECBAgQIECAAAECBAgQIECAAAECBAgQIECAAAECBAgQKCugAL1s6HScAAECBAgQIECAAAECBAgQIECAAAECBAgQIECAAAECBAgQIECAAAECBAgQIECAAAECBAgQIECAAAECBAgQIECAAAECsQIK0GM9tUaAAAECBAgQIECAAAECBAgQIECAAAECBAgQIECAAAECBAgQIECAAAECBAgQIECAAAECBAgQIECAAAECBAgQIECAAIGyAgrQy4ZOxwkQIECAAAECBAgQIECAAAECBAgQIECAAAECBAgQIECAAAECBAgQIECAAAECBAgQIECAAAECBAgQIECAAAECBAgQIBAroAA91lNrBAgQIECAAAECBAgQIECAAAECBAgQIECAAAECBAgQIECAAAECBAgQIECAAAECBAgQIECAAAECBAgQIECAAAECBAgQKCugAL1s6HScAAECBAgQIECAAAECBAgQIECAAAECBAgQIECAAAECBAgQIECAAAECBAgQIECAAAECBAgQIECAAAECBAgQIECAAAECsQIK0GM9tUaAAAECBAgQIECAAAECBAgQIECAAAECBAgQIECAAAECBAgQIECAAAECBAgQIECAAAECBAgQIECAAAECBAgQIECAAIGyAgrQy4ZOxwkQIECAAAECBAgQIECAAAECBAgQIECAAAECBAgQIECAAAECBAgQIECAAAECBAgQIECAAAECBAgQIECAAAECBAgQIBAroAA91lNrBAgQIECAAAECBAgQIECAAAECBAgQIECAAAECBAgQIECAAAECBAgQIECAAAECBAgQIECAAAECBAgQIECAAAECBAgQKCugAL1s6HScAAECBAgQIECAAAECBAgQIECAAAECBAgQIECAAAECBAgQIECAAAECBAgQIECAAAECBAgQIECAAAECBAgQIECAAAECsQIK0GM9tUaAAAECBAgQIECAAAECBAgQIECAAAECBAgQIECAAAECBAgQIECAAAECBAgQIECAAAECBAgQIECAAAECBAgQIECAAIGyAgrQy4ZOxwkQIECAAAECBAgQIECAAAECBAgQIECAAAECBAgQIECAAAECBAgQIECAAAECBAgQIECAAAECBAgQIECAAAECBAgQIBAroAA91lNrBAgQIECAAAECBAgQIECAAAECBAgQIECAAAECBAgQIECAAAECBAgQIECAAAECBAgQIECAAAECBAgQIECAAAECBAgQKCugAL1s6HScAAECBAgQIECAAAECBAgQIECAAAECBAgQIECAAAECBAgQIECAAAECBAgQIECAAAECBAgQIECAAAECBAgQIECAAAECsQIK0GM9tUaAAAECBAgQIECAAAECBAgQIECAAAECBAgQIECAAAECBAgQIECAAAECBAgQIECAAAECBAgQIECAAAECBAgQIECAAIGyAgrQy4ZOxwkQIECAAAECBAgQIECAAAECBAgQIECAAAECBAgQIECAAAECBAgQIECAAAECBAgQIECAAAECBAgQIECAAAECBAgQIBAroAA91lNrBAgQIECAAAECBAgQIECAAAECBAgQIECAAAECBAgQIECAAAECBAgQIECAAAECBAgQIECAAAECBAgQIECAAAECBAgQKCugAL1s6HScAAECBAgQIECAAAECBAgQIECAAAECBAgQIECAAAECBAgQIECAAAECBAgQIECAAAECBAgQIECAAAECBAgQIECAAAECsQIK0GM9tUaAAAECBAgQIECAAAECBAgQIECAAAECBAgQIECAAAECBAgQIECAAAECBAgQIECAAAECBAgQIECAAAECBAgQIECAAIGyAgrQy4ZOxwkQIECAAAECBAgQIECAAAECBAgQIECAAAECBAgQIECAAAECBAgQIECAAAECBAgQIECAAAECBAgQIECAAAECBAgQIBAroAA91lNrBAgQIECAAAECBAgQIECAAAECBAgQIECAAAECBAgQIECAAAECBAgQIECAAAECBAgQIECAAAECBAgQIECAAAECBAgQKCugAL1s6HScAAECBAgQIECAAAECBAgQIECAAAECBAgQIECAAAECBAgQIECAAAECBAgQIECAAAECBAgQIECAAAECBAgQIECAAAECsQIK0GM9tUaAAAECBAgQIECAAAECBAgQIECAAAECBAgQIECAAAECBAgQIECAAAECBAgQIECAAAECBAgQIECAAAECBAgQIECAAIGyAgrQy4ZOxwkQIECAAAECBAgQIECAAAECBAgQIECAAAECBAgQIECAAAECBAgQIECAAAECBAgQIECAAAECBAgQIECAAAECBAgQIBAroAA91lNrBAgQIECAAAECBAgQIECAAAECBAgQIECAAAECBAgQIECAAAECBAgQIECAAAECBAgQIECAAAECBAgQIECAAAECBAgQKCugAL1s6HScAAECBAgQIECAAAECBAgQIECAAAECBAgQIECAAAECBAgQIECAAAECBAgQIECAAAECBAgQIECAAAECBAgQIECAAAECsQIK0GM9tUaAAAECBAgQIECAAAECBAgQIECAAAECBAgQIECAAAECBAgQIECAAAECBAgQIECAAAECBAgQIECAAAECBAgQIECAAIGyAgrQy4ZOxwkQIECAAAECBAgQIECAAAECBAgQIECAAAECBAgQIECAAAECBAgQIECAAAECBAgQIECAAAECBAgQIECAAAECBAgQIBAroAA91lNrBAgQIECAAAECBAgQIECAAAECBAgQIECAAAECBAgQIECAAAECBAgQIECAAAECBAgQIECAAAECBAgQIECAAAECBAgQKCugAL1s6HScAAECBAgQIECAAAECBAgQIECAAAECBAgQIECAAAECBAgQIECAAAECBAgQIECAAAECBAgQIECAAAECBAgQIECAAAECsQIK0GM9tUaAAAECBAgQIECAAAECBAgQIECAAAECBAgQIECAAAECBAgQIECAAAECBAgQIECAAAECBAgQIECAAAECBAgQIECAAIGyAgrQy4ZOxwkQIECAAAECBAgQIECAAAECBAgQIECAAAECBAgQIECAAAECBAgQIECAAAECBAgQIECAAAECBAgQIECAAAECBAgQIBAroAA91lNrBAgQIECAAAECBAgQIECAAAECBAgQIECAAAECBAgQIECAAAECBAgQIECAAAECBAgQIECAAAECBAgQIECAAAECBAgQKCugAL1s6HScAAECBAgQIECAAAECBAgQIECAAAECBAgQIECAAAECBAgQIECAAAECBAgQIECAAAECBAgQIECAAAECBAgQIECAAAECsQIK0GM9tUaAAAECBAgQIECAAAECBAgQIECAAAECBAgQIECAAAECBAgQIECAAAECBAgQIECAAAECBAgQIECAAAECBAgQIECAAIGyAgrQy4ZOxwkQIECAAAECBAgQIECAAAECBAgQIECAAAECBAgQIECAAAECBAgQIECAAAECBAgQIECAAAECBAgQIECAAAECBAgQIBAroAA91lNrBAgQIECAAAECBAgQIECAAAECBAgQIECAAAECBAgQIECAAAECBAgQIECAAAECBAgQIECAAAECBAgQIECAAAECBAgQKCugAL1s6HScAAECBAgQIECAAAECBAgQIECAAAECBAgQIECAAAECBAgQIECAAAECBAgQIECAAAECBAgQIECAAAECBAgQIECAAAECsQIK0GM9tUaAAAECBAgQIECAAAECBAgQIECAAAECBAgQIECAAAECBAgQIECAAAECBAgQIECAAAECBAgQIECAAAECBAgQIECAAIGyAgrQy4ZOxwkQIECAAAECBAgQIECAAAECBAgQIECAAAECBAgQIECAAAECBAgQIECAAAECBAgQIECAAAECBAgQIECAAAECBAgQIBAroAA91lNrBAgQIECAAAECBAgQIECAAAECBAgQIECAAAECBAgQIECAAAECBAgQIECAAAECBAgQIECAAAECBAgQIECAAAECBAgQKCugAL1s6HScAAECBAgQIECAAAECBAgQIECAAAECBAgQIECAAAECBAgQIECAAAECBAgQIECAAAECBAgQIECAAAECBAgQIECAAAECsQIK0GM9tUaAAAECBAgQIECAAAECBAgQIECAAAECBAgQIECAAAECBAgQIECAAAECBAgQIECAAAECBAgQIECAAAECBAgQIECAAIGyAgrQy4ZOxwkQIECAAAECBAgQIECAAAECBAgQIECAAAECBAgQIECAAAECBAgQIECAAAECBAgQIECAAAECBAgQIECAAAECBAgQIBAroAA91lNrBAgQIECAAAECBAgQIECAAAECBAgQIECAAAECBAgQIECAAAECBAgQIECAAAECBAgQIECAAAECBAgQIECAAAECBAgQKCugAL1s6HScAAECBAgQIECAAAECBAgQIECAAAECBAgQIECAAAECBAgQIECAAAECBAgQIECAAAECBAgQIECAAAECBAgQIECAAAECsQIK0GM9tUaAAAECBAgQIECAAAECBAgQIECAAAECBAgQIECAAAECBAgQIECAAAECBAgQIECAAAECBAgQIECAAAECBAgQIECAAIGyAgrQy4ZOxwkQIECAAAECBAgQIECAAAECBAgQIECAAAECBAgQIECAAAECBAgQIECAAAECBAgQIECAAAECBAgQIECAAAECBAgQIBAroAA91lNrBAgQIECAAAECBAgQIECAAAECBAgQIECAAAECBAgQIECAAAECBAgQIECAAAECBAgQIECAAAECBAgQIECAAAECBAgQKCugAL1s6HScAAECBAgQIECAAAECBAgQIECAAAECBAgQIECAAAECBAgQIECAAAECBAgQIECAAAECBAgQIECAAAECBAgQIECAAAECsQIK0GM9tUaAAAECBAgQIECAAAECBAgQIECAAAECBAgQIECAAAECBAgQIECAAAECBAgQIECAAAECBAgQIECAAAECBAgQIECAAIGyAgrQy4ZOxwkQIECAAAECBAgQIECAAAECBAgQIECAAAECBAgQIECAAAECBAgQIECAAAECBAgQIECAAAECBAgQIECAAAECBAgQIBAroAA91lNrBAgQIECAAAECBAgQIECAAAECBAgQIECAAAECBAgQIECAAAECBAgQIECAAAECBAgQIECAAAECBAgQIECAAAECBAgQKCugAL1s6HScAAECBAgQIECAAAECBAgQIECAAAECBAgQIECAAAECBAgQIECAAAECBAgQIECAAAECBAgQIECAAAECBAgQIECAAAECsQIK0GM9tUaAAAECBAgQIECAAAECBAgQIECAAAECBAgQIECAAAECBAgQIECAAAECBAgQIECAAAECBAgQIECAAAECBAgQIECAAIGyAgrQy4ZOxwkQIECAAAECBAgQIECAAAECBAgQIECAAAECBAgQIECAAAECBAgQIECAAAECBAgQIECAAAECBAgQIECAAAECBAgQIBAroAA91lNrBAgQIECAAAECBAgQIECAAAECBAgQIECAAAECBAgQIECAAAECBAgQIECAAAECBAgQIECAAAECBAgQIECAAAECBAgQKCugAL1s6HScAAECBAgQIECAAAECBAgQIECAAAECBAgQIECAAAECBAgQIECAAAECBAgQIECAAAECBAgQIECAAAECBAgQIECAAAECsQIK0GM9tUaAAAECBAgQIECAAAECBAgQIECAAAECBAgQIECAAAECBAgQIECAAAECBAgQIECAAAECBAgQIECAAAECBAgQIECAAIGyAgrQy4ZOxwkQIECAAAECBAgQIECAAAECBAgQIECAAAECBAgQIECAAAECBAgQIECAAAECBAgQIECAAAECBAgQIECAAAECBAgQIBAroAA91lNrBAgQIECAAAECBAgQIECAAAECBAgQIECAAAECBAgQIECAAAECBAgQIECAAAECBAgQIECAAAECBAgQIECAAAECBAgQKCugAL1s6HScAAECBAgQIECAAAECBAgQIECAAAECBAgQIECAAAECBAgQIECAAAECBAgQIECAAAECBAgQIECAAAECBAgQIECAAAECsQIK0GM9tUaAAAECBAgQIECAAAECBAgQIECAAAECBAgQIECAAAECBAgQIECAAAECBAgQIECAAAECBAgQIECAAAECBAgQIECAAIGyAgrQy4ZOxwkQIECAAAECBAgQIECAAAECBAgQIECAAAECBAgQIECAAAECBAgQIECAAAECBAgQIECAAAECBAgQIECAAAECBAgQIBAroAA91lNrBAgQIECAAAECBAgQIECAAAECBAgQIECAAAECBAgQIECAAAECBAgQIECAAAECBAgQIECAAAECBAgQIECAAAECBAgQKCugAL1s6HScAAECBAgQIECAAAECBAgQIECAAAECBAgQIECAAAECBAgQIECAAAECBAgQIECAAAECBAgQIECAAAECBAgQIECAAAECsQIK0GM9tUaAAAECBAgQIECAAAECBAgQIECAAAECBAgQIECAAAECBAgQIECAAAECBAgQIECAAAECBAgQIECAAAECBAgQIECAAIGyAgrQy4ZOxwkQIECAAAECBAgQIECAAAECBAgQIECAAAECBAgQIECAAAECBAgQIECAAAECBAgQIECAAAECBAgQIECAAAECBAgQIBAroAA91lNrBAgQIECAAAECBAgQIECAAAECBAgQIECAAAECBAgQIECAAAECBAgQIECAAAECBAgQIECAAAECBAgQIECAAAECBAgQKCugAL1s6HScAAECBAgQIECAAAECBAgQIECAAAECBAgQIECAAAECBAgQIECAAAECBAgQIECAAAECBAgQIECAAAECBAgQIECAAAECsQIK0GM9tUaAAAECBAgQIECAAAECBAgQIECAAAECBAgQIECAAAECBAgQIECAAAECBAgQIECAAAECBAgQIECAAAECBAgQIECAAIGyAgrQy4ZOxwkQIECAAAECBAgQIECAAAECBAgQIECAAAECBAgQIECAAAECBAgQIECAAAECBAgQIECAAAECBAgQIECAAAECBAgQIBAroAA91lNrBAgQIECAAAECBAgQIECAAAECBAgQIECAAAECBAgQIECAAAECBAgQIECAAAECBAgQIECAAAECBAgQIECAAAECBAgQKCugAL1s6HScAAECBAgQIECAAAECBAgQIECAAAECBAgQIECAAAECBAgQIECAAAECBAgQIECAAAECBAgQIECAAAECBAgQIECAAAECsQIK0GM9tUaAAAECBAgQIECAAAECBAgQIECAAAECBAgQIECAAAECBAgQIECAAAECBAgQIECAAAECBAgQIECAAAECBAgQIECAAIGyAgrQy4ZOxwkQIECAAAECBAgQIECAAAECBAgQIECAAAECBAgQIECAAAECBAgQIECAAAECBAgQIECAAAECBAgQIECAAAECBAgQIBAroAA91lNrBAgQIECAAAECBAgQIECAAAECBAgQIECAAAECBAgQIECAAAECBAgQIECAAAECBAgQIECAAAECBAgQIECAAAECBAgQKCugAL1s6HScAAECBAgQIECAAAECBAgQIECAAAECBAgQIECAAAECBAgQIECAAAECBAgQIECAAAECBAgQIECAAAECBAgQIECAAAECsQIK0GM9tUaAAAECBAgQIECAAAECBAgQIECAAAECBAgQIECAAAECBAgQIECAAAECBAgQIECAAAECBAgQIECAAAECBAgQIECAAIGyAgrQy4ZOxwkQIECAAAECBAgQIECAAAECBAgQIECAAAECBAgQIECAAAECBAgQIECAAAECBAgQIECAAAECBAgQIECAAAECBAgQIBAroAA91lNrBAgQIECAAAECBAgQIECAAAECBAgQIECAAAECBAgQIECAAAECBAgQIECAAAECBAgQIECAAAECBAgQIECAAAECBAgQKCugAL1s6HScAAECBAgQIECAAAECBAgQIECAAAECBAgQIECAAAECBAgQIECAAAECBAgQIECAAAECBAgQIECAAAECBAgQIECAAAECsQIK0GM9tUaAAAECBAgQIECAAAECBAgQIECAAAECBAgQIECAAAECBAgQIECAAAECBAgQIECAAAECBAgQIECAAAECBAgQIECAAIGyAgrQy4ZOxwkQIECAAAECBAgQIECAAAECBAgQIECAAAECBAgQIECAAAECBAgQIECAAAECBAgQIECAAAECBAgQIECAAAECBAgQIBAroAA91lNrBAgQIECAAAECBAgQIECAAAECBAgQIECAAAECBAgQIECAAAECBAgQIECAAAECBAgQIECAAAECBAgQIECAAAECBAgQKCugAL1s6HScAAECBAgQIECAAAECBAgQIECAAAECBAgQIECAAAECBAgQIECAAAECBAgQIECAAAECBAgQIECAAAECBAjpXUBsAAACYUlEQVQQIECAAAECsQIK0GM9tUaAAAECBAgQIECAAAECBAgQIECAAAECBAgQIECAAAECBAgQIECAAAECBAgQIECAAAECBAgQIECAAAECBAgQIECAAIGyAgrQy4ZOxwkQIECAAAECBAgQIECAAAECBAgQIECAAAECBAgQIECAAAECBAgQIECAAAECBAgQIECAAAECBAgQIECAAAECBAgQIBAroAA91lNrBAgQIECAAAECBAgQIECAAAECBAgQIECAAAECBAgQIECAAAECBAgQIECAAAECBAgQIECAAAECBAgQIECAAAECBAgQKCugAL1s6HScAAECBAgQIECAAAECBAgQIECAAAECBAgQIECAAAECBAgQIECAAAECBAgQIECAAAECBAgQIECAAAECBAgQIECAAAECsQIK0GM9tUaAAAECBAgQIECAAAECBAgQIECAAAECBAgQIECAAAECBAgQIECAAAECBAgQIECAAAECBAgQIECAAAECBAgQIECAAIGyAgrQy4ZOxwkQIECAAAECBAgQIECAAAECBAgQIECAAAECBAgQIECAAAECBAgQIECAAAECBAgQIECAAAECBAgQIECAAAECBAgQIBAroAA91lNrBAgQIECAAAECBAgQIECAAAECBAgQIECAAAECBAgQIECAAAECBAgQIECAAAECBAgQIECAAAECBAgQIECAAAECBAgQKCugAL1s6HScAAECBAgQIECAAAECBAgQIECAAAECBAgQIECAAAECBAgQIECAAAECBAgQIECAAAECBAgQIECAAAECBAgQIECAAAECsQL/H5vGP8mmn0yNAAAAAElFTkSuQmCC;" parent="1" vertex="1">
                    <mxGeometry x="488" y="758" width="520" height="89" as="geometry"/>
                </mxCell>
                <mxCell id="134" style="edgeStyle=none;html=1;entryX=0;entryY=0.5;entryDx=0;entryDy=0;strokeColor=#000000;" edge="1" parent="1" source="133" target="28">
                    <mxGeometry relative="1" as="geometry"/>
                </mxCell>
                <mxCell id="133" value="BLASTP" style="shape=cylinder3;whiteSpace=wrap;html=1;boundedLbl=1;backgroundOutline=1;size=15;fillColor=#a20025;fontColor=#ffffff;strokeColor=#6F0000;" vertex="1" parent="1">
                    <mxGeometry x="538.75" y="1134.5" width="80" height="60" as="geometry"/>
                </mxCell>
            </root>
        </mxGraphModel>
    </diagram>
</mxfile>